%TF.GenerationSoftware,KiCad,Pcbnew,9.0.0*%
%TF.CreationDate,2025-03-28T11:23:17+02:00*%
%TF.ProjectId,PCBDesign1,50434244-6573-4696-976e-312e6b696361,rev?*%
%TF.SameCoordinates,Original*%
%TF.FileFunction,Copper,L2,Bot*%
%TF.FilePolarity,Positive*%
%FSLAX46Y46*%
G04 Gerber Fmt 4.6, Leading zero omitted, Abs format (unit mm)*
G04 Created by KiCad (PCBNEW 9.0.0) date 2025-03-28 11:23:17*
%MOMM*%
%LPD*%
G01*
G04 APERTURE LIST*
G04 Aperture macros list*
%AMRoundRect*
0 Rectangle with rounded corners*
0 $1 Rounding radius*
0 $2 $3 $4 $5 $6 $7 $8 $9 X,Y pos of 4 corners*
0 Add a 4 corners polygon primitive as box body*
4,1,4,$2,$3,$4,$5,$6,$7,$8,$9,$2,$3,0*
0 Add four circle primitives for the rounded corners*
1,1,$1+$1,$2,$3*
1,1,$1+$1,$4,$5*
1,1,$1+$1,$6,$7*
1,1,$1+$1,$8,$9*
0 Add four rect primitives between the rounded corners*
20,1,$1+$1,$2,$3,$4,$5,0*
20,1,$1+$1,$4,$5,$6,$7,0*
20,1,$1+$1,$6,$7,$8,$9,0*
20,1,$1+$1,$8,$9,$2,$3,0*%
G04 Aperture macros list end*
%TA.AperFunction,ComponentPad*%
%ADD10R,1.700000X1.700000*%
%TD*%
%TA.AperFunction,ComponentPad*%
%ADD11O,1.700000X1.700000*%
%TD*%
%TA.AperFunction,ComponentPad*%
%ADD12C,0.499999*%
%TD*%
%TA.AperFunction,ComponentPad*%
%ADD13C,1.600000*%
%TD*%
%TA.AperFunction,ComponentPad*%
%ADD14O,1.600000X1.600000*%
%TD*%
%TA.AperFunction,ComponentPad*%
%ADD15RoundRect,0.250000X-0.625000X0.350000X-0.625000X-0.350000X0.625000X-0.350000X0.625000X0.350000X0*%
%TD*%
%TA.AperFunction,ComponentPad*%
%ADD16O,1.750000X1.200000*%
%TD*%
%TA.AperFunction,ComponentPad*%
%ADD17C,3.000000*%
%TD*%
%TA.AperFunction,ComponentPad*%
%ADD18O,3.000000X3.000000*%
%TD*%
%TA.AperFunction,ComponentPad*%
%ADD19C,3.600000*%
%TD*%
%TA.AperFunction,ConnectorPad*%
%ADD20C,5.500000*%
%TD*%
%TA.AperFunction,ComponentPad*%
%ADD21R,1.308000X1.308000*%
%TD*%
%TA.AperFunction,ComponentPad*%
%ADD22C,1.308000*%
%TD*%
%TA.AperFunction,ComponentPad*%
%ADD23O,1.230000X2.460000*%
%TD*%
%TA.AperFunction,ComponentPad*%
%ADD24O,0.900000X2.000000*%
%TD*%
%TA.AperFunction,ComponentPad*%
%ADD25O,0.900000X1.700000*%
%TD*%
%TA.AperFunction,ViaPad*%
%ADD26C,0.600000*%
%TD*%
%TA.AperFunction,Conductor*%
%ADD27C,0.500000*%
%TD*%
%TA.AperFunction,Conductor*%
%ADD28C,0.200000*%
%TD*%
%TA.AperFunction,Conductor*%
%ADD29C,0.300000*%
%TD*%
G04 APERTURE END LIST*
D10*
%TO.P,J2,1,Pin_1*%
%TO.N,Motor2_A_OUT*%
X152400000Y-137160000D03*
D11*
%TO.P,J2,2,Pin_2*%
%TO.N,Motor2_B_OUT*%
X152400000Y-139700000D03*
%TO.P,J2,3,Pin_3*%
%TO.N,MOTOR2_CTRL1*%
X149860000Y-137160000D03*
%TO.P,J2,4,Pin_4*%
%TO.N,Motor4_A_OUT*%
X149860000Y-139700000D03*
%TO.P,J2,5,Pin_5*%
%TO.N,MOTOR2_CTRL2*%
X147320000Y-137160000D03*
%TO.P,J2,6,Pin_6*%
%TO.N,Motor4_B_OUT*%
X147320000Y-139700000D03*
%TO.P,J2,7,Pin_7*%
%TO.N,MOTOR4_CTRL1*%
X144780000Y-137160000D03*
%TO.P,J2,8,Pin_8*%
%TO.N,CTRL_EXT_LOAD2*%
X144780000Y-139700000D03*
%TO.P,J2,9,Pin_9*%
%TO.N,MOTOR4_CTRL2*%
X142240000Y-137160000D03*
%TO.P,J2,10,Pin_10*%
%TO.N,USART2_RX*%
X142240000Y-139700000D03*
%TO.P,J2,11,Pin_11*%
%TO.N,USART2_TX*%
X139700000Y-137160000D03*
%TO.P,J2,12,Pin_12*%
%TO.N,EXT_LOAD2_OUT*%
X139700000Y-139700000D03*
%TO.P,J2,13,Pin_13*%
%TO.N,BATT*%
X137160000Y-137160000D03*
%TO.P,J2,14,Pin_14*%
%TO.N,FAST_CHARGE_CTRL*%
X137160000Y-139700000D03*
%TO.P,J2,15,Pin_15*%
%TO.N,I2C1_SCL*%
X134620000Y-137160000D03*
%TO.P,J2,16,Pin_16*%
%TO.N,RESV*%
X134620000Y-139700000D03*
%TO.P,J2,17,Pin_17*%
%TO.N,+3V3*%
X132080000Y-137160000D03*
%TO.P,J2,18,Pin_18*%
%TO.N,I2C1_SDA*%
X132080000Y-139700000D03*
%TO.P,J2,19,Pin_19*%
%TO.N,+5V*%
X129540000Y-137160000D03*
%TO.P,J2,20,Pin_20*%
%TO.N,GND*%
X129540000Y-139700000D03*
%TO.P,J2,21,Pin_21*%
%TO.N,HV*%
X127000000Y-137160000D03*
%TO.P,J2,22,Pin_22*%
%TO.N,EXT_LOAD1_OUT*%
X127000000Y-139700000D03*
%TO.P,J2,23,Pin_23*%
%TO.N,MOTOR3_CTRL1*%
X124460000Y-137160000D03*
%TO.P,J2,24,Pin_24*%
%TO.N,GND*%
X124460000Y-139700000D03*
%TO.P,J2,25,Pin_25*%
%TO.N,MOTOR3_CTRL2*%
X121920000Y-137160000D03*
%TO.P,J2,26,Pin_26*%
%TO.N,CTRL_EXT_LOAD1*%
X121920000Y-139700000D03*
%TO.P,J2,27,Pin_27*%
%TO.N,MOTOR1_CTRL1*%
X119380000Y-137160000D03*
%TO.P,J2,28,Pin_28*%
%TO.N,MOTOR3_A_OUT*%
X119380000Y-139700000D03*
%TO.P,J2,29,Pin_29*%
%TO.N,MOTOR1_CTRL2*%
X116840000Y-137160000D03*
%TO.P,J2,30,Pin_30*%
%TO.N,MOTOR3_B_OUT*%
X116840000Y-139700000D03*
%TO.P,J2,31,Pin_31*%
%TO.N,MOTOR1_A_OUT*%
X114300000Y-137160000D03*
%TO.P,J2,32,Pin_32*%
%TO.N,MOTOR1_B_OUT*%
X114300000Y-139700000D03*
%TD*%
D12*
%TO.P,U5,V*%
%TO.N,N/C*%
X113725998Y-122459999D03*
X113725998Y-123210000D03*
X113725998Y-123960001D03*
%TD*%
D13*
%TO.P,L1,1,1*%
%TO.N,STEP*%
X138176000Y-104648000D03*
D14*
%TO.P,L1,2,2*%
%TO.N,Net-(D3-A)*%
X148336000Y-104648000D03*
%TD*%
D15*
%TO.P,J3,1,Pin_1*%
%TO.N,BATT*%
X109220000Y-105950000D03*
D16*
%TO.P,J3,2,Pin_2*%
%TO.N,GND*%
X109220000Y-107950000D03*
%TD*%
D12*
%TO.P,U6,V*%
%TO.N,N/C*%
X156398004Y-123436001D03*
X156398004Y-122686000D03*
X156398004Y-121935999D03*
%TD*%
D17*
%TO.P,R15,1,1*%
%TO.N,+3V7*%
X142748000Y-88646000D03*
D18*
%TO.P,R15,2,2*%
%TO.N,Net-(R15-Pad2)*%
X148298000Y-88646000D03*
%TO.P,R15,3,3*%
%TO.N,Net-(R15-Pad3)*%
X162598000Y-88646000D03*
%TO.P,R15,4,4*%
%TO.N,Net-(JP3-A)*%
X168148000Y-88646000D03*
%TD*%
D19*
%TO.P,H2,1*%
%TO.N,N/C*%
X133350000Y-102235000D03*
D20*
X133350000Y-102235000D03*
%TD*%
D21*
%TO.P,S1,1*%
%TO.N,STEP*%
X133668000Y-118872000D03*
D22*
%TO.P,S1,2*%
%TO.N,Power_ON*%
X135668000Y-118872000D03*
%TO.P,S1,3*%
%TO.N,unconnected-(S1-Pad3)*%
X137668000Y-118872000D03*
D23*
%TO.P,S1,S1,SHIELD*%
%TO.N,GND*%
X131468000Y-118872000D03*
%TO.P,S1,S2,SHIELD*%
X139868000Y-118872000D03*
%TD*%
D24*
%TO.P,J4,S1,SHIELD*%
%TO.N,Net-(C3-Pad1)*%
X105259000Y-91422000D03*
%TO.P,J4,S2,SHIELD*%
X96609000Y-91422000D03*
D25*
%TO.P,J4,S3,SHIELD*%
X105259000Y-87252000D03*
%TO.P,J4,S4,SHIELD*%
X96609000Y-87252000D03*
%TD*%
D13*
%TO.P,L2,1,1*%
%TO.N,Net-(U3-SW)*%
X161036000Y-99568000D03*
D14*
%TO.P,L2,2,2*%
%TO.N,Net-(JP5-A)*%
X171196000Y-99568000D03*
%TD*%
D26*
%TO.N,USB-C*%
X100442000Y-95173591D03*
X102834000Y-94346000D03*
%TO.N,GND*%
X138938000Y-114300000D03*
X157988000Y-104140000D03*
X116332000Y-90932000D03*
X163068000Y-100076000D03*
X151384000Y-132080000D03*
X124505000Y-132334000D03*
X145480000Y-134366000D03*
X155956000Y-119888000D03*
X144130000Y-134366000D03*
X144272000Y-112776000D03*
X156972000Y-118872000D03*
X119761000Y-134874000D03*
X125476000Y-113792000D03*
X151638000Y-130048000D03*
X130556000Y-114808000D03*
X119888000Y-98044000D03*
X156166735Y-120947265D03*
X121628370Y-93255630D03*
%TO.N,+5V*%
X139700000Y-126634000D03*
X120269000Y-120015000D03*
X136144000Y-122428000D03*
X122174000Y-116332000D03*
X159004000Y-113284000D03*
X122293380Y-125117620D03*
%TO.N,BATT*%
X127874000Y-122428000D03*
X122555000Y-101346000D03*
%TO.N,MOTOR1_A_OUT*%
X109728000Y-136652000D03*
X112268000Y-136652000D03*
%TO.N,Motor2_A_OUT*%
X160528000Y-128016000D03*
%TO.N,Motor4_B_OUT*%
X150622000Y-127254000D03*
%TO.N,MOTOR1_CTRL2*%
X128524000Y-136236000D03*
%TO.N,MOTOR4_CTRL1*%
X151384000Y-122428000D03*
%TO.N,MOTOR2_CTRL1*%
X151469087Y-124181392D03*
%TO.N,MOTOR2_CTRL2*%
X151443618Y-123287621D03*
%TO.N,FAST_CHARGE_CTRL*%
X127224000Y-119380000D03*
%TO.N,MOTOR1_CTRL1*%
X129540000Y-135636000D03*
%TO.N,I2C1_SDA*%
X133931000Y-134112000D03*
%TO.N,MOTOR4_CTRL2*%
X151384000Y-121412000D03*
%TD*%
D27*
%TO.N,USB-C*%
X102834000Y-94346000D02*
X102758000Y-94346000D01*
X101930409Y-95173591D02*
X100442000Y-95173591D01*
X102758000Y-94346000D02*
X101930409Y-95173591D01*
D28*
%TO.N,GND*%
X155956000Y-119888000D02*
X156972000Y-118872000D01*
D27*
X123952000Y-133096000D02*
X123952000Y-132887000D01*
D28*
X116332000Y-89408000D02*
X118364000Y-87376000D01*
X116332000Y-90932000D02*
X116332000Y-89408000D01*
D29*
X145480000Y-134366000D02*
X144130000Y-134366000D01*
D27*
X123952000Y-132887000D02*
X124505000Y-132334000D01*
D29*
X142240000Y-114300000D02*
X143764000Y-112776000D01*
D28*
X119888000Y-98044000D02*
X116840000Y-101092000D01*
D29*
X151638000Y-130048000D02*
X151638000Y-131826000D01*
D27*
X122174000Y-134874000D02*
X123952000Y-133096000D01*
D29*
X130556000Y-114808000D02*
X129540000Y-113792000D01*
D27*
X120142000Y-134874000D02*
X119761000Y-134874000D01*
X122174000Y-134874000D02*
X120142000Y-134874000D01*
D29*
X151638000Y-131826000D02*
X151384000Y-132080000D01*
X159004000Y-104140000D02*
X163068000Y-100076000D01*
X129540000Y-113792000D02*
X125476000Y-113792000D01*
X138938000Y-114300000D02*
X142240000Y-114300000D01*
X157988000Y-104140000D02*
X159004000Y-104140000D01*
D28*
X116840000Y-101092000D02*
X115316000Y-101092000D01*
D29*
X143764000Y-112776000D02*
X144272000Y-112776000D01*
D27*
%TO.N,+5V*%
X129540000Y-137160000D02*
X130791000Y-138411000D01*
X118364000Y-124968000D02*
X118513620Y-125117620D01*
X139700000Y-126634000D02*
X136794000Y-126634000D01*
X136144000Y-122428000D02*
X134620000Y-122428000D01*
X131064000Y-141001000D02*
X152938892Y-141001000D01*
X130791000Y-138411000D02*
X130791000Y-140728000D01*
X126492000Y-116332000D02*
X122174000Y-116332000D01*
X120269000Y-120015000D02*
X118364000Y-121920000D01*
X130841000Y-141001000D02*
X131064000Y-141001000D01*
X130791000Y-140728000D02*
X131064000Y-141001000D01*
X136794000Y-126634000D02*
X133604000Y-123444000D01*
X161637000Y-132302892D02*
X161637000Y-115917000D01*
X118513620Y-125117620D02*
X122293380Y-125117620D01*
D29*
X130929000Y-140866000D02*
X131064000Y-141001000D01*
D27*
X133604000Y-123444000D02*
X126492000Y-116332000D01*
X118364000Y-121920000D02*
X118364000Y-124968000D01*
X134620000Y-122428000D02*
X133604000Y-123444000D01*
X152938892Y-141001000D02*
X161637000Y-132302892D01*
X161637000Y-115917000D02*
X159004000Y-113284000D01*
D29*
%TO.N,BATT*%
X137160000Y-137160000D02*
X135821000Y-135821000D01*
X122555000Y-101346000D02*
X117951000Y-105950000D01*
X135821000Y-135821000D02*
X135821000Y-130375000D01*
X127874000Y-122428000D02*
X135821000Y-130375000D01*
X117951000Y-105950000D02*
X109220000Y-105950000D01*
%TO.N,MOTOR1_A_OUT*%
X109728000Y-136652000D02*
X112268000Y-136652000D01*
D28*
%TO.N,Motor2_A_OUT*%
X152400000Y-137160000D02*
X154940000Y-137160000D01*
D29*
X161036000Y-128524000D02*
X161036000Y-131064000D01*
X160528000Y-128016000D02*
X161036000Y-128524000D01*
D28*
X154940000Y-137160000D02*
X161036000Y-131064000D01*
%TO.N,Motor4_B_OUT*%
X150453000Y-138599000D02*
X150961000Y-138091000D01*
D29*
X150622000Y-129361260D02*
X147357630Y-132625630D01*
D28*
X147320000Y-139700000D02*
X148421000Y-138599000D01*
X150961000Y-138091000D02*
X150961000Y-136229000D01*
D29*
X150622000Y-127254000D02*
X150622000Y-129361260D01*
D28*
X148421000Y-138599000D02*
X150453000Y-138599000D01*
X150961000Y-136229000D02*
X147357630Y-132625630D01*
D29*
%TO.N,MOTOR1_CTRL2*%
X127476760Y-138311000D02*
X128389000Y-137398760D01*
X128389000Y-137398760D02*
X128389000Y-136371000D01*
X116840000Y-137160000D02*
X117991000Y-138311000D01*
X128389000Y-136371000D02*
X128524000Y-136236000D01*
X117991000Y-138311000D02*
X127476760Y-138311000D01*
%TO.N,MOTOR4_CTRL1*%
X144780000Y-137160000D02*
X140970000Y-133350000D01*
X151384000Y-122428000D02*
X140970000Y-132842000D01*
X140970000Y-133350000D02*
X140970000Y-132842000D01*
D28*
%TO.N,MOTOR2_CTRL1*%
X148844000Y-130430740D02*
X148844000Y-126806479D01*
X146819000Y-132455739D02*
X148844000Y-130430740D01*
X146819000Y-134119000D02*
X146819000Y-132455739D01*
X149860000Y-137160000D02*
X146819000Y-134119000D01*
X148844000Y-126806479D02*
X151469087Y-124181392D01*
%TO.N,MOTOR2_CTRL2*%
X147320000Y-137160000D02*
X147320000Y-135169239D01*
X147320000Y-135169239D02*
X143441000Y-131290239D01*
D29*
X151443618Y-123287621D02*
X143441000Y-131290239D01*
%TO.N,FAST_CHARGE_CTRL*%
X127224000Y-119380000D02*
X137160000Y-129316000D01*
X138312190Y-134756190D02*
X137160000Y-133604000D01*
X138312190Y-138547810D02*
X138312190Y-134756190D01*
X137160000Y-139700000D02*
X138312190Y-138547810D01*
X137160000Y-133604000D02*
X137160000Y-129316000D01*
%TO.N,MOTOR1_CTRL1*%
X119380000Y-137160000D02*
X120904000Y-135636000D01*
X120904000Y-135636000D02*
X129540000Y-135636000D01*
%TO.N,I2C1_SDA*%
X133469000Y-138311000D02*
X132080000Y-139700000D01*
X133931000Y-134112000D02*
X133931000Y-135309000D01*
X133931000Y-135309000D02*
X133469000Y-135771000D01*
X133469000Y-135771000D02*
X133469000Y-138311000D01*
%TO.N,Net-(C3-Pad1)*%
X105259000Y-87252000D02*
X96609000Y-87252000D01*
X105259000Y-91422000D02*
X105259000Y-87252000D01*
X96609000Y-87252000D02*
X96609000Y-91422000D01*
%TO.N,MOTOR4_CTRL2*%
X142240000Y-137160000D02*
X139377000Y-134297000D01*
X151384000Y-121412000D02*
X138499000Y-134297000D01*
X139377000Y-134297000D02*
X138499000Y-134297000D01*
%TD*%
%TA.AperFunction,Conductor*%
%TO.N,GND*%
G36*
X172155039Y-84347685D02*
G01*
X172200794Y-84400489D01*
X172212000Y-84452000D01*
X172212000Y-98455296D01*
X172192315Y-98522335D01*
X172139511Y-98568090D01*
X172070353Y-98578034D01*
X172015115Y-98555615D01*
X171877609Y-98455712D01*
X171695223Y-98362781D01*
X171500534Y-98299522D01*
X171325995Y-98271878D01*
X171298352Y-98267500D01*
X171093648Y-98267500D01*
X171069329Y-98271351D01*
X170891465Y-98299522D01*
X170696776Y-98362781D01*
X170514386Y-98455715D01*
X170348786Y-98576028D01*
X170204028Y-98720786D01*
X170083715Y-98886386D01*
X169990781Y-99068776D01*
X169927522Y-99263465D01*
X169895500Y-99465648D01*
X169895500Y-99670351D01*
X169927522Y-99872534D01*
X169990781Y-100067223D01*
X170083715Y-100249613D01*
X170204028Y-100415213D01*
X170348786Y-100559971D01*
X170503749Y-100672556D01*
X170514390Y-100680287D01*
X170630607Y-100739503D01*
X170696776Y-100773218D01*
X170696778Y-100773218D01*
X170696781Y-100773220D01*
X170801137Y-100807127D01*
X170891465Y-100836477D01*
X170936141Y-100843553D01*
X171093648Y-100868500D01*
X171093649Y-100868500D01*
X171298351Y-100868500D01*
X171298352Y-100868500D01*
X171500534Y-100836477D01*
X171695219Y-100773220D01*
X171877610Y-100680287D01*
X171968898Y-100613962D01*
X172015115Y-100580385D01*
X172080921Y-100556905D01*
X172148975Y-100572731D01*
X172197670Y-100622837D01*
X172212000Y-100680703D01*
X172212000Y-124208824D01*
X172192315Y-124275863D01*
X172175681Y-124296505D01*
X154776505Y-141695681D01*
X154715182Y-141729166D01*
X154688824Y-141732000D01*
X153568622Y-141732000D01*
X153501583Y-141712315D01*
X153455828Y-141659511D01*
X153445884Y-141590353D01*
X153474909Y-141526797D01*
X153480941Y-141520319D01*
X162219948Y-132781311D01*
X162219947Y-132781311D01*
X162219951Y-132781308D01*
X162302084Y-132658387D01*
X162358658Y-132521805D01*
X162387500Y-132376810D01*
X162387500Y-132228975D01*
X162387500Y-115843082D01*
X162387500Y-115843079D01*
X162358659Y-115698092D01*
X162358658Y-115698091D01*
X162358658Y-115698087D01*
X162327391Y-115622602D01*
X162302087Y-115561511D01*
X162302080Y-115561498D01*
X162219952Y-115438585D01*
X162219951Y-115438584D01*
X162115416Y-115334049D01*
X159750071Y-112968703D01*
X159723191Y-112928475D01*
X159713394Y-112904821D01*
X159713389Y-112904814D01*
X159625789Y-112773710D01*
X159514292Y-112662213D01*
X159514288Y-112662210D01*
X159383185Y-112574609D01*
X159383172Y-112574602D01*
X159237501Y-112514264D01*
X159237489Y-112514261D01*
X159082845Y-112483500D01*
X159082842Y-112483500D01*
X158925158Y-112483500D01*
X158925155Y-112483500D01*
X158770510Y-112514261D01*
X158770498Y-112514264D01*
X158624827Y-112574602D01*
X158624814Y-112574609D01*
X158493711Y-112662210D01*
X158493707Y-112662213D01*
X158382213Y-112773707D01*
X158382210Y-112773711D01*
X158294609Y-112904814D01*
X158294602Y-112904827D01*
X158234264Y-113050498D01*
X158234261Y-113050510D01*
X158203500Y-113205153D01*
X158203500Y-113362846D01*
X158234261Y-113517489D01*
X158234264Y-113517501D01*
X158294602Y-113663172D01*
X158294609Y-113663185D01*
X158382210Y-113794288D01*
X158382213Y-113794292D01*
X158493710Y-113905789D01*
X158624815Y-113993390D01*
X158624821Y-113993394D01*
X158648475Y-114003191D01*
X158688703Y-114030071D01*
X160850181Y-116191548D01*
X160883666Y-116252871D01*
X160886500Y-116279229D01*
X160886500Y-127120033D01*
X160866815Y-127187072D01*
X160814011Y-127232827D01*
X160744853Y-127242771D01*
X160738309Y-127241650D01*
X160606845Y-127215500D01*
X160606842Y-127215500D01*
X160449158Y-127215500D01*
X160449155Y-127215500D01*
X160294510Y-127246261D01*
X160294498Y-127246264D01*
X160148827Y-127306602D01*
X160148814Y-127306609D01*
X160017711Y-127394210D01*
X160017707Y-127394213D01*
X159906213Y-127505707D01*
X159906210Y-127505711D01*
X159818609Y-127636814D01*
X159818602Y-127636827D01*
X159758264Y-127782498D01*
X159758261Y-127782510D01*
X159727500Y-127937153D01*
X159727500Y-128094846D01*
X159758261Y-128249489D01*
X159758264Y-128249501D01*
X159818602Y-128395172D01*
X159818609Y-128395185D01*
X159906210Y-128526288D01*
X159906213Y-128526292D01*
X160017707Y-128637786D01*
X160017711Y-128637789D01*
X160148814Y-128725390D01*
X160148827Y-128725397D01*
X160236230Y-128761599D01*
X160294503Y-128785737D01*
X160294510Y-128785738D01*
X160297498Y-128786645D01*
X160298876Y-128787548D01*
X160300131Y-128788068D01*
X160300032Y-128788306D01*
X160355935Y-128824944D01*
X160384391Y-128888756D01*
X160385500Y-128905305D01*
X160385500Y-130813903D01*
X160365815Y-130880942D01*
X160349181Y-130901584D01*
X154727584Y-136523181D01*
X154666261Y-136556666D01*
X154639903Y-136559500D01*
X153874499Y-136559500D01*
X153807460Y-136539815D01*
X153761705Y-136487011D01*
X153750499Y-136435500D01*
X153750499Y-136262129D01*
X153750498Y-136262123D01*
X153744091Y-136202516D01*
X153693797Y-136067671D01*
X153693793Y-136067664D01*
X153607547Y-135952455D01*
X153607544Y-135952452D01*
X153492335Y-135866206D01*
X153492328Y-135866202D01*
X153357482Y-135815908D01*
X153357483Y-135815908D01*
X153297883Y-135809501D01*
X153297881Y-135809500D01*
X153297873Y-135809500D01*
X153297864Y-135809500D01*
X151502129Y-135809500D01*
X151502123Y-135809501D01*
X151460533Y-135813972D01*
X151391773Y-135801565D01*
X151359599Y-135778363D01*
X148329901Y-132748666D01*
X148296416Y-132687343D01*
X148301400Y-132617651D01*
X148329901Y-132573304D01*
X151127271Y-129775935D01*
X151127271Y-129775934D01*
X151127276Y-129775930D01*
X151198465Y-129669387D01*
X151247501Y-129551004D01*
X151256504Y-129505744D01*
X151272500Y-129425329D01*
X151272500Y-127758935D01*
X151292185Y-127691896D01*
X151293366Y-127690090D01*
X151331394Y-127633179D01*
X151331578Y-127632736D01*
X151350986Y-127585880D01*
X151391737Y-127487497D01*
X151422500Y-127332842D01*
X151422500Y-127175158D01*
X151422500Y-127175155D01*
X151422499Y-127175153D01*
X151416360Y-127144289D01*
X151391737Y-127020503D01*
X151388703Y-127013179D01*
X151331397Y-126874827D01*
X151331390Y-126874814D01*
X151243789Y-126743711D01*
X151243786Y-126743707D01*
X151132292Y-126632213D01*
X151132288Y-126632210D01*
X151001185Y-126544609D01*
X151001172Y-126544602D01*
X150855501Y-126484264D01*
X150855489Y-126484261D01*
X150700845Y-126453500D01*
X150700842Y-126453500D01*
X150543158Y-126453500D01*
X150543155Y-126453500D01*
X150388510Y-126484261D01*
X150388498Y-126484264D01*
X150327600Y-126509489D01*
X150258130Y-126516958D01*
X150195651Y-126485682D01*
X150160000Y-126425593D01*
X150162494Y-126355768D01*
X150192467Y-126307247D01*
X150376007Y-126123707D01*
X151483751Y-125015963D01*
X151545072Y-124982480D01*
X151547239Y-124982029D01*
X151547928Y-124981892D01*
X151547929Y-124981892D01*
X151702584Y-124951129D01*
X151848266Y-124890786D01*
X151979376Y-124803181D01*
X152090876Y-124691681D01*
X152178481Y-124560571D01*
X152238824Y-124414889D01*
X152269587Y-124260234D01*
X152269587Y-124102550D01*
X152269587Y-124102547D01*
X152269586Y-124102545D01*
X152238825Y-123947902D01*
X152238824Y-123947895D01*
X152213220Y-123886080D01*
X152178482Y-123802214D01*
X152164957Y-123781973D01*
X152144078Y-123715296D01*
X152153497Y-123665628D01*
X152157934Y-123654917D01*
X152213355Y-123521118D01*
X152244118Y-123366463D01*
X152244118Y-123208779D01*
X152244118Y-123208776D01*
X152244117Y-123208774D01*
X152229919Y-123137397D01*
X152213355Y-123054124D01*
X152187245Y-122991088D01*
X152153015Y-122908448D01*
X152153007Y-122908433D01*
X152127139Y-122869720D01*
X152106260Y-122803043D01*
X152115678Y-122753380D01*
X152153737Y-122661497D01*
X152184500Y-122506842D01*
X152184500Y-122349158D01*
X152184500Y-122349155D01*
X152184499Y-122349153D01*
X152179708Y-122325069D01*
X152153737Y-122194503D01*
X152137335Y-122154905D01*
X152093397Y-122048827D01*
X152093393Y-122048820D01*
X152067400Y-122009919D01*
X155647504Y-122009919D01*
X155676345Y-122154905D01*
X155676347Y-122154911D01*
X155721345Y-122263546D01*
X155728814Y-122333016D01*
X155721345Y-122358451D01*
X155676348Y-122467083D01*
X155676345Y-122467093D01*
X155647505Y-122612079D01*
X155647505Y-122612082D01*
X155647505Y-122759918D01*
X155647505Y-122759920D01*
X155647504Y-122759920D01*
X155676345Y-122904906D01*
X155676347Y-122904912D01*
X155721345Y-123013547D01*
X155728814Y-123083017D01*
X155721345Y-123108452D01*
X155676348Y-123217084D01*
X155676345Y-123217094D01*
X155647505Y-123362080D01*
X155647505Y-123362083D01*
X155647505Y-123509919D01*
X155647505Y-123509921D01*
X155647504Y-123509921D01*
X155676345Y-123654907D01*
X155676348Y-123654917D01*
X155732917Y-123791488D01*
X155732924Y-123791501D01*
X155815053Y-123914415D01*
X155815056Y-123914419D01*
X155919585Y-124018948D01*
X155919589Y-124018951D01*
X156042503Y-124101080D01*
X156042516Y-124101087D01*
X156179087Y-124157656D01*
X156179092Y-124157658D01*
X156179096Y-124157658D01*
X156179097Y-124157659D01*
X156324083Y-124186500D01*
X156324086Y-124186500D01*
X156471924Y-124186500D01*
X156569465Y-124167096D01*
X156616916Y-124157658D01*
X156753498Y-124101084D01*
X156876419Y-124018951D01*
X156980954Y-123914416D01*
X157063087Y-123791495D01*
X157119661Y-123654913D01*
X157137448Y-123565494D01*
X157148503Y-123509921D01*
X157148503Y-123362080D01*
X157119662Y-123217094D01*
X157119661Y-123217093D01*
X157119661Y-123217089D01*
X157074661Y-123108451D01*
X157067193Y-123038984D01*
X157074659Y-123013555D01*
X157119661Y-122904912D01*
X157137905Y-122813198D01*
X157148503Y-122759920D01*
X157148503Y-122612079D01*
X157119662Y-122467093D01*
X157119661Y-122467092D01*
X157119661Y-122467088D01*
X157074661Y-122358450D01*
X157067193Y-122288983D01*
X157074659Y-122263554D01*
X157119661Y-122154911D01*
X157129099Y-122107460D01*
X157148503Y-122009919D01*
X157148503Y-121862078D01*
X157119662Y-121717092D01*
X157119661Y-121717091D01*
X157119661Y-121717087D01*
X157115210Y-121706342D01*
X157063090Y-121580511D01*
X157063083Y-121580498D01*
X156980954Y-121457584D01*
X156980951Y-121457580D01*
X156876422Y-121353051D01*
X156876418Y-121353048D01*
X156753504Y-121270919D01*
X156753491Y-121270912D01*
X156616920Y-121214343D01*
X156616910Y-121214340D01*
X156471924Y-121185500D01*
X156471922Y-121185500D01*
X156324086Y-121185500D01*
X156324084Y-121185500D01*
X156179097Y-121214340D01*
X156179087Y-121214343D01*
X156042516Y-121270912D01*
X156042503Y-121270919D01*
X155919589Y-121353048D01*
X155919585Y-121353051D01*
X155815056Y-121457580D01*
X155815053Y-121457584D01*
X155732924Y-121580498D01*
X155732917Y-121580511D01*
X155676348Y-121717082D01*
X155676345Y-121717092D01*
X155647505Y-121862078D01*
X155647505Y-121862081D01*
X155647505Y-122009917D01*
X155647505Y-122009919D01*
X155647504Y-122009919D01*
X152067400Y-122009919D01*
X152053350Y-121988892D01*
X152047375Y-121969812D01*
X152036870Y-121952804D01*
X152037149Y-121937152D01*
X152032472Y-121922214D01*
X152037760Y-121902934D01*
X152038118Y-121882946D01*
X152050133Y-121857833D01*
X152050956Y-121854834D01*
X152053351Y-121851108D01*
X152093387Y-121791190D01*
X152093388Y-121791186D01*
X152093394Y-121791179D01*
X152153737Y-121645497D01*
X152184500Y-121490842D01*
X152184500Y-121333158D01*
X152184500Y-121333155D01*
X152184499Y-121333153D01*
X152160865Y-121214340D01*
X152153737Y-121178503D01*
X152153735Y-121178498D01*
X152093397Y-121032827D01*
X152093390Y-121032814D01*
X152005789Y-120901711D01*
X152005786Y-120901707D01*
X151894292Y-120790213D01*
X151894288Y-120790210D01*
X151763185Y-120702609D01*
X151763172Y-120702602D01*
X151617501Y-120642264D01*
X151617489Y-120642261D01*
X151462845Y-120611500D01*
X151462842Y-120611500D01*
X151305158Y-120611500D01*
X151305155Y-120611500D01*
X151150510Y-120642261D01*
X151150498Y-120642264D01*
X151004827Y-120702602D01*
X151004814Y-120702609D01*
X150873711Y-120790210D01*
X150873707Y-120790213D01*
X150762213Y-120901707D01*
X150762210Y-120901711D01*
X150674609Y-121032814D01*
X150674602Y-121032827D01*
X150614264Y-121178498D01*
X150614261Y-121178508D01*
X150600920Y-121245579D01*
X150568535Y-121307490D01*
X150566984Y-121309068D01*
X138263680Y-133612372D01*
X138202357Y-133645857D01*
X138132665Y-133640873D01*
X138088318Y-133612372D01*
X137846819Y-133370873D01*
X137813334Y-133309550D01*
X137810500Y-133283192D01*
X137810500Y-129251928D01*
X137785502Y-129126261D01*
X137785501Y-129126260D01*
X137785501Y-129126256D01*
X137736465Y-129007873D01*
X137695518Y-128946591D01*
X137695516Y-128946588D01*
X137665281Y-128901336D01*
X137665277Y-128901331D01*
X136197190Y-127433244D01*
X136163705Y-127371921D01*
X136168689Y-127302229D01*
X136210561Y-127246296D01*
X136276025Y-127221879D01*
X136344298Y-127236731D01*
X136353762Y-127242461D01*
X136438498Y-127299080D01*
X136438511Y-127299087D01*
X136545469Y-127343390D01*
X136575087Y-127355658D01*
X136575091Y-127355658D01*
X136575092Y-127355659D01*
X136720079Y-127384500D01*
X136720082Y-127384500D01*
X136867917Y-127384500D01*
X139395396Y-127384500D01*
X139442844Y-127393937D01*
X139466503Y-127403737D01*
X139466508Y-127403738D01*
X139466511Y-127403739D01*
X139621153Y-127434499D01*
X139621156Y-127434500D01*
X139621158Y-127434500D01*
X139778844Y-127434500D01*
X139778845Y-127434499D01*
X139933497Y-127403737D01*
X140079179Y-127343394D01*
X140210289Y-127255789D01*
X140321789Y-127144289D01*
X140409394Y-127013179D01*
X140469737Y-126867497D01*
X140500500Y-126712842D01*
X140500500Y-126555158D01*
X140500500Y-126555155D01*
X140500499Y-126555153D01*
X140486398Y-126484263D01*
X140469737Y-126400503D01*
X140469735Y-126400498D01*
X140409397Y-126254827D01*
X140409390Y-126254814D01*
X140321789Y-126123711D01*
X140321786Y-126123707D01*
X140210292Y-126012213D01*
X140210288Y-126012210D01*
X140079185Y-125924609D01*
X140079172Y-125924602D01*
X139933501Y-125864264D01*
X139933489Y-125864261D01*
X139778845Y-125833500D01*
X139778842Y-125833500D01*
X139621158Y-125833500D01*
X139621155Y-125833500D01*
X139466511Y-125864260D01*
X139466506Y-125864262D01*
X139466504Y-125864262D01*
X139466503Y-125864263D01*
X139442844Y-125874062D01*
X139395396Y-125883500D01*
X137156229Y-125883500D01*
X137089190Y-125863815D01*
X137068548Y-125847181D01*
X134753048Y-123531681D01*
X134748709Y-123523735D01*
X134741462Y-123518310D01*
X134732227Y-123493550D01*
X134719563Y-123470358D01*
X134720208Y-123461328D01*
X134717045Y-123452846D01*
X134722661Y-123427025D01*
X134724547Y-123400666D01*
X134730365Y-123391611D01*
X134731897Y-123384573D01*
X134753044Y-123356323D01*
X134894550Y-123214816D01*
X134955872Y-123181334D01*
X134982230Y-123178500D01*
X135839396Y-123178500D01*
X135886844Y-123187937D01*
X135910503Y-123197737D01*
X135910508Y-123197738D01*
X135910511Y-123197739D01*
X136065153Y-123228499D01*
X136065156Y-123228500D01*
X136065158Y-123228500D01*
X136222844Y-123228500D01*
X136222845Y-123228499D01*
X136377497Y-123197737D01*
X136523179Y-123137394D01*
X136654289Y-123049789D01*
X136765789Y-122938289D01*
X136853394Y-122807179D01*
X136913737Y-122661497D01*
X136944500Y-122506842D01*
X136944500Y-122349158D01*
X136944500Y-122349155D01*
X136944499Y-122349153D01*
X136939708Y-122325069D01*
X136913737Y-122194503D01*
X136897335Y-122154905D01*
X136853397Y-122048827D01*
X136853390Y-122048814D01*
X136765789Y-121917711D01*
X136765786Y-121917707D01*
X136654292Y-121806213D01*
X136654288Y-121806210D01*
X136523185Y-121718609D01*
X136523172Y-121718602D01*
X136377501Y-121658264D01*
X136377489Y-121658261D01*
X136222845Y-121627500D01*
X136222842Y-121627500D01*
X136065158Y-121627500D01*
X136065155Y-121627500D01*
X135910511Y-121658260D01*
X135910506Y-121658262D01*
X135910504Y-121658262D01*
X135910503Y-121658263D01*
X135886844Y-121668062D01*
X135839396Y-121677500D01*
X134546080Y-121677500D01*
X134401092Y-121706340D01*
X134401082Y-121706343D01*
X134264508Y-121762914D01*
X134222206Y-121791179D01*
X134141581Y-121845049D01*
X133691680Y-122294950D01*
X133630357Y-122328435D01*
X133560665Y-122323451D01*
X133516318Y-122294950D01*
X131914455Y-120693087D01*
X131880970Y-120631764D01*
X131885954Y-120562072D01*
X131927826Y-120506139D01*
X131945842Y-120494921D01*
X132052388Y-120440633D01*
X132194367Y-120337480D01*
X132194372Y-120337476D01*
X132318476Y-120213372D01*
X132318480Y-120213367D01*
X132421633Y-120071388D01*
X132488879Y-119939410D01*
X132536853Y-119888614D01*
X132604674Y-119871818D01*
X132670809Y-119894355D01*
X132673675Y-119896438D01*
X132771664Y-119969793D01*
X132771671Y-119969797D01*
X132906517Y-120020091D01*
X132906516Y-120020091D01*
X132913444Y-120020835D01*
X132966127Y-120026500D01*
X134369872Y-120026499D01*
X134429483Y-120020091D01*
X134564331Y-119969796D01*
X134679546Y-119883546D01*
X134753043Y-119785365D01*
X134808976Y-119743496D01*
X134878668Y-119738512D01*
X134925192Y-119759359D01*
X135062910Y-119859417D01*
X135224826Y-119941917D01*
X135224828Y-119941918D01*
X135310629Y-119969796D01*
X135397654Y-119998072D01*
X135577139Y-120026500D01*
X135577140Y-120026500D01*
X135758860Y-120026500D01*
X135758861Y-120026500D01*
X135938346Y-119998072D01*
X135938349Y-119998071D01*
X135938350Y-119998071D01*
X136111171Y-119941918D01*
X136111171Y-119941917D01*
X136111174Y-119941917D01*
X136273090Y-119859417D01*
X136420106Y-119752603D01*
X136548603Y-119624106D01*
X136567682Y-119597845D01*
X136623012Y-119555180D01*
X136692625Y-119549201D01*
X136754420Y-119581807D01*
X136768318Y-119597846D01*
X136785591Y-119621621D01*
X136787397Y-119624106D01*
X136915894Y-119752603D01*
X137062910Y-119859417D01*
X137224826Y-119941917D01*
X137224828Y-119941918D01*
X137310629Y-119969796D01*
X137397654Y-119998072D01*
X137577139Y-120026500D01*
X137577140Y-120026500D01*
X137758860Y-120026500D01*
X137758861Y-120026500D01*
X137938346Y-119998072D01*
X137938349Y-119998071D01*
X137938350Y-119998071D01*
X138111171Y-119941918D01*
X138111171Y-119941917D01*
X138111174Y-119941917D01*
X138273090Y-119859417D01*
X138420106Y-119752603D01*
X138548603Y-119624106D01*
X138548610Y-119624095D01*
X138551767Y-119620401D01*
X138553196Y-119621621D01*
X138602161Y-119583836D01*
X138671772Y-119577832D01*
X138733579Y-119610416D01*
X138767958Y-119671242D01*
X138769664Y-119679971D01*
X138780455Y-119748099D01*
X138834690Y-119915016D01*
X138914368Y-120071390D01*
X139017519Y-120213367D01*
X139017523Y-120213372D01*
X139141627Y-120337476D01*
X139141632Y-120337480D01*
X139283609Y-120440631D01*
X139439985Y-120520309D01*
X139606902Y-120574544D01*
X139606904Y-120574545D01*
X139618000Y-120576302D01*
X139618000Y-119516975D01*
X139653095Y-119552070D01*
X139732905Y-119598148D01*
X139821922Y-119622000D01*
X139914078Y-119622000D01*
X140003095Y-119598148D01*
X140082905Y-119552070D01*
X140118000Y-119516975D01*
X140118000Y-120576301D01*
X140129095Y-120574545D01*
X140129097Y-120574544D01*
X140296014Y-120520309D01*
X140452390Y-120440631D01*
X140594367Y-120337480D01*
X140594372Y-120337476D01*
X140718476Y-120213372D01*
X140718480Y-120213367D01*
X140821631Y-120071390D01*
X140901309Y-119915016D01*
X140955545Y-119748097D01*
X140983000Y-119574757D01*
X140983000Y-119122000D01*
X140218000Y-119122000D01*
X140218000Y-118622000D01*
X140983000Y-118622000D01*
X140983000Y-118169242D01*
X140955545Y-117995902D01*
X140901309Y-117828983D01*
X140821631Y-117672609D01*
X140718480Y-117530632D01*
X140718476Y-117530627D01*
X140594372Y-117406523D01*
X140594367Y-117406519D01*
X140452390Y-117303368D01*
X140296014Y-117223690D01*
X140129097Y-117169455D01*
X140129093Y-117169454D01*
X140118000Y-117167696D01*
X140118000Y-118227025D01*
X140082905Y-118191930D01*
X140003095Y-118145852D01*
X139914078Y-118122000D01*
X139821922Y-118122000D01*
X139732905Y-118145852D01*
X139653095Y-118191930D01*
X139618000Y-118227025D01*
X139618000Y-117167697D01*
X139617999Y-117167696D01*
X139606906Y-117169454D01*
X139606902Y-117169455D01*
X139439985Y-117223690D01*
X139283609Y-117303368D01*
X139141632Y-117406519D01*
X139141627Y-117406523D01*
X139017523Y-117530627D01*
X139017519Y-117530632D01*
X138914368Y-117672609D01*
X138834690Y-117828983D01*
X138780455Y-117995900D01*
X138769664Y-118064028D01*
X138739734Y-118127162D01*
X138680421Y-118164092D01*
X138610559Y-118163094D01*
X138552327Y-118124483D01*
X138550195Y-118121758D01*
X138548600Y-118119891D01*
X138420108Y-117991399D01*
X138420106Y-117991397D01*
X138273090Y-117884583D01*
X138111174Y-117802083D01*
X138111171Y-117802081D01*
X137938348Y-117745928D01*
X137799319Y-117723908D01*
X137758861Y-117717500D01*
X137577139Y-117717500D01*
X137536681Y-117723908D01*
X137397652Y-117745928D01*
X137397649Y-117745928D01*
X137224828Y-117802081D01*
X137224825Y-117802083D01*
X137062909Y-117884583D01*
X136979030Y-117945525D01*
X136915894Y-117991397D01*
X136915892Y-117991399D01*
X136915891Y-117991399D01*
X136787396Y-118119894D01*
X136768317Y-118146155D01*
X136712986Y-118188820D01*
X136643373Y-118194798D01*
X136581578Y-118162191D01*
X136567683Y-118146155D01*
X136548603Y-118119894D01*
X136420108Y-117991399D01*
X136420106Y-117991397D01*
X136273090Y-117884583D01*
X136111174Y-117802083D01*
X136111171Y-117802081D01*
X135938348Y-117745928D01*
X135799319Y-117723908D01*
X135758861Y-117717500D01*
X135577139Y-117717500D01*
X135536681Y-117723908D01*
X135397652Y-117745928D01*
X135397649Y-117745928D01*
X135224828Y-117802081D01*
X135224825Y-117802083D01*
X135062906Y-117884585D01*
X134925194Y-117984639D01*
X134859388Y-118008119D01*
X134791334Y-117992294D01*
X134753043Y-117958632D01*
X134679547Y-117860455D01*
X134679544Y-117860452D01*
X134564335Y-117774206D01*
X134564328Y-117774202D01*
X134429482Y-117723908D01*
X134429483Y-117723908D01*
X134369883Y-117717501D01*
X134369881Y-117717500D01*
X134369873Y-117717500D01*
X134369864Y-117717500D01*
X132966129Y-117717500D01*
X132966123Y-117717501D01*
X132906516Y-117723908D01*
X132771671Y-117774202D01*
X132771668Y-117774204D01*
X132673675Y-117847562D01*
X132608211Y-117871979D01*
X132539938Y-117857127D01*
X132490532Y-117807722D01*
X132488879Y-117804590D01*
X132421631Y-117672608D01*
X132318480Y-117530632D01*
X132318476Y-117530627D01*
X132194372Y-117406523D01*
X132194367Y-117406519D01*
X132052390Y-117303368D01*
X131896014Y-117223690D01*
X131729097Y-117169455D01*
X131729093Y-117169454D01*
X131718000Y-117167696D01*
X131718000Y-118227025D01*
X131682905Y-118191930D01*
X131603095Y-118145852D01*
X131514078Y-118122000D01*
X131421922Y-118122000D01*
X131332905Y-118145852D01*
X131253095Y-118191930D01*
X131218000Y-118227025D01*
X131218000Y-117167697D01*
X131217999Y-117167696D01*
X131206906Y-117169454D01*
X131206902Y-117169455D01*
X131039985Y-117223690D01*
X130883609Y-117303368D01*
X130741632Y-117406519D01*
X130741627Y-117406523D01*
X130617523Y-117530627D01*
X130617519Y-117530632D01*
X130514368Y-117672609D01*
X130434690Y-117828983D01*
X130380454Y-117995902D01*
X130353000Y-118169242D01*
X130353000Y-118622000D01*
X131118000Y-118622000D01*
X131118000Y-119122000D01*
X130394730Y-119122000D01*
X130327691Y-119102315D01*
X130307049Y-119085681D01*
X129473425Y-118252057D01*
X126970421Y-115749052D01*
X126970414Y-115749046D01*
X126894245Y-115698152D01*
X126894146Y-115698087D01*
X126847495Y-115666916D01*
X126847494Y-115666915D01*
X126847492Y-115666914D01*
X126710917Y-115610343D01*
X126710907Y-115610340D01*
X126565920Y-115581500D01*
X126565918Y-115581500D01*
X122478604Y-115581500D01*
X122431155Y-115572062D01*
X122407497Y-115562263D01*
X122407493Y-115562262D01*
X122407488Y-115562260D01*
X122252845Y-115531500D01*
X122252842Y-115531500D01*
X122095158Y-115531500D01*
X122095155Y-115531500D01*
X121940510Y-115562261D01*
X121940498Y-115562264D01*
X121794827Y-115622602D01*
X121794814Y-115622609D01*
X121663711Y-115710210D01*
X121663707Y-115710213D01*
X121552213Y-115821707D01*
X121552210Y-115821711D01*
X121464609Y-115952814D01*
X121464602Y-115952827D01*
X121404264Y-116098498D01*
X121404261Y-116098510D01*
X121373500Y-116253153D01*
X121373500Y-116410846D01*
X121404261Y-116565489D01*
X121404264Y-116565501D01*
X121464602Y-116711172D01*
X121464609Y-116711185D01*
X121552210Y-116842288D01*
X121552213Y-116842292D01*
X121663707Y-116953786D01*
X121663711Y-116953789D01*
X121794814Y-117041390D01*
X121794827Y-117041397D01*
X121894060Y-117082500D01*
X121940503Y-117101737D01*
X122095153Y-117132499D01*
X122095156Y-117132500D01*
X122095158Y-117132500D01*
X122252844Y-117132500D01*
X122252845Y-117132499D01*
X122329152Y-117117320D01*
X122407488Y-117101739D01*
X122407489Y-117101738D01*
X122407497Y-117101737D01*
X122431155Y-117091937D01*
X122478604Y-117082500D01*
X126129770Y-117082500D01*
X126196809Y-117102185D01*
X126217451Y-117118819D01*
X127482271Y-118383639D01*
X127515756Y-118444962D01*
X127510772Y-118514654D01*
X127468900Y-118570587D01*
X127403436Y-118595004D01*
X127370399Y-118592937D01*
X127302846Y-118579500D01*
X127302842Y-118579500D01*
X127145158Y-118579500D01*
X127145155Y-118579500D01*
X126990510Y-118610261D01*
X126990498Y-118610264D01*
X126844827Y-118670602D01*
X126844814Y-118670609D01*
X126713711Y-118758210D01*
X126713707Y-118758213D01*
X126602213Y-118869707D01*
X126602210Y-118869711D01*
X126514609Y-119000814D01*
X126514602Y-119000827D01*
X126454264Y-119146498D01*
X126454261Y-119146510D01*
X126423500Y-119301153D01*
X126423500Y-119458846D01*
X126454261Y-119613489D01*
X126454264Y-119613501D01*
X126514602Y-119759172D01*
X126514609Y-119759185D01*
X126602210Y-119890288D01*
X126602213Y-119890292D01*
X126713707Y-120001786D01*
X126713711Y-120001789D01*
X126844814Y-120089390D01*
X126844827Y-120089397D01*
X126932230Y-120125599D01*
X126990503Y-120149737D01*
X127057580Y-120163079D01*
X127119490Y-120195463D01*
X127121069Y-120197015D01*
X136473181Y-129549127D01*
X136506666Y-129610450D01*
X136509500Y-129636808D01*
X136509500Y-129844192D01*
X136503261Y-129865437D01*
X136501682Y-129887525D01*
X136493609Y-129898308D01*
X136489815Y-129911231D01*
X136473083Y-129925729D01*
X136459811Y-129943459D01*
X136447188Y-129948166D01*
X136437011Y-129956986D01*
X136415095Y-129960137D01*
X136394347Y-129967876D01*
X136381185Y-129965013D01*
X136367853Y-129966930D01*
X136347711Y-129957731D01*
X136326074Y-129953025D01*
X136308345Y-129939753D01*
X136304297Y-129937905D01*
X136297819Y-129931874D01*
X136277176Y-129911231D01*
X136235669Y-129869724D01*
X128691015Y-122325069D01*
X128657530Y-122263746D01*
X128657093Y-122261652D01*
X128643737Y-122194503D01*
X128619599Y-122136230D01*
X128583397Y-122048827D01*
X128583390Y-122048814D01*
X128505350Y-121932020D01*
X128505349Y-121932019D01*
X128495789Y-121917711D01*
X128384289Y-121806211D01*
X128369980Y-121796650D01*
X128369978Y-121796648D01*
X128253185Y-121718609D01*
X128253172Y-121718602D01*
X128107501Y-121658264D01*
X128107489Y-121658261D01*
X127952845Y-121627500D01*
X127952842Y-121627500D01*
X127795158Y-121627500D01*
X127795155Y-121627500D01*
X127640510Y-121658261D01*
X127640498Y-121658264D01*
X127494827Y-121718602D01*
X127494814Y-121718609D01*
X127363711Y-121806210D01*
X127363707Y-121806213D01*
X127252213Y-121917707D01*
X127252210Y-121917711D01*
X127164609Y-122048814D01*
X127164602Y-122048827D01*
X127104264Y-122194498D01*
X127104261Y-122194510D01*
X127073500Y-122349153D01*
X127073500Y-122506846D01*
X127104261Y-122661489D01*
X127104264Y-122661501D01*
X127164602Y-122807172D01*
X127164609Y-122807185D01*
X127252210Y-122938288D01*
X127252213Y-122938292D01*
X127363707Y-123049786D01*
X127363711Y-123049789D01*
X127494814Y-123137390D01*
X127494827Y-123137397D01*
X127582230Y-123173599D01*
X127640503Y-123197737D01*
X127707580Y-123211079D01*
X127769490Y-123243463D01*
X127771069Y-123245015D01*
X135134181Y-130608126D01*
X135167666Y-130669449D01*
X135170500Y-130695807D01*
X135170500Y-135748197D01*
X135150815Y-135815236D01*
X135098011Y-135860991D01*
X135028853Y-135870935D01*
X135008183Y-135866128D01*
X134936244Y-135842754D01*
X134936240Y-135842753D01*
X134774957Y-135817208D01*
X134726287Y-135809500D01*
X134610913Y-135809500D01*
X134543874Y-135789815D01*
X134498119Y-135737011D01*
X134488175Y-135667853D01*
X134497254Y-135635925D01*
X134501670Y-135625800D01*
X134507466Y-135617126D01*
X134544960Y-135526606D01*
X134556501Y-135498744D01*
X134581500Y-135373069D01*
X134581500Y-134616935D01*
X134601185Y-134549896D01*
X134602366Y-134548090D01*
X134640394Y-134491179D01*
X134700737Y-134345497D01*
X134731500Y-134190842D01*
X134731500Y-134033158D01*
X134731500Y-134033155D01*
X134731499Y-134033153D01*
X134727305Y-134012070D01*
X134700737Y-133878503D01*
X134697325Y-133870265D01*
X134640397Y-133732827D01*
X134640390Y-133732814D01*
X134552789Y-133601711D01*
X134552786Y-133601707D01*
X134441292Y-133490213D01*
X134441288Y-133490210D01*
X134310185Y-133402609D01*
X134310172Y-133402602D01*
X134164501Y-133342264D01*
X134164489Y-133342261D01*
X134009845Y-133311500D01*
X134009842Y-133311500D01*
X133852158Y-133311500D01*
X133852155Y-133311500D01*
X133697510Y-133342261D01*
X133697498Y-133342264D01*
X133551827Y-133402602D01*
X133551814Y-133402609D01*
X133420711Y-133490210D01*
X133420707Y-133490213D01*
X133309213Y-133601707D01*
X133309210Y-133601711D01*
X133221609Y-133732814D01*
X133221602Y-133732827D01*
X133161264Y-133878498D01*
X133161261Y-133878510D01*
X133130500Y-134033153D01*
X133130500Y-134190846D01*
X133161261Y-134345489D01*
X133161264Y-134345501D01*
X133221602Y-134491172D01*
X133221606Y-134491179D01*
X133259602Y-134548044D01*
X133280480Y-134614721D01*
X133280500Y-134616935D01*
X133280500Y-134988192D01*
X133260815Y-135055231D01*
X133244181Y-135075873D01*
X132963723Y-135356330D01*
X132952539Y-135373069D01*
X132930315Y-135406331D01*
X132892534Y-135462873D01*
X132843499Y-135581255D01*
X132843497Y-135581261D01*
X132818500Y-135706928D01*
X132818500Y-135818233D01*
X132798815Y-135885272D01*
X132746011Y-135931027D01*
X132676853Y-135940971D01*
X132638206Y-135928718D01*
X132598417Y-135908445D01*
X132598414Y-135908444D01*
X132598412Y-135908443D01*
X132396243Y-135842754D01*
X132396241Y-135842753D01*
X132396240Y-135842753D01*
X132234957Y-135817208D01*
X132186287Y-135809500D01*
X131973713Y-135809500D01*
X131925042Y-135817208D01*
X131763760Y-135842753D01*
X131561585Y-135908444D01*
X131372179Y-136004951D01*
X131200213Y-136129890D01*
X131049890Y-136280213D01*
X130924949Y-136452182D01*
X130920484Y-136460946D01*
X130872509Y-136511742D01*
X130804688Y-136528536D01*
X130738553Y-136505998D01*
X130699516Y-136460946D01*
X130695050Y-136452182D01*
X130570109Y-136280213D01*
X130419794Y-136129898D01*
X130419788Y-136129893D01*
X130334146Y-136067671D01*
X130331369Y-136065653D01*
X130288704Y-136010324D01*
X130282725Y-135940711D01*
X130289690Y-135917893D01*
X130309737Y-135869497D01*
X130340500Y-135714842D01*
X130340500Y-135557158D01*
X130340500Y-135557155D01*
X130340499Y-135557153D01*
X130309738Y-135402510D01*
X130309737Y-135402503D01*
X130290612Y-135356330D01*
X130249397Y-135256827D01*
X130249390Y-135256814D01*
X130161789Y-135125711D01*
X130161786Y-135125707D01*
X130050292Y-135014213D01*
X130050288Y-135014210D01*
X129919185Y-134926609D01*
X129919172Y-134926602D01*
X129773501Y-134866264D01*
X129773489Y-134866261D01*
X129618845Y-134835500D01*
X129618842Y-134835500D01*
X129461158Y-134835500D01*
X129461155Y-134835500D01*
X129306510Y-134866261D01*
X129306498Y-134866264D01*
X129160827Y-134926602D01*
X129160820Y-134926606D01*
X129131928Y-134945911D01*
X129103955Y-134964602D01*
X129037279Y-134985480D01*
X129035065Y-134985500D01*
X120839929Y-134985500D01*
X120714261Y-135010497D01*
X120714255Y-135010499D01*
X120595870Y-135059535D01*
X120489331Y-135130722D01*
X120489324Y-135130728D01*
X119810710Y-135809342D01*
X119749387Y-135842827D01*
X119701245Y-135842315D01*
X119701055Y-135843516D01*
X119596111Y-135826894D01*
X119486287Y-135809500D01*
X119273713Y-135809500D01*
X119225042Y-135817208D01*
X119063760Y-135842753D01*
X118861585Y-135908444D01*
X118672179Y-136004951D01*
X118500213Y-136129890D01*
X118349890Y-136280213D01*
X118224949Y-136452182D01*
X118220484Y-136460946D01*
X118172509Y-136511742D01*
X118104688Y-136528536D01*
X118038553Y-136505998D01*
X117999516Y-136460946D01*
X117995050Y-136452182D01*
X117870109Y-136280213D01*
X117719786Y-136129890D01*
X117547820Y-136004951D01*
X117358414Y-135908444D01*
X117358413Y-135908443D01*
X117358412Y-135908443D01*
X117156243Y-135842754D01*
X117156241Y-135842753D01*
X117156240Y-135842753D01*
X116994957Y-135817208D01*
X116946287Y-135809500D01*
X116733713Y-135809500D01*
X116685042Y-135817208D01*
X116523760Y-135842753D01*
X116321585Y-135908444D01*
X116132179Y-136004951D01*
X115960213Y-136129890D01*
X115809890Y-136280213D01*
X115684949Y-136452182D01*
X115680484Y-136460946D01*
X115632509Y-136511742D01*
X115564688Y-136528536D01*
X115498553Y-136505998D01*
X115459516Y-136460946D01*
X115455050Y-136452182D01*
X115330109Y-136280213D01*
X115179786Y-136129890D01*
X115007820Y-136004951D01*
X114818414Y-135908444D01*
X114818413Y-135908443D01*
X114818412Y-135908443D01*
X114616243Y-135842754D01*
X114616241Y-135842753D01*
X114616240Y-135842753D01*
X114454957Y-135817208D01*
X114406287Y-135809500D01*
X114193713Y-135809500D01*
X114145042Y-135817208D01*
X113983760Y-135842753D01*
X113781585Y-135908444D01*
X113592179Y-136004951D01*
X113420213Y-136129890D01*
X113269894Y-136280209D01*
X113269890Y-136280214D01*
X113215697Y-136354805D01*
X113160367Y-136397471D01*
X113090754Y-136403450D01*
X113028959Y-136370844D01*
X113000818Y-136329373D01*
X112977394Y-136272821D01*
X112977390Y-136272814D01*
X112889789Y-136141711D01*
X112889786Y-136141707D01*
X112778292Y-136030213D01*
X112778288Y-136030210D01*
X112647185Y-135942609D01*
X112647172Y-135942602D01*
X112501501Y-135882264D01*
X112501489Y-135882261D01*
X112346845Y-135851500D01*
X112346842Y-135851500D01*
X112189158Y-135851500D01*
X112189155Y-135851500D01*
X112034510Y-135882261D01*
X112034498Y-135882264D01*
X111888827Y-135942602D01*
X111888820Y-135942606D01*
X111859928Y-135961911D01*
X111831955Y-135980602D01*
X111765279Y-136001480D01*
X111763065Y-136001500D01*
X110232935Y-136001500D01*
X110165896Y-135981815D01*
X110164090Y-135980633D01*
X110107179Y-135942606D01*
X110107172Y-135942602D01*
X109961501Y-135882264D01*
X109961489Y-135882261D01*
X109806845Y-135851500D01*
X109806842Y-135851500D01*
X109649158Y-135851500D01*
X109649155Y-135851500D01*
X109494510Y-135882261D01*
X109494498Y-135882264D01*
X109348827Y-135942602D01*
X109348814Y-135942609D01*
X109217711Y-136030210D01*
X109217707Y-136030213D01*
X109106213Y-136141707D01*
X109106210Y-136141711D01*
X109018609Y-136272814D01*
X109018602Y-136272827D01*
X108958264Y-136418498D01*
X108958261Y-136418510D01*
X108927500Y-136573153D01*
X108927500Y-136730846D01*
X108958261Y-136885489D01*
X108958264Y-136885501D01*
X109018602Y-137031172D01*
X109018609Y-137031185D01*
X109106210Y-137162288D01*
X109106213Y-137162292D01*
X109217707Y-137273786D01*
X109217711Y-137273789D01*
X109348814Y-137361390D01*
X109348827Y-137361397D01*
X109494498Y-137421735D01*
X109494503Y-137421737D01*
X109649153Y-137452499D01*
X109649156Y-137452500D01*
X109649158Y-137452500D01*
X109806844Y-137452500D01*
X109806845Y-137452499D01*
X109961497Y-137421737D01*
X110107179Y-137361394D01*
X110164044Y-137323397D01*
X110230721Y-137302520D01*
X110232935Y-137302500D01*
X111763065Y-137302500D01*
X111830104Y-137322185D01*
X111831909Y-137323366D01*
X111888821Y-137361394D01*
X111888823Y-137361395D01*
X111888827Y-137361397D01*
X112034498Y-137421735D01*
X112034503Y-137421737D01*
X112189153Y-137452499D01*
X112189156Y-137452500D01*
X112189158Y-137452500D01*
X112346844Y-137452500D01*
X112346845Y-137452499D01*
X112501497Y-137421737D01*
X112647179Y-137361394D01*
X112773131Y-137277235D01*
X112839803Y-137256359D01*
X112907184Y-137274843D01*
X112953874Y-137326821D01*
X112964491Y-137360940D01*
X112982753Y-137476240D01*
X113048444Y-137678414D01*
X113144951Y-137867820D01*
X113269890Y-138039786D01*
X113420213Y-138190109D01*
X113592182Y-138315050D01*
X113600946Y-138319516D01*
X113651742Y-138367491D01*
X113668536Y-138435312D01*
X113645998Y-138501447D01*
X113600946Y-138540484D01*
X113592182Y-138544949D01*
X113420213Y-138669890D01*
X113269890Y-138820213D01*
X113144951Y-138992179D01*
X113048444Y-139181585D01*
X112982753Y-139383760D01*
X112981291Y-139392993D01*
X112949500Y-139593713D01*
X112949500Y-139806287D01*
X112959534Y-139869644D01*
X112982753Y-140016239D01*
X113048444Y-140218414D01*
X113144951Y-140407820D01*
X113269890Y-140579786D01*
X113420213Y-140730109D01*
X113592179Y-140855048D01*
X113592181Y-140855049D01*
X113592184Y-140855051D01*
X113781588Y-140951557D01*
X113983757Y-141017246D01*
X114193713Y-141050500D01*
X114193714Y-141050500D01*
X114406286Y-141050500D01*
X114406287Y-141050500D01*
X114616243Y-141017246D01*
X114818412Y-140951557D01*
X115007816Y-140855051D01*
X115080948Y-140801918D01*
X115179786Y-140730109D01*
X115179788Y-140730106D01*
X115179792Y-140730104D01*
X115330104Y-140579792D01*
X115330106Y-140579788D01*
X115330109Y-140579786D01*
X115455048Y-140407820D01*
X115455047Y-140407820D01*
X115455051Y-140407816D01*
X115459514Y-140399054D01*
X115507488Y-140348259D01*
X115575308Y-140331463D01*
X115641444Y-140353999D01*
X115680486Y-140399056D01*
X115684951Y-140407820D01*
X115809890Y-140579786D01*
X115960213Y-140730109D01*
X116132179Y-140855048D01*
X116132181Y-140855049D01*
X116132184Y-140855051D01*
X116321588Y-140951557D01*
X116523757Y-141017246D01*
X116733713Y-141050500D01*
X116733714Y-141050500D01*
X116946286Y-141050500D01*
X116946287Y-141050500D01*
X117156243Y-141017246D01*
X117358412Y-140951557D01*
X117547816Y-140855051D01*
X117620948Y-140801918D01*
X117719786Y-140730109D01*
X117719788Y-140730106D01*
X117719792Y-140730104D01*
X117870104Y-140579792D01*
X117870106Y-140579788D01*
X117870109Y-140579786D01*
X117995048Y-140407820D01*
X117995047Y-140407820D01*
X117995051Y-140407816D01*
X117999514Y-140399054D01*
X118047488Y-140348259D01*
X118115308Y-140331463D01*
X118181444Y-140353999D01*
X118220486Y-140399056D01*
X118224951Y-140407820D01*
X118349890Y-140579786D01*
X118500213Y-140730109D01*
X118672179Y-140855048D01*
X118672181Y-140855049D01*
X118672184Y-140855051D01*
X118861588Y-140951557D01*
X119063757Y-141017246D01*
X119273713Y-141050500D01*
X119273714Y-141050500D01*
X119486286Y-141050500D01*
X119486287Y-141050500D01*
X119696243Y-141017246D01*
X119898412Y-140951557D01*
X120087816Y-140855051D01*
X120160948Y-140801918D01*
X120259786Y-140730109D01*
X120259788Y-140730106D01*
X120259792Y-140730104D01*
X120410104Y-140579792D01*
X120410106Y-140579788D01*
X120410109Y-140579786D01*
X120535048Y-140407820D01*
X120535047Y-140407820D01*
X120535051Y-140407816D01*
X120539514Y-140399054D01*
X120587488Y-140348259D01*
X120655308Y-140331463D01*
X120721444Y-140353999D01*
X120760486Y-140399056D01*
X120764951Y-140407820D01*
X120889890Y-140579786D01*
X121040213Y-140730109D01*
X121212179Y-140855048D01*
X121212181Y-140855049D01*
X121212184Y-140855051D01*
X121401588Y-140951557D01*
X121603757Y-141017246D01*
X121813713Y-141050500D01*
X121813714Y-141050500D01*
X122026286Y-141050500D01*
X122026287Y-141050500D01*
X122236243Y-141017246D01*
X122438412Y-140951557D01*
X122627816Y-140855051D01*
X122700948Y-140801918D01*
X122799786Y-140730109D01*
X122799788Y-140730106D01*
X122799792Y-140730104D01*
X122950104Y-140579792D01*
X122950106Y-140579788D01*
X122950109Y-140579786D01*
X123075048Y-140407820D01*
X123075051Y-140407816D01*
X123079793Y-140398508D01*
X123127763Y-140347711D01*
X123195583Y-140330911D01*
X123261719Y-140353445D01*
X123300763Y-140398500D01*
X123305377Y-140407555D01*
X123430272Y-140579459D01*
X123430276Y-140579464D01*
X123580535Y-140729723D01*
X123580540Y-140729727D01*
X123752442Y-140854620D01*
X123941782Y-140951095D01*
X124143871Y-141016757D01*
X124210000Y-141027231D01*
X124210000Y-140133012D01*
X124267007Y-140165925D01*
X124394174Y-140200000D01*
X124525826Y-140200000D01*
X124652993Y-140165925D01*
X124710000Y-140133012D01*
X124710000Y-141027230D01*
X124776126Y-141016757D01*
X124776129Y-141016757D01*
X124978217Y-140951095D01*
X125167557Y-140854620D01*
X125339459Y-140729727D01*
X125339464Y-140729723D01*
X125489723Y-140579464D01*
X125489727Y-140579459D01*
X125614620Y-140407558D01*
X125619232Y-140398507D01*
X125667205Y-140347709D01*
X125735025Y-140330912D01*
X125801161Y-140353447D01*
X125840204Y-140398504D01*
X125844949Y-140407817D01*
X125969890Y-140579786D01*
X126120213Y-140730109D01*
X126292179Y-140855048D01*
X126292181Y-140855049D01*
X126292184Y-140855051D01*
X126481588Y-140951557D01*
X126683757Y-141017246D01*
X126893713Y-141050500D01*
X126893714Y-141050500D01*
X127106286Y-141050500D01*
X127106287Y-141050500D01*
X127316243Y-141017246D01*
X127518412Y-140951557D01*
X127707816Y-140855051D01*
X127780948Y-140801918D01*
X127879786Y-140730109D01*
X127879788Y-140730106D01*
X127879792Y-140730104D01*
X128030104Y-140579792D01*
X128030106Y-140579788D01*
X128030109Y-140579786D01*
X128155048Y-140407820D01*
X128155051Y-140407816D01*
X128159793Y-140398508D01*
X128207763Y-140347711D01*
X128275583Y-140330911D01*
X128341719Y-140353445D01*
X128380763Y-140398500D01*
X128385377Y-140407555D01*
X128510272Y-140579459D01*
X128510276Y-140579464D01*
X128660535Y-140729723D01*
X128660540Y-140729727D01*
X128832442Y-140854620D01*
X129021782Y-140951095D01*
X129223871Y-141016757D01*
X129290000Y-141027231D01*
X129290000Y-140133012D01*
X129347007Y-140165925D01*
X129474174Y-140200000D01*
X129605826Y-140200000D01*
X129732993Y-140165925D01*
X129790000Y-140133012D01*
X129790000Y-141027230D01*
X129856126Y-141016757D01*
X129856129Y-141016757D01*
X129932693Y-140991880D01*
X130002534Y-140989885D01*
X130062367Y-141025965D01*
X130092628Y-141085619D01*
X130119340Y-141219907D01*
X130119343Y-141219917D01*
X130175912Y-141356488D01*
X130175919Y-141356501D01*
X130258048Y-141479415D01*
X130258051Y-141479419D01*
X130298951Y-141520319D01*
X130332436Y-141581642D01*
X130327452Y-141651334D01*
X130285580Y-141707267D01*
X130220116Y-141731684D01*
X130211270Y-141732000D01*
X112011176Y-141732000D01*
X111944137Y-141712315D01*
X111923495Y-141695681D01*
X95269734Y-125041920D01*
X117613499Y-125041920D01*
X117642340Y-125186907D01*
X117642343Y-125186917D01*
X117698914Y-125323492D01*
X117698915Y-125323494D01*
X117698916Y-125323495D01*
X117717372Y-125351117D01*
X117731812Y-125372727D01*
X117731813Y-125372730D01*
X117781046Y-125446414D01*
X117781047Y-125446415D01*
X117781048Y-125446416D01*
X117930669Y-125596036D01*
X118035204Y-125700571D01*
X118035207Y-125700573D01*
X118035208Y-125700574D01*
X118158123Y-125782703D01*
X118158126Y-125782705D01*
X118208285Y-125803481D01*
X118214700Y-125806138D01*
X118294708Y-125839279D01*
X118410861Y-125862383D01*
X118434000Y-125866985D01*
X118439701Y-125868120D01*
X118439702Y-125868120D01*
X118439703Y-125868120D01*
X118587538Y-125868120D01*
X121988776Y-125868120D01*
X122036224Y-125877557D01*
X122059883Y-125887357D01*
X122059888Y-125887358D01*
X122059891Y-125887359D01*
X122214533Y-125918119D01*
X122214536Y-125918120D01*
X122214538Y-125918120D01*
X122372224Y-125918120D01*
X122372225Y-125918119D01*
X122526877Y-125887357D01*
X122672559Y-125827014D01*
X122803669Y-125739409D01*
X122915169Y-125627909D01*
X123002774Y-125496799D01*
X123063117Y-125351117D01*
X123093880Y-125196462D01*
X123093880Y-125038778D01*
X123093880Y-125038775D01*
X123093879Y-125038773D01*
X123089342Y-125015965D01*
X123063117Y-124884123D01*
X123029589Y-124803178D01*
X123002777Y-124738447D01*
X123002770Y-124738434D01*
X122915169Y-124607331D01*
X122915166Y-124607327D01*
X122803672Y-124495833D01*
X122803668Y-124495830D01*
X122672565Y-124408229D01*
X122672552Y-124408222D01*
X122526881Y-124347884D01*
X122526869Y-124347881D01*
X122372225Y-124317120D01*
X122372222Y-124317120D01*
X122214538Y-124317120D01*
X122214535Y-124317120D01*
X122059891Y-124347880D01*
X122059886Y-124347882D01*
X122059884Y-124347882D01*
X122059883Y-124347883D01*
X122036224Y-124357682D01*
X121988776Y-124367120D01*
X119238500Y-124367120D01*
X119171461Y-124347435D01*
X119125706Y-124294631D01*
X119114500Y-124243120D01*
X119114500Y-122282229D01*
X119134185Y-122215190D01*
X119150814Y-122194553D01*
X120584297Y-120761069D01*
X120624524Y-120734191D01*
X120648179Y-120724394D01*
X120779289Y-120636789D01*
X120890789Y-120525289D01*
X120978394Y-120394179D01*
X121038737Y-120248497D01*
X121069500Y-120093842D01*
X121069500Y-119936158D01*
X121069500Y-119936155D01*
X121069499Y-119936153D01*
X121054235Y-119859416D01*
X121038737Y-119781503D01*
X121004855Y-119699703D01*
X120978397Y-119635827D01*
X120978390Y-119635814D01*
X120890789Y-119504711D01*
X120890786Y-119504707D01*
X120779292Y-119393213D01*
X120779288Y-119393210D01*
X120648185Y-119305609D01*
X120648172Y-119305602D01*
X120502501Y-119245264D01*
X120502489Y-119245261D01*
X120347845Y-119214500D01*
X120347842Y-119214500D01*
X120190158Y-119214500D01*
X120190155Y-119214500D01*
X120035510Y-119245261D01*
X120035498Y-119245264D01*
X119889827Y-119305602D01*
X119889814Y-119305609D01*
X119758711Y-119393210D01*
X119758707Y-119393213D01*
X119647213Y-119504707D01*
X119647207Y-119504715D01*
X119559607Y-119635818D01*
X119559606Y-119635819D01*
X119549805Y-119659480D01*
X119522927Y-119699703D01*
X117781047Y-121441584D01*
X117781045Y-121441586D01*
X117748138Y-121490839D01*
X117748136Y-121490842D01*
X117698919Y-121564499D01*
X117698912Y-121564511D01*
X117642343Y-121701082D01*
X117642340Y-121701092D01*
X117613500Y-121846079D01*
X117613500Y-121846082D01*
X117613500Y-125041918D01*
X117613500Y-125041920D01*
X117613499Y-125041920D01*
X95269734Y-125041920D01*
X94524319Y-124296505D01*
X94490834Y-124235182D01*
X94488000Y-124208824D01*
X94488000Y-122533919D01*
X112975498Y-122533919D01*
X113004339Y-122678905D01*
X113004341Y-122678911D01*
X113049339Y-122787546D01*
X113056808Y-122857016D01*
X113049339Y-122882451D01*
X113004342Y-122991083D01*
X113004339Y-122991093D01*
X112975499Y-123136079D01*
X112975499Y-123136082D01*
X112975499Y-123283918D01*
X112975499Y-123283920D01*
X112975498Y-123283920D01*
X113004339Y-123428906D01*
X113004341Y-123428912D01*
X113049339Y-123537547D01*
X113056808Y-123607017D01*
X113049339Y-123632452D01*
X113004342Y-123741084D01*
X113004339Y-123741094D01*
X112975499Y-123886080D01*
X112975499Y-123886083D01*
X112975499Y-124033919D01*
X112975499Y-124033921D01*
X112975498Y-124033921D01*
X113004339Y-124178907D01*
X113004342Y-124178917D01*
X113060911Y-124315488D01*
X113060918Y-124315501D01*
X113143047Y-124438415D01*
X113143050Y-124438419D01*
X113247579Y-124542948D01*
X113247583Y-124542951D01*
X113370497Y-124625080D01*
X113370510Y-124625087D01*
X113438348Y-124653186D01*
X113507086Y-124681658D01*
X113507090Y-124681658D01*
X113507091Y-124681659D01*
X113652077Y-124710500D01*
X113652080Y-124710500D01*
X113799918Y-124710500D01*
X113897459Y-124691096D01*
X113944910Y-124681658D01*
X114081492Y-124625084D01*
X114204413Y-124542951D01*
X114308948Y-124438416D01*
X114391081Y-124315495D01*
X114447655Y-124178913D01*
X114463137Y-124101084D01*
X114476497Y-124033921D01*
X114476497Y-123886080D01*
X114447656Y-123741094D01*
X114447655Y-123741093D01*
X114447655Y-123741089D01*
X114402655Y-123632451D01*
X114395187Y-123562984D01*
X114402653Y-123537555D01*
X114447655Y-123428912D01*
X114457093Y-123381461D01*
X114476497Y-123283920D01*
X114476497Y-123136079D01*
X114447656Y-122991093D01*
X114447655Y-122991092D01*
X114447655Y-122991088D01*
X114402655Y-122882450D01*
X114395187Y-122812983D01*
X114402653Y-122787554D01*
X114447655Y-122678911D01*
X114476497Y-122533917D01*
X114476497Y-122386081D01*
X114476497Y-122386078D01*
X114447656Y-122241092D01*
X114447655Y-122241091D01*
X114447655Y-122241087D01*
X114428362Y-122194510D01*
X114391084Y-122104511D01*
X114391077Y-122104498D01*
X114308948Y-121981584D01*
X114308945Y-121981580D01*
X114204416Y-121877051D01*
X114204412Y-121877048D01*
X114081498Y-121794919D01*
X114081485Y-121794912D01*
X113944914Y-121738343D01*
X113944904Y-121738340D01*
X113799918Y-121709500D01*
X113799916Y-121709500D01*
X113652080Y-121709500D01*
X113652078Y-121709500D01*
X113507091Y-121738340D01*
X113507081Y-121738343D01*
X113370510Y-121794912D01*
X113370497Y-121794919D01*
X113247583Y-121877048D01*
X113247579Y-121877051D01*
X113143050Y-121981580D01*
X113143047Y-121981584D01*
X113060918Y-122104498D01*
X113060911Y-122104511D01*
X113004342Y-122241082D01*
X113004339Y-122241092D01*
X112975499Y-122386078D01*
X112975499Y-122386081D01*
X112975499Y-122533917D01*
X112975499Y-122533919D01*
X112975498Y-122533919D01*
X94488000Y-122533919D01*
X94488000Y-105549983D01*
X107844500Y-105549983D01*
X107844500Y-106350001D01*
X107844501Y-106350019D01*
X107855000Y-106452796D01*
X107855001Y-106452799D01*
X107873326Y-106508099D01*
X107910186Y-106619334D01*
X108002288Y-106768656D01*
X108126344Y-106892712D01*
X108190981Y-106932580D01*
X108237705Y-106984526D01*
X108248928Y-107053489D01*
X108221085Y-107117571D01*
X108213566Y-107125799D01*
X108105964Y-107233401D01*
X108004195Y-107373475D01*
X107925591Y-107527744D01*
X107872085Y-107692415D01*
X107870884Y-107699999D01*
X107870885Y-107700000D01*
X108939670Y-107700000D01*
X108919925Y-107719745D01*
X108870556Y-107805255D01*
X108845000Y-107900630D01*
X108845000Y-107999370D01*
X108870556Y-108094745D01*
X108919925Y-108180255D01*
X108939670Y-108200000D01*
X107870885Y-108200000D01*
X107872085Y-108207584D01*
X107925591Y-108372255D01*
X108004195Y-108526524D01*
X108105967Y-108666602D01*
X108228397Y-108789032D01*
X108368475Y-108890804D01*
X108522742Y-108969408D01*
X108687415Y-109022914D01*
X108858429Y-109050000D01*
X108970000Y-109050000D01*
X108970000Y-108230330D01*
X108989745Y-108250075D01*
X109075255Y-108299444D01*
X109170630Y-108325000D01*
X109269370Y-108325000D01*
X109364745Y-108299444D01*
X109450255Y-108250075D01*
X109470000Y-108230330D01*
X109470000Y-109050000D01*
X109581571Y-109050000D01*
X109752584Y-109022914D01*
X109917257Y-108969408D01*
X110071524Y-108890804D01*
X110211602Y-108789032D01*
X110334032Y-108666602D01*
X110435804Y-108526524D01*
X110514408Y-108372255D01*
X110567914Y-108207584D01*
X110569115Y-108200000D01*
X109500330Y-108200000D01*
X109520075Y-108180255D01*
X109569444Y-108094745D01*
X109595000Y-107999370D01*
X109595000Y-107900630D01*
X109569444Y-107805255D01*
X109520075Y-107719745D01*
X109500330Y-107700000D01*
X110569115Y-107700000D01*
X110569115Y-107699999D01*
X110567914Y-107692415D01*
X110514408Y-107527744D01*
X110435804Y-107373475D01*
X110334032Y-107233397D01*
X110226434Y-107125799D01*
X110192949Y-107064476D01*
X110197933Y-106994784D01*
X110239805Y-106938851D01*
X110248995Y-106932594D01*
X110313656Y-106892712D01*
X110437712Y-106768656D01*
X110505099Y-106659402D01*
X110557047Y-106612679D01*
X110610638Y-106600500D01*
X118015071Y-106600500D01*
X118099615Y-106583682D01*
X118140744Y-106575501D01*
X118259127Y-106526465D01*
X118286614Y-106508099D01*
X118365669Y-106455277D01*
X122657931Y-102163013D01*
X122719252Y-102129530D01*
X122721317Y-102129099D01*
X122788497Y-102115737D01*
X122886083Y-102075316D01*
X130099500Y-102075316D01*
X130099500Y-102394683D01*
X130130803Y-102712522D01*
X130193109Y-103025754D01*
X130285820Y-103331382D01*
X130408040Y-103626446D01*
X130408042Y-103626451D01*
X130558584Y-103908094D01*
X130558601Y-103908122D01*
X130736012Y-104173638D01*
X130736029Y-104173661D01*
X130938638Y-104420540D01*
X131164459Y-104646361D01*
X131164464Y-104646365D01*
X131164465Y-104646366D01*
X131411344Y-104848975D01*
X131411351Y-104848980D01*
X131411361Y-104848987D01*
X131676877Y-105026398D01*
X131676882Y-105026401D01*
X131676894Y-105026409D01*
X131676903Y-105026413D01*
X131676905Y-105026415D01*
X131958548Y-105176957D01*
X131958550Y-105176957D01*
X131958556Y-105176961D01*
X132253619Y-105299180D01*
X132559240Y-105391889D01*
X132872477Y-105454196D01*
X133190313Y-105485500D01*
X133190316Y-105485500D01*
X133509684Y-105485500D01*
X133509687Y-105485500D01*
X133827523Y-105454196D01*
X134140760Y-105391889D01*
X134446381Y-105299180D01*
X134741444Y-105176961D01*
X135023106Y-105026409D01*
X135288656Y-104848975D01*
X135535535Y-104646366D01*
X135535540Y-104646361D01*
X135636254Y-104545648D01*
X136875500Y-104545648D01*
X136875500Y-104750351D01*
X136907522Y-104952534D01*
X136970781Y-105147223D01*
X137063715Y-105329613D01*
X137184028Y-105495213D01*
X137328786Y-105639971D01*
X137483749Y-105752556D01*
X137494390Y-105760287D01*
X137610607Y-105819503D01*
X137676776Y-105853218D01*
X137676778Y-105853218D01*
X137676781Y-105853220D01*
X137781137Y-105887127D01*
X137871465Y-105916477D01*
X137972557Y-105932488D01*
X138073648Y-105948500D01*
X138073649Y-105948500D01*
X138278351Y-105948500D01*
X138278352Y-105948500D01*
X138480534Y-105916477D01*
X138675219Y-105853220D01*
X138857610Y-105760287D01*
X138950590Y-105692732D01*
X139023213Y-105639971D01*
X139023215Y-105639968D01*
X139023219Y-105639966D01*
X139167966Y-105495219D01*
X139167968Y-105495215D01*
X139167971Y-105495213D01*
X139243039Y-105391889D01*
X139288287Y-105329610D01*
X139381220Y-105147219D01*
X139444477Y-104952534D01*
X139476500Y-104750352D01*
X139476500Y-104545648D01*
X147035500Y-104545648D01*
X147035500Y-104750351D01*
X147067522Y-104952534D01*
X147130781Y-105147223D01*
X147223715Y-105329613D01*
X147344028Y-105495213D01*
X147488786Y-105639971D01*
X147643749Y-105752556D01*
X147654390Y-105760287D01*
X147770607Y-105819503D01*
X147836776Y-105853218D01*
X147836778Y-105853218D01*
X147836781Y-105853220D01*
X147941137Y-105887127D01*
X148031465Y-105916477D01*
X148132557Y-105932488D01*
X148233648Y-105948500D01*
X148233649Y-105948500D01*
X148438351Y-105948500D01*
X148438352Y-105948500D01*
X148640534Y-105916477D01*
X148835219Y-105853220D01*
X149017610Y-105760287D01*
X149110590Y-105692732D01*
X149183213Y-105639971D01*
X149183215Y-105639968D01*
X149183219Y-105639966D01*
X149327966Y-105495219D01*
X149327968Y-105495215D01*
X149327971Y-105495213D01*
X149403039Y-105391889D01*
X149448287Y-105329610D01*
X149541220Y-105147219D01*
X149604477Y-104952534D01*
X149636500Y-104750352D01*
X149636500Y-104545648D01*
X149604477Y-104343466D01*
X149541220Y-104148781D01*
X149541218Y-104148778D01*
X149541218Y-104148776D01*
X149507503Y-104082607D01*
X149448287Y-103966390D01*
X149440556Y-103955749D01*
X149327971Y-103800786D01*
X149183213Y-103656028D01*
X149017613Y-103535715D01*
X149017612Y-103535714D01*
X149017610Y-103535713D01*
X148960653Y-103506691D01*
X148835223Y-103442781D01*
X148640534Y-103379522D01*
X148465995Y-103351878D01*
X148438352Y-103347500D01*
X148233648Y-103347500D01*
X148209329Y-103351351D01*
X148031465Y-103379522D01*
X147836776Y-103442781D01*
X147654386Y-103535715D01*
X147488786Y-103656028D01*
X147344028Y-103800786D01*
X147223715Y-103966386D01*
X147130781Y-104148776D01*
X147067522Y-104343465D01*
X147035500Y-104545648D01*
X139476500Y-104545648D01*
X139444477Y-104343466D01*
X139381220Y-104148781D01*
X139381218Y-104148778D01*
X139381218Y-104148776D01*
X139347503Y-104082607D01*
X139288287Y-103966390D01*
X139280556Y-103955749D01*
X139167971Y-103800786D01*
X139023213Y-103656028D01*
X138857613Y-103535715D01*
X138857612Y-103535714D01*
X138857610Y-103535713D01*
X138800653Y-103506691D01*
X138675223Y-103442781D01*
X138480534Y-103379522D01*
X138305995Y-103351878D01*
X138278352Y-103347500D01*
X138073648Y-103347500D01*
X138049329Y-103351351D01*
X137871465Y-103379522D01*
X137676776Y-103442781D01*
X137494386Y-103535715D01*
X137328786Y-103656028D01*
X137184028Y-103800786D01*
X137063715Y-103966386D01*
X136970781Y-104148776D01*
X136907522Y-104343465D01*
X136875500Y-104545648D01*
X135636254Y-104545648D01*
X135728807Y-104453095D01*
X135761361Y-104420540D01*
X135761366Y-104420535D01*
X135963975Y-104173656D01*
X136141409Y-103908106D01*
X136291961Y-103626444D01*
X136414180Y-103331381D01*
X136506889Y-103025760D01*
X136569196Y-102712523D01*
X136600500Y-102394687D01*
X136600500Y-102075313D01*
X136569196Y-101757477D01*
X136506889Y-101444240D01*
X136414180Y-101138619D01*
X136291961Y-100843556D01*
X136254365Y-100773220D01*
X136141415Y-100561905D01*
X136141413Y-100561903D01*
X136141409Y-100561894D01*
X136140121Y-100559966D01*
X135963987Y-100296361D01*
X135963980Y-100296351D01*
X135963975Y-100296344D01*
X135761366Y-100049465D01*
X135761365Y-100049464D01*
X135761361Y-100049459D01*
X135535540Y-99823638D01*
X135288661Y-99621029D01*
X135288638Y-99621012D01*
X135203130Y-99563878D01*
X135056118Y-99465648D01*
X159735500Y-99465648D01*
X159735500Y-99670351D01*
X159767522Y-99872534D01*
X159830781Y-100067223D01*
X159923715Y-100249613D01*
X160044028Y-100415213D01*
X160188786Y-100559971D01*
X160343749Y-100672556D01*
X160354390Y-100680287D01*
X160470607Y-100739503D01*
X160536776Y-100773218D01*
X160536778Y-100773218D01*
X160536781Y-100773220D01*
X160641137Y-100807127D01*
X160731465Y-100836477D01*
X160776141Y-100843553D01*
X160933648Y-100868500D01*
X160933649Y-100868500D01*
X161138351Y-100868500D01*
X161138352Y-100868500D01*
X161340534Y-100836477D01*
X161535219Y-100773220D01*
X161717610Y-100680287D01*
X161810590Y-100612732D01*
X161883213Y-100559971D01*
X161883215Y-100559968D01*
X161883219Y-100559966D01*
X162027966Y-100415219D01*
X162027968Y-100415215D01*
X162027971Y-100415213D01*
X162080732Y-100342590D01*
X162148287Y-100249610D01*
X162241220Y-100067219D01*
X162304477Y-99872534D01*
X162336500Y-99670352D01*
X162336500Y-99465648D01*
X162333005Y-99443584D01*
X162304477Y-99263465D01*
X162274374Y-99170820D01*
X162241220Y-99068781D01*
X162241218Y-99068778D01*
X162241218Y-99068776D01*
X162207503Y-99002607D01*
X162148287Y-98886390D01*
X162140556Y-98875749D01*
X162027971Y-98720786D01*
X161883213Y-98576028D01*
X161717613Y-98455715D01*
X161717612Y-98455714D01*
X161717610Y-98455713D01*
X161660653Y-98426691D01*
X161535223Y-98362781D01*
X161340534Y-98299522D01*
X161165995Y-98271878D01*
X161138352Y-98267500D01*
X160933648Y-98267500D01*
X160909329Y-98271351D01*
X160731465Y-98299522D01*
X160536776Y-98362781D01*
X160354386Y-98455715D01*
X160188786Y-98576028D01*
X160044028Y-98720786D01*
X159923715Y-98886386D01*
X159830781Y-99068776D01*
X159767522Y-99263465D01*
X159735500Y-99465648D01*
X135056118Y-99465648D01*
X135023122Y-99443601D01*
X135023094Y-99443584D01*
X134741451Y-99293042D01*
X134741446Y-99293040D01*
X134446382Y-99170820D01*
X134140754Y-99078109D01*
X133827521Y-99015803D01*
X133827522Y-99015803D01*
X133588141Y-98992227D01*
X133509687Y-98984500D01*
X133190313Y-98984500D01*
X133117822Y-98991639D01*
X132872477Y-99015803D01*
X132559245Y-99078109D01*
X132253617Y-99170820D01*
X131958553Y-99293040D01*
X131958548Y-99293042D01*
X131676905Y-99443584D01*
X131676877Y-99443601D01*
X131411361Y-99621012D01*
X131411338Y-99621029D01*
X131164459Y-99823638D01*
X130938638Y-100049459D01*
X130736029Y-100296338D01*
X130736012Y-100296361D01*
X130558601Y-100561877D01*
X130558584Y-100561905D01*
X130408042Y-100843548D01*
X130408040Y-100843553D01*
X130285820Y-101138617D01*
X130193109Y-101444245D01*
X130130803Y-101757477D01*
X130099500Y-102075316D01*
X122886083Y-102075316D01*
X122934179Y-102055394D01*
X123065289Y-101967789D01*
X123176789Y-101856289D01*
X123264394Y-101725179D01*
X123324737Y-101579497D01*
X123355500Y-101424842D01*
X123355500Y-101267158D01*
X123355500Y-101267155D01*
X123355499Y-101267153D01*
X123324738Y-101112510D01*
X123324738Y-101112508D01*
X123324737Y-101112503D01*
X123324735Y-101112498D01*
X123264397Y-100966827D01*
X123264390Y-100966814D01*
X123176789Y-100835711D01*
X123176786Y-100835707D01*
X123065292Y-100724213D01*
X123065288Y-100724210D01*
X122934185Y-100636609D01*
X122934172Y-100636602D01*
X122788501Y-100576264D01*
X122788489Y-100576261D01*
X122633845Y-100545500D01*
X122633842Y-100545500D01*
X122476158Y-100545500D01*
X122476155Y-100545500D01*
X122321510Y-100576261D01*
X122321498Y-100576264D01*
X122175827Y-100636602D01*
X122175814Y-100636609D01*
X122044711Y-100724210D01*
X122044707Y-100724213D01*
X121933213Y-100835707D01*
X121933210Y-100835711D01*
X121845609Y-100966814D01*
X121845602Y-100966827D01*
X121785264Y-101112498D01*
X121785261Y-101112508D01*
X121771920Y-101179579D01*
X121739535Y-101241490D01*
X121737984Y-101243068D01*
X117717873Y-105263181D01*
X117656550Y-105296666D01*
X117630192Y-105299500D01*
X110610638Y-105299500D01*
X110543599Y-105279815D01*
X110505099Y-105240597D01*
X110437712Y-105131344D01*
X110313656Y-105007288D01*
X110164334Y-104915186D01*
X109997797Y-104860001D01*
X109997795Y-104860000D01*
X109895010Y-104849500D01*
X108544998Y-104849500D01*
X108544981Y-104849501D01*
X108442203Y-104860000D01*
X108442200Y-104860001D01*
X108275668Y-104915185D01*
X108275663Y-104915187D01*
X108126342Y-105007289D01*
X108002289Y-105131342D01*
X107910187Y-105280663D01*
X107910185Y-105280668D01*
X107882349Y-105364670D01*
X107855001Y-105447203D01*
X107855001Y-105447204D01*
X107855000Y-105447204D01*
X107844500Y-105549983D01*
X94488000Y-105549983D01*
X94488000Y-95094744D01*
X99641500Y-95094744D01*
X99641500Y-95252437D01*
X99672261Y-95407080D01*
X99672264Y-95407092D01*
X99732602Y-95552763D01*
X99732609Y-95552776D01*
X99820210Y-95683879D01*
X99820213Y-95683883D01*
X99931707Y-95795377D01*
X99931711Y-95795380D01*
X100062814Y-95882981D01*
X100062827Y-95882988D01*
X100162060Y-95924091D01*
X100208503Y-95943328D01*
X100363153Y-95974090D01*
X100363156Y-95974091D01*
X100363158Y-95974091D01*
X100520844Y-95974091D01*
X100520845Y-95974090D01*
X100597152Y-95958911D01*
X100675488Y-95943330D01*
X100675489Y-95943329D01*
X100675497Y-95943328D01*
X100699155Y-95933528D01*
X100746604Y-95924091D01*
X102004329Y-95924091D01*
X102101871Y-95904687D01*
X102149322Y-95895249D01*
X102285904Y-95838675D01*
X102350700Y-95795380D01*
X102350703Y-95795377D01*
X102350705Y-95795377D01*
X102379956Y-95775831D01*
X102408825Y-95756543D01*
X103019888Y-95145477D01*
X103062617Y-95119877D01*
X103061868Y-95118069D01*
X103156892Y-95078708D01*
X103213179Y-95055394D01*
X103344289Y-94967789D01*
X103455789Y-94856289D01*
X103543394Y-94725179D01*
X103603737Y-94579497D01*
X103634500Y-94424842D01*
X103634500Y-94267158D01*
X103634500Y-94267155D01*
X103634499Y-94267153D01*
X103603738Y-94112510D01*
X103603737Y-94112503D01*
X103603735Y-94112498D01*
X103543397Y-93966827D01*
X103543390Y-93966814D01*
X103455789Y-93835711D01*
X103455786Y-93835707D01*
X103344292Y-93724213D01*
X103344288Y-93724210D01*
X103213185Y-93636609D01*
X103213172Y-93636602D01*
X103067501Y-93576264D01*
X103067489Y-93576261D01*
X102912845Y-93545500D01*
X102912842Y-93545500D01*
X102755158Y-93545500D01*
X102755155Y-93545500D01*
X102600510Y-93576261D01*
X102600498Y-93576264D01*
X102454827Y-93636602D01*
X102454815Y-93636609D01*
X102323709Y-93724212D01*
X102323708Y-93724213D01*
X102304154Y-93743766D01*
X102285377Y-93759176D01*
X102279591Y-93763042D01*
X102279579Y-93763052D01*
X101655860Y-94386772D01*
X101594537Y-94420257D01*
X101568179Y-94423091D01*
X100746604Y-94423091D01*
X100699155Y-94413653D01*
X100675497Y-94403854D01*
X100675493Y-94403853D01*
X100675488Y-94403851D01*
X100520845Y-94373091D01*
X100520842Y-94373091D01*
X100363158Y-94373091D01*
X100363155Y-94373091D01*
X100208510Y-94403852D01*
X100208498Y-94403855D01*
X100062827Y-94464193D01*
X100062814Y-94464200D01*
X99931711Y-94551801D01*
X99931707Y-94551804D01*
X99820213Y-94663298D01*
X99820210Y-94663302D01*
X99732609Y-94794405D01*
X99732602Y-94794418D01*
X99672264Y-94940089D01*
X99672261Y-94940101D01*
X99641500Y-95094744D01*
X94488000Y-95094744D01*
X94488000Y-86758379D01*
X95658500Y-86758379D01*
X95658500Y-87745620D01*
X95695025Y-87929243D01*
X95695027Y-87929251D01*
X95766676Y-88102228D01*
X95766681Y-88102237D01*
X95870697Y-88257907D01*
X95870700Y-88257911D01*
X95922180Y-88309390D01*
X95955666Y-88370713D01*
X95958500Y-88397072D01*
X95958500Y-90126927D01*
X95938815Y-90193966D01*
X95922181Y-90214608D01*
X95870700Y-90266088D01*
X95870697Y-90266092D01*
X95766681Y-90421762D01*
X95766676Y-90421771D01*
X95695027Y-90594748D01*
X95695025Y-90594756D01*
X95658500Y-90778379D01*
X95658500Y-92065620D01*
X95695025Y-92249243D01*
X95695027Y-92249251D01*
X95766676Y-92422228D01*
X95766681Y-92422237D01*
X95870697Y-92577907D01*
X95870700Y-92577911D01*
X96003088Y-92710299D01*
X96003092Y-92710302D01*
X96158762Y-92814318D01*
X96158768Y-92814321D01*
X96158769Y-92814322D01*
X96331749Y-92885973D01*
X96515379Y-92922499D01*
X96515383Y-92922500D01*
X96515384Y-92922500D01*
X96702617Y-92922500D01*
X96702618Y-92922499D01*
X96886251Y-92885973D01*
X97059231Y-92814322D01*
X97214908Y-92710302D01*
X97347302Y-92577908D01*
X97451322Y-92422231D01*
X97522973Y-92249251D01*
X97559500Y-92065616D01*
X97559500Y-91383964D01*
X97579185Y-91316925D01*
X97631989Y-91271170D01*
X97701147Y-91261226D01*
X97760377Y-91288275D01*
X97760941Y-91287542D01*
X97764130Y-91289989D01*
X97764703Y-91290251D01*
X97765788Y-91291261D01*
X97767382Y-91292484D01*
X97767387Y-91292489D01*
X97870114Y-91351799D01*
X97984691Y-91382500D01*
X97984694Y-91382500D01*
X98103306Y-91382500D01*
X98103309Y-91382500D01*
X98217886Y-91351799D01*
X98320613Y-91292489D01*
X98404489Y-91208613D01*
X98463799Y-91105886D01*
X98494500Y-90991309D01*
X98494500Y-90872691D01*
X98463799Y-90758114D01*
X98404489Y-90655387D01*
X98320613Y-90571511D01*
X98217886Y-90512201D01*
X98103309Y-90481500D01*
X97984691Y-90481500D01*
X97870114Y-90512201D01*
X97870112Y-90512201D01*
X97870112Y-90512202D01*
X97767387Y-90571511D01*
X97767383Y-90571514D01*
X97718976Y-90619921D01*
X97657653Y-90653405D01*
X97587961Y-90648420D01*
X97532028Y-90606549D01*
X97516736Y-90579692D01*
X97476064Y-90481500D01*
X97451325Y-90421775D01*
X97451318Y-90421762D01*
X97347302Y-90266092D01*
X97347299Y-90266088D01*
X97295819Y-90214608D01*
X97262334Y-90153285D01*
X97259500Y-90126927D01*
X97259500Y-88397072D01*
X97279185Y-88330033D01*
X97295820Y-88309390D01*
X97347299Y-88257911D01*
X97347302Y-88257908D01*
X97451322Y-88102231D01*
X97502347Y-87979047D01*
X97546188Y-87924644D01*
X97612482Y-87902579D01*
X97616908Y-87902500D01*
X104251092Y-87902500D01*
X104318131Y-87922185D01*
X104363886Y-87974989D01*
X104365653Y-87979047D01*
X104416676Y-88102227D01*
X104416681Y-88102237D01*
X104520697Y-88257907D01*
X104520700Y-88257911D01*
X104572180Y-88309390D01*
X104605666Y-88370713D01*
X104608500Y-88397072D01*
X104608500Y-90126927D01*
X104588815Y-90193966D01*
X104572181Y-90214608D01*
X104520700Y-90266088D01*
X104520697Y-90266092D01*
X104416681Y-90421762D01*
X104416676Y-90421771D01*
X104351264Y-90579692D01*
X104307423Y-90634095D01*
X104241129Y-90656160D01*
X104173430Y-90638881D01*
X104149022Y-90619920D01*
X104100615Y-90571513D01*
X104100613Y-90571511D01*
X103997886Y-90512201D01*
X103883309Y-90481500D01*
X103764691Y-90481500D01*
X103650114Y-90512201D01*
X103650112Y-90512201D01*
X103650112Y-90512202D01*
X103547387Y-90571511D01*
X103547384Y-90571513D01*
X103463513Y-90655384D01*
X103463511Y-90655387D01*
X103404201Y-90758114D01*
X103373500Y-90872691D01*
X103373500Y-90991309D01*
X103404201Y-91105886D01*
X103463511Y-91208613D01*
X103547387Y-91292489D01*
X103650114Y-91351799D01*
X103764691Y-91382500D01*
X103764694Y-91382500D01*
X103883306Y-91382500D01*
X103883309Y-91382500D01*
X103997886Y-91351799D01*
X104100613Y-91292489D01*
X104100620Y-91292481D01*
X104107059Y-91287542D01*
X104108762Y-91289761D01*
X104158142Y-91262798D01*
X104227834Y-91267782D01*
X104283767Y-91309654D01*
X104308184Y-91375118D01*
X104308500Y-91383964D01*
X104308500Y-92065620D01*
X104345025Y-92249243D01*
X104345027Y-92249251D01*
X104416676Y-92422228D01*
X104416681Y-92422237D01*
X104520697Y-92577907D01*
X104520700Y-92577911D01*
X104653088Y-92710299D01*
X104653092Y-92710302D01*
X104808762Y-92814318D01*
X104808768Y-92814321D01*
X104808769Y-92814322D01*
X104981749Y-92885973D01*
X105165379Y-92922499D01*
X105165383Y-92922500D01*
X105165384Y-92922500D01*
X105352617Y-92922500D01*
X105352618Y-92922499D01*
X105536251Y-92885973D01*
X105709231Y-92814322D01*
X105864908Y-92710302D01*
X105997302Y-92577908D01*
X106101322Y-92422231D01*
X106172973Y-92249251D01*
X106209500Y-92065616D01*
X106209500Y-90778384D01*
X106172973Y-90594749D01*
X106117554Y-90460956D01*
X106101323Y-90421771D01*
X106101318Y-90421762D01*
X105997302Y-90266092D01*
X105997299Y-90266088D01*
X105945819Y-90214608D01*
X105912334Y-90153285D01*
X105909500Y-90126927D01*
X105909500Y-88514872D01*
X140747500Y-88514872D01*
X140747500Y-88777127D01*
X140774123Y-88979339D01*
X140781730Y-89037116D01*
X140849602Y-89290418D01*
X140849605Y-89290428D01*
X140949953Y-89532690D01*
X140949958Y-89532700D01*
X141081075Y-89759803D01*
X141240718Y-89967851D01*
X141240726Y-89967860D01*
X141426140Y-90153274D01*
X141426148Y-90153281D01*
X141634196Y-90312924D01*
X141861299Y-90444041D01*
X141861309Y-90444046D01*
X142103571Y-90544394D01*
X142103581Y-90544398D01*
X142356884Y-90612270D01*
X142616880Y-90646500D01*
X142616887Y-90646500D01*
X142879113Y-90646500D01*
X142879120Y-90646500D01*
X143139116Y-90612270D01*
X143392419Y-90544398D01*
X143634697Y-90444043D01*
X143861803Y-90312924D01*
X144069851Y-90153282D01*
X144069855Y-90153277D01*
X144069860Y-90153274D01*
X144255274Y-89967860D01*
X144255277Y-89967855D01*
X144255282Y-89967851D01*
X144414924Y-89759803D01*
X144546043Y-89532697D01*
X144646398Y-89290419D01*
X144714270Y-89037116D01*
X144748500Y-88777120D01*
X144748500Y-88514880D01*
X144748499Y-88514872D01*
X146297500Y-88514872D01*
X146297500Y-88777127D01*
X146324123Y-88979339D01*
X146331730Y-89037116D01*
X146399602Y-89290418D01*
X146399605Y-89290428D01*
X146499953Y-89532690D01*
X146499958Y-89532700D01*
X146631075Y-89759803D01*
X146790718Y-89967851D01*
X146790726Y-89967860D01*
X146976140Y-90153274D01*
X146976148Y-90153281D01*
X147184196Y-90312924D01*
X147411299Y-90444041D01*
X147411309Y-90444046D01*
X147653571Y-90544394D01*
X147653581Y-90544398D01*
X147906884Y-90612270D01*
X148166880Y-90646500D01*
X148166887Y-90646500D01*
X148429113Y-90646500D01*
X148429120Y-90646500D01*
X148689116Y-90612270D01*
X148942419Y-90544398D01*
X149184697Y-90444043D01*
X149411803Y-90312924D01*
X149619851Y-90153282D01*
X149619855Y-90153277D01*
X149619860Y-90153274D01*
X149805274Y-89967860D01*
X149805277Y-89967855D01*
X149805282Y-89967851D01*
X149964924Y-89759803D01*
X150096043Y-89532697D01*
X150196398Y-89290419D01*
X150264270Y-89037116D01*
X150298500Y-88777120D01*
X150298500Y-88514880D01*
X150298499Y-88514872D01*
X160597500Y-88514872D01*
X160597500Y-88777127D01*
X160624123Y-88979339D01*
X160631730Y-89037116D01*
X160699602Y-89290418D01*
X160699605Y-89290428D01*
X160799953Y-89532690D01*
X160799958Y-89532700D01*
X160931075Y-89759803D01*
X161090718Y-89967851D01*
X161090726Y-89967860D01*
X161276140Y-90153274D01*
X161276148Y-90153281D01*
X161484196Y-90312924D01*
X161711299Y-90444041D01*
X161711309Y-90444046D01*
X161953571Y-90544394D01*
X161953581Y-90544398D01*
X162206884Y-90612270D01*
X162466880Y-90646500D01*
X162466887Y-90646500D01*
X162729113Y-90646500D01*
X162729120Y-90646500D01*
X162989116Y-90612270D01*
X163242419Y-90544398D01*
X163484697Y-90444043D01*
X163711803Y-90312924D01*
X163919851Y-90153282D01*
X163919855Y-90153277D01*
X163919860Y-90153274D01*
X164105274Y-89967860D01*
X164105277Y-89967855D01*
X164105282Y-89967851D01*
X164264924Y-89759803D01*
X164396043Y-89532697D01*
X164496398Y-89290419D01*
X164564270Y-89037116D01*
X164598500Y-88777120D01*
X164598500Y-88514880D01*
X164598499Y-88514872D01*
X166147500Y-88514872D01*
X166147500Y-88777127D01*
X166174123Y-88979339D01*
X166181730Y-89037116D01*
X166249602Y-89290418D01*
X166249605Y-89290428D01*
X166349953Y-89532690D01*
X166349958Y-89532700D01*
X166481075Y-89759803D01*
X166640718Y-89967851D01*
X166640726Y-89967860D01*
X166826140Y-90153274D01*
X166826148Y-90153281D01*
X167034196Y-90312924D01*
X167261299Y-90444041D01*
X167261309Y-90444046D01*
X167503571Y-90544394D01*
X167503581Y-90544398D01*
X167756884Y-90612270D01*
X168016880Y-90646500D01*
X168016887Y-90646500D01*
X168279113Y-90646500D01*
X168279120Y-90646500D01*
X168539116Y-90612270D01*
X168792419Y-90544398D01*
X169034697Y-90444043D01*
X169261803Y-90312924D01*
X169469851Y-90153282D01*
X169469855Y-90153277D01*
X169469860Y-90153274D01*
X169655274Y-89967860D01*
X169655277Y-89967855D01*
X169655282Y-89967851D01*
X169814924Y-89759803D01*
X169946043Y-89532697D01*
X170046398Y-89290419D01*
X170114270Y-89037116D01*
X170148500Y-88777120D01*
X170148500Y-88514880D01*
X170114270Y-88254884D01*
X170046398Y-88001581D01*
X170005390Y-87902579D01*
X169946046Y-87759309D01*
X169946041Y-87759299D01*
X169814924Y-87532196D01*
X169655281Y-87324148D01*
X169655274Y-87324140D01*
X169469860Y-87138726D01*
X169469851Y-87138718D01*
X169261803Y-86979075D01*
X169034700Y-86847958D01*
X169034690Y-86847953D01*
X168792428Y-86747605D01*
X168792421Y-86747603D01*
X168792419Y-86747602D01*
X168539116Y-86679730D01*
X168481339Y-86672123D01*
X168279127Y-86645500D01*
X168279120Y-86645500D01*
X168016880Y-86645500D01*
X168016872Y-86645500D01*
X167785772Y-86675926D01*
X167756884Y-86679730D01*
X167503581Y-86747602D01*
X167503571Y-86747605D01*
X167261309Y-86847953D01*
X167261299Y-86847958D01*
X167034196Y-86979075D01*
X166826148Y-87138718D01*
X166640718Y-87324148D01*
X166481075Y-87532196D01*
X166349958Y-87759299D01*
X166349953Y-87759309D01*
X166249605Y-88001571D01*
X166249602Y-88001581D01*
X166181730Y-88254884D01*
X166177926Y-88283772D01*
X166147500Y-88514872D01*
X164598499Y-88514872D01*
X164564270Y-88254884D01*
X164496398Y-88001581D01*
X164455390Y-87902579D01*
X164396046Y-87759309D01*
X164396041Y-87759299D01*
X164264924Y-87532196D01*
X164105281Y-87324148D01*
X164105274Y-87324140D01*
X163919860Y-87138726D01*
X163919851Y-87138718D01*
X163711803Y-86979075D01*
X163484700Y-86847958D01*
X163484690Y-86847953D01*
X163242428Y-86747605D01*
X163242421Y-86747603D01*
X163242419Y-86747602D01*
X162989116Y-86679730D01*
X162931339Y-86672123D01*
X162729127Y-86645500D01*
X162729120Y-86645500D01*
X162466880Y-86645500D01*
X162466872Y-86645500D01*
X162235772Y-86675926D01*
X162206884Y-86679730D01*
X161953581Y-86747602D01*
X161953571Y-86747605D01*
X161711309Y-86847953D01*
X161711299Y-86847958D01*
X161484196Y-86979075D01*
X161276148Y-87138718D01*
X161090718Y-87324148D01*
X160931075Y-87532196D01*
X160799958Y-87759299D01*
X160799953Y-87759309D01*
X160699605Y-88001571D01*
X160699602Y-88001581D01*
X160631730Y-88254884D01*
X160627926Y-88283772D01*
X160597500Y-88514872D01*
X150298499Y-88514872D01*
X150264270Y-88254884D01*
X150196398Y-88001581D01*
X150155390Y-87902579D01*
X150096046Y-87759309D01*
X150096041Y-87759299D01*
X149964924Y-87532196D01*
X149805281Y-87324148D01*
X149805274Y-87324140D01*
X149619860Y-87138726D01*
X149619851Y-87138718D01*
X149411803Y-86979075D01*
X149184700Y-86847958D01*
X149184690Y-86847953D01*
X148942428Y-86747605D01*
X148942421Y-86747603D01*
X148942419Y-86747602D01*
X148689116Y-86679730D01*
X148631339Y-86672123D01*
X148429127Y-86645500D01*
X148429120Y-86645500D01*
X148166880Y-86645500D01*
X148166872Y-86645500D01*
X147935772Y-86675926D01*
X147906884Y-86679730D01*
X147653581Y-86747602D01*
X147653571Y-86747605D01*
X147411309Y-86847953D01*
X147411299Y-86847958D01*
X147184196Y-86979075D01*
X146976148Y-87138718D01*
X146790718Y-87324148D01*
X146631075Y-87532196D01*
X146499958Y-87759299D01*
X146499953Y-87759309D01*
X146399605Y-88001571D01*
X146399602Y-88001581D01*
X146331730Y-88254884D01*
X146327926Y-88283772D01*
X146297500Y-88514872D01*
X144748499Y-88514872D01*
X144714270Y-88254884D01*
X144646398Y-88001581D01*
X144605390Y-87902579D01*
X144546046Y-87759309D01*
X144546041Y-87759299D01*
X144414924Y-87532196D01*
X144255281Y-87324148D01*
X144255274Y-87324140D01*
X144069860Y-87138726D01*
X144069851Y-87138718D01*
X143861803Y-86979075D01*
X143634700Y-86847958D01*
X143634690Y-86847953D01*
X143392428Y-86747605D01*
X143392421Y-86747603D01*
X143392419Y-86747602D01*
X143139116Y-86679730D01*
X143081339Y-86672123D01*
X142879127Y-86645500D01*
X142879120Y-86645500D01*
X142616880Y-86645500D01*
X142616872Y-86645500D01*
X142385772Y-86675926D01*
X142356884Y-86679730D01*
X142103581Y-86747602D01*
X142103571Y-86747605D01*
X141861309Y-86847953D01*
X141861299Y-86847958D01*
X141634196Y-86979075D01*
X141426148Y-87138718D01*
X141240718Y-87324148D01*
X141081075Y-87532196D01*
X140949958Y-87759299D01*
X140949953Y-87759309D01*
X140849605Y-88001571D01*
X140849602Y-88001581D01*
X140781730Y-88254884D01*
X140777926Y-88283772D01*
X140747500Y-88514872D01*
X105909500Y-88514872D01*
X105909500Y-88397072D01*
X105929185Y-88330033D01*
X105945820Y-88309390D01*
X105997299Y-88257911D01*
X105997302Y-88257908D01*
X106101322Y-88102231D01*
X106172973Y-87929251D01*
X106209500Y-87745616D01*
X106209500Y-86758384D01*
X106172973Y-86574749D01*
X106101322Y-86401769D01*
X106101321Y-86401768D01*
X106101318Y-86401762D01*
X105997302Y-86246092D01*
X105997299Y-86246088D01*
X105864911Y-86113700D01*
X105864907Y-86113697D01*
X105709237Y-86009681D01*
X105709228Y-86009676D01*
X105536251Y-85938027D01*
X105536243Y-85938025D01*
X105352620Y-85901500D01*
X105352616Y-85901500D01*
X105165384Y-85901500D01*
X105165379Y-85901500D01*
X104981756Y-85938025D01*
X104981748Y-85938027D01*
X104808771Y-86009676D01*
X104808762Y-86009681D01*
X104653092Y-86113697D01*
X104653088Y-86113700D01*
X104520700Y-86246088D01*
X104520697Y-86246092D01*
X104416681Y-86401762D01*
X104416676Y-86401772D01*
X104365653Y-86524953D01*
X104321812Y-86579356D01*
X104255518Y-86601421D01*
X104251092Y-86601500D01*
X97616908Y-86601500D01*
X97549869Y-86581815D01*
X97504114Y-86529011D01*
X97502347Y-86524953D01*
X97451323Y-86401772D01*
X97451323Y-86401771D01*
X97451322Y-86401769D01*
X97451320Y-86401766D01*
X97451318Y-86401762D01*
X97347302Y-86246092D01*
X97347299Y-86246088D01*
X97214911Y-86113700D01*
X97214907Y-86113697D01*
X97059237Y-86009681D01*
X97059228Y-86009676D01*
X96886251Y-85938027D01*
X96886243Y-85938025D01*
X96702620Y-85901500D01*
X96702616Y-85901500D01*
X96515384Y-85901500D01*
X96515379Y-85901500D01*
X96331756Y-85938025D01*
X96331748Y-85938027D01*
X96158771Y-86009676D01*
X96158762Y-86009681D01*
X96003092Y-86113697D01*
X96003088Y-86113700D01*
X95870700Y-86246088D01*
X95870697Y-86246092D01*
X95766681Y-86401762D01*
X95766676Y-86401771D01*
X95695027Y-86574748D01*
X95695025Y-86574756D01*
X95658500Y-86758379D01*
X94488000Y-86758379D01*
X94488000Y-84452000D01*
X94507685Y-84384961D01*
X94560489Y-84339206D01*
X94612000Y-84328000D01*
X172088000Y-84328000D01*
X172155039Y-84347685D01*
G37*
%TD.AperFunction*%
%TA.AperFunction,Conductor*%
G36*
X143031495Y-131802963D02*
G01*
X143057050Y-131816041D01*
X143132873Y-131866704D01*
X143171629Y-131882757D01*
X143172756Y-131883251D01*
X143176020Y-131885993D01*
X143210672Y-131909146D01*
X146683181Y-135381655D01*
X146716666Y-135442978D01*
X146719500Y-135469336D01*
X146719500Y-135874281D01*
X146699815Y-135941320D01*
X146651795Y-135984765D01*
X146612185Y-136004947D01*
X146612184Y-136004948D01*
X146440213Y-136129890D01*
X146289890Y-136280213D01*
X146164949Y-136452182D01*
X146160484Y-136460946D01*
X146112509Y-136511742D01*
X146044688Y-136528536D01*
X145978553Y-136505998D01*
X145939516Y-136460946D01*
X145935050Y-136452182D01*
X145810109Y-136280213D01*
X145659786Y-136129890D01*
X145487820Y-136004951D01*
X145298414Y-135908444D01*
X145298413Y-135908443D01*
X145298412Y-135908443D01*
X145096243Y-135842754D01*
X145096241Y-135842753D01*
X145096240Y-135842753D01*
X144934957Y-135817208D01*
X144886287Y-135809500D01*
X144673713Y-135809500D01*
X144563888Y-135826894D01*
X144458945Y-135843516D01*
X144458686Y-135841882D01*
X144396094Y-135838730D01*
X144349288Y-135809342D01*
X141723626Y-133183680D01*
X141690141Y-133122357D01*
X141695125Y-133052665D01*
X141723622Y-133008323D01*
X142900482Y-131831462D01*
X142961803Y-131797979D01*
X143031495Y-131802963D01*
G37*
%TD.AperFunction*%
%TD*%
M02*
