M48
; DRILL file {KiCad 9.0.0} date 2025-03-28T11:23:17+0200
; FORMAT={-:-/ absolute / inch / decimal}
; #@! TF.CreationDate,2025-03-28T11:23:17+02:00
; #@! TF.GenerationSoftware,Kicad,Pcbnew,9.0.0
; #@! TF.FileFunction,Plated,1,2,PTH
FMAT,2
INCH
; #@! TA.AperFunction,Plated,PTH,ComponentDrill
T1C0.0080
; #@! TA.AperFunction,Plated,PTH,ViaDrill
T2C0.0118
; #@! TA.AperFunction,Plated,PTH,ComponentDrill
T3C0.0236
; #@! TA.AperFunction,Plated,PTH,ComponentDrill
T4C0.0276
; #@! TA.AperFunction,Plated,PTH,ComponentDrill
T5C0.0295
; #@! TA.AperFunction,Plated,PTH,ComponentDrill
T6C0.0315
; #@! TA.AperFunction,Plated,PTH,ComponentDrill
T7C0.0394
; #@! TA.AperFunction,Plated,PTH,ComponentDrill
T8C0.0591
; #@! TA.AperFunction,Plated,PTH,ComponentDrill
T9C0.1260
%
G90
G05
T1
X4.4774Y-4.8213
X4.4774Y-4.8508
X4.4774Y-4.8803
X6.1574Y-4.8006
X6.1574Y-4.8302
X6.1574Y-4.8597
T2
X3.9544Y-3.747
X4.0486Y-3.7144
X4.32Y-5.38
X4.42Y-5.38
X4.58Y-3.58
X4.715Y-5.31
X4.72Y-3.86
X4.735Y-4.725
X4.7885Y-3.6715
X4.81Y-4.58
X4.8147Y-4.9259
X4.825Y-3.99
X4.9018Y-5.21
X4.94Y-4.48
X5.0088Y-4.7
X5.0344Y-4.82
X5.06Y-5.3636
X5.1Y-5.34
X5.14Y-4.52
X5.2729Y-5.28
X5.36Y-4.82
X5.47Y-4.5
X5.5Y-4.9856
X5.6744Y-5.29
X5.68Y-4.44
X5.7276Y-5.29
X5.93Y-5.01
X5.96Y-4.78
X5.96Y-4.82
X5.96Y-5.2
X5.9623Y-4.8538
X5.9633Y-4.889
X5.97Y-5.12
X6.14Y-4.72
X6.1483Y-4.7617
X6.18Y-4.68
X6.22Y-4.1
X6.26Y-4.46
X6.32Y-5.04
X6.42Y-3.94
T5
X4.3Y-4.1713
X4.3Y-4.25
T6
X5.2625Y-4.68
X5.3413Y-4.68
X5.42Y-4.68
X5.44Y-4.12
X5.84Y-4.12
X6.34Y-3.92
X6.74Y-3.92
T7
X4.5Y-5.4
X4.5Y-5.5
X4.6Y-5.4
X4.6Y-5.5
X4.7Y-5.4
X4.7Y-5.5
X4.8Y-5.4
X4.8Y-5.5
X4.9Y-5.4
X4.9Y-5.5
X5.0Y-5.4
X5.0Y-5.5
X5.1Y-5.4
X5.1Y-5.5
X5.2Y-5.4
X5.2Y-5.5
X5.3Y-5.4
X5.3Y-5.5
X5.4Y-5.4
X5.4Y-5.5
X5.5Y-5.4
X5.5Y-5.5
X5.6Y-5.4
X5.6Y-5.5
X5.7Y-5.4
X5.7Y-5.5
X5.8Y-5.4
X5.8Y-5.5
X5.9Y-5.4
X5.9Y-5.5
X6.0Y-5.4
X6.0Y-5.5
T8
X5.62Y-3.49
X5.8385Y-3.49
X6.4015Y-3.49
X6.62Y-3.49
T9
X5.25Y-4.025
T3
G00X3.8035Y-3.4509
M15
G01X3.8035Y-3.4194
M16
G05
G00X3.8035Y-3.6209
M15
G01X3.8035Y-3.5776
M16
G05
G00X4.1441Y-3.4509
M15
G01X4.1441Y-3.4194
M16
G05
G00X4.1441Y-3.6209
M15
G01X4.1441Y-3.5776
M16
G05
T4
G00X5.1759Y-4.6643
M15
G01X5.1759Y-4.6957
M16
G05
G00X5.5066Y-4.6643
M15
G01X5.5066Y-4.6957
M16
G05
M30
