%TF.GenerationSoftware,KiCad,Pcbnew,9.0.0*%
%TF.CreationDate,2025-03-28T11:23:17+02:00*%
%TF.ProjectId,PCBDesign1,50434244-6573-4696-976e-312e6b696361,rev?*%
%TF.SameCoordinates,Original*%
%TF.FileFunction,Legend,Bot*%
%TF.FilePolarity,Positive*%
%FSLAX46Y46*%
G04 Gerber Fmt 4.6, Leading zero omitted, Abs format (unit mm)*
G04 Created by KiCad (PCBNEW 9.0.0) date 2025-03-28 11:23:17*
%MOMM*%
%LPD*%
G01*
G04 APERTURE LIST*
G04 Aperture macros list*
%AMRoundRect*
0 Rectangle with rounded corners*
0 $1 Rounding radius*
0 $2 $3 $4 $5 $6 $7 $8 $9 X,Y pos of 4 corners*
0 Add a 4 corners polygon primitive as box body*
4,1,4,$2,$3,$4,$5,$6,$7,$8,$9,$2,$3,0*
0 Add four circle primitives for the rounded corners*
1,1,$1+$1,$2,$3*
1,1,$1+$1,$4,$5*
1,1,$1+$1,$6,$7*
1,1,$1+$1,$8,$9*
0 Add four rect primitives between the rounded corners*
20,1,$1+$1,$2,$3,$4,$5,0*
20,1,$1+$1,$4,$5,$6,$7,0*
20,1,$1+$1,$6,$7,$8,$9,0*
20,1,$1+$1,$8,$9,$2,$3,0*%
G04 Aperture macros list end*
%ADD10R,1.700000X1.700000*%
%ADD11O,1.700000X1.700000*%
%ADD12C,0.499999*%
%ADD13C,1.600000*%
%ADD14O,1.600000X1.600000*%
%ADD15RoundRect,0.250000X-0.625000X0.350000X-0.625000X-0.350000X0.625000X-0.350000X0.625000X0.350000X0*%
%ADD16O,1.750000X1.200000*%
%ADD17C,3.000000*%
%ADD18O,3.000000X3.000000*%
%ADD19C,3.600000*%
%ADD20C,5.500000*%
%ADD21R,1.308000X1.308000*%
%ADD22C,1.308000*%
%ADD23O,1.230000X2.460000*%
%ADD24C,0.600000*%
%ADD25O,0.900000X2.000000*%
%ADD26O,0.900000X1.700000*%
G04 APERTURE END LIST*
%LPC*%
D10*
%TO.C,J2*%
X152400000Y-137160000D03*
D11*
X152400000Y-139700000D03*
X149860000Y-137160000D03*
X149860000Y-139700000D03*
X147320000Y-137160000D03*
X147320000Y-139700000D03*
X144780000Y-137160000D03*
X144780000Y-139700000D03*
X142240000Y-137160000D03*
X142240000Y-139700000D03*
X139700000Y-137160000D03*
X139700000Y-139700000D03*
X137160000Y-137160000D03*
X137160000Y-139700000D03*
X134620000Y-137160000D03*
X134620000Y-139700000D03*
X132080000Y-137160000D03*
X132080000Y-139700000D03*
X129540000Y-137160000D03*
X129540000Y-139700000D03*
X127000000Y-137160000D03*
X127000000Y-139700000D03*
X124460000Y-137160000D03*
X124460000Y-139700000D03*
X121920000Y-137160000D03*
X121920000Y-139700000D03*
X119380000Y-137160000D03*
X119380000Y-139700000D03*
X116840000Y-137160000D03*
X116840000Y-139700000D03*
X114300000Y-137160000D03*
X114300000Y-139700000D03*
%TD*%
D12*
%TO.C,U5*%
X113725998Y-122459999D03*
X113725998Y-123210000D03*
X113725998Y-123960001D03*
%TD*%
D13*
%TO.C,L1*%
X138176000Y-104648000D03*
D14*
X148336000Y-104648000D03*
%TD*%
D15*
%TO.C,J3*%
X109220000Y-105950000D03*
D16*
X109220000Y-107950000D03*
%TD*%
D12*
%TO.C,U6*%
X156398004Y-123436001D03*
X156398004Y-122686000D03*
X156398004Y-121935999D03*
%TD*%
D17*
%TO.C,R15*%
X142748000Y-88646000D03*
D18*
X148298000Y-88646000D03*
X162598000Y-88646000D03*
X168148000Y-88646000D03*
%TD*%
D19*
%TO.C,H2*%
X133350000Y-102235000D03*
D20*
X133350000Y-102235000D03*
%TD*%
D21*
%TO.C,S1*%
X133668000Y-118872000D03*
D22*
X135668000Y-118872000D03*
X137668000Y-118872000D03*
D23*
X131468000Y-118872000D03*
X139868000Y-118872000D03*
%TD*%
D24*
%TO.C,J4*%
X103824000Y-90932000D03*
X98044000Y-90932000D03*
D25*
X105259000Y-91422000D03*
X96609000Y-91422000D03*
D26*
X105259000Y-87252000D03*
X96609000Y-87252000D03*
%TD*%
D13*
%TO.C,L2*%
X161036000Y-99568000D03*
D14*
X171196000Y-99568000D03*
%TD*%
%LPD*%
M02*
