%TF.GenerationSoftware,KiCad,Pcbnew,9.0.0*%
%TF.CreationDate,2025-03-28T11:23:17+02:00*%
%TF.ProjectId,PCBDesign1,50434244-6573-4696-976e-312e6b696361,rev?*%
%TF.SameCoordinates,Original*%
%TF.FileFunction,Legend,Top*%
%TF.FilePolarity,Positive*%
%FSLAX46Y46*%
G04 Gerber Fmt 4.6, Leading zero omitted, Abs format (unit mm)*
G04 Created by KiCad (PCBNEW 9.0.0) date 2025-03-28 11:23:17*
%MOMM*%
%LPD*%
G01*
G04 APERTURE LIST*
G04 Aperture macros list*
%AMRoundRect*
0 Rectangle with rounded corners*
0 $1 Rounding radius*
0 $2 $3 $4 $5 $6 $7 $8 $9 X,Y pos of 4 corners*
0 Add a 4 corners polygon primitive as box body*
4,1,4,$2,$3,$4,$5,$6,$7,$8,$9,$2,$3,0*
0 Add four circle primitives for the rounded corners*
1,1,$1+$1,$2,$3*
1,1,$1+$1,$4,$5*
1,1,$1+$1,$6,$7*
1,1,$1+$1,$8,$9*
0 Add four rect primitives between the rounded corners*
20,1,$1+$1,$2,$3,$4,$5,0*
20,1,$1+$1,$4,$5,$6,$7,0*
20,1,$1+$1,$6,$7,$8,$9,0*
20,1,$1+$1,$8,$9,$2,$3,0*%
G04 Aperture macros list end*
%ADD10C,0.150000*%
%ADD11C,0.120000*%
%ADD12C,0.127000*%
%ADD13C,0.200000*%
%ADD14C,0.010000*%
%ADD15RoundRect,0.250000X-0.475000X0.337500X-0.475000X-0.337500X0.475000X-0.337500X0.475000X0.337500X0*%
%ADD16RoundRect,0.062500X0.062500X-0.375000X0.062500X0.375000X-0.062500X0.375000X-0.062500X-0.375000X0*%
%ADD17RoundRect,0.062500X0.375000X-0.062500X0.375000X0.062500X-0.375000X0.062500X-0.375000X-0.062500X0*%
%ADD18R,1.600000X1.600000*%
%ADD19RoundRect,0.160000X-0.160000X0.197500X-0.160000X-0.197500X0.160000X-0.197500X0.160000X0.197500X0*%
%ADD20C,2.000000*%
%ADD21RoundRect,0.249999X-0.512501X-1.425001X0.512501X-1.425001X0.512501X1.425001X-0.512501X1.425001X0*%
%ADD22RoundRect,0.150000X0.587500X0.150000X-0.587500X0.150000X-0.587500X-0.150000X0.587500X-0.150000X0*%
%ADD23RoundRect,0.160000X0.160000X-0.197500X0.160000X0.197500X-0.160000X0.197500X-0.160000X-0.197500X0*%
%ADD24R,1.700000X1.700000*%
%ADD25O,1.700000X1.700000*%
%ADD26R,1.500000X1.000000*%
%ADD27RoundRect,0.098000X-0.609000X-0.294000X0.609000X-0.294000X0.609000X0.294000X-0.609000X0.294000X0*%
%ADD28R,0.499999X0.249999*%
%ADD29R,0.900001X2.000001*%
%ADD30C,0.499999*%
%ADD31RoundRect,0.250000X-0.337500X-0.475000X0.337500X-0.475000X0.337500X0.475000X-0.337500X0.475000X0*%
%ADD32C,1.600000*%
%ADD33O,1.600000X1.600000*%
%ADD34RoundRect,0.125000X-0.125000X0.537500X-0.125000X-0.537500X0.125000X-0.537500X0.125000X0.537500X0*%
%ADD35RoundRect,0.150000X-0.512500X-0.150000X0.512500X-0.150000X0.512500X0.150000X-0.512500X0.150000X0*%
%ADD36RoundRect,0.150000X-0.150000X0.687500X-0.150000X-0.687500X0.150000X-0.687500X0.150000X0.687500X0*%
%ADD37R,3.300000X2.100000*%
%ADD38RoundRect,0.250000X0.475000X-0.337500X0.475000X0.337500X-0.475000X0.337500X-0.475000X-0.337500X0*%
%ADD39RoundRect,0.250000X-0.625000X0.350000X-0.625000X-0.350000X0.625000X-0.350000X0.625000X0.350000X0*%
%ADD40O,1.750000X1.200000*%
%ADD41RoundRect,0.249999X1.425001X-0.512501X1.425001X0.512501X-1.425001X0.512501X-1.425001X-0.512501X0*%
%ADD42RoundRect,0.249999X0.512501X1.425001X-0.512501X1.425001X-0.512501X-1.425001X0.512501X-1.425001X0*%
%ADD43RoundRect,0.160000X-0.197500X-0.160000X0.197500X-0.160000X0.197500X0.160000X-0.197500X0.160000X0*%
%ADD44RoundRect,0.249999X-1.425001X0.512501X-1.425001X-0.512501X1.425001X-0.512501X1.425001X0.512501X0*%
%ADD45RoundRect,0.160000X0.197500X0.160000X-0.197500X0.160000X-0.197500X-0.160000X0.197500X-0.160000X0*%
%ADD46RoundRect,0.150000X0.512500X0.150000X-0.512500X0.150000X-0.512500X-0.150000X0.512500X-0.150000X0*%
%ADD47C,3.000000*%
%ADD48O,3.000000X3.000000*%
%ADD49C,3.600000*%
%ADD50C,5.500000*%
%ADD51RoundRect,0.102000X-0.654000X-0.654000X0.654000X-0.654000X0.654000X0.654000X-0.654000X0.654000X0*%
%ADD52C,1.512000*%
%ADD53O,1.434000X2.664000*%
%ADD54C,0.600000*%
%ADD55O,1.104000X2.204000*%
%ADD56O,1.104000X1.904000*%
%ADD57RoundRect,0.250000X0.337500X0.475000X-0.337500X0.475000X-0.337500X-0.475000X0.337500X-0.475000X0*%
G04 APERTURE END LIST*
D10*
X99067580Y-96178666D02*
X99115200Y-96226285D01*
X99115200Y-96226285D02*
X99162819Y-96369142D01*
X99162819Y-96369142D02*
X99162819Y-96464380D01*
X99162819Y-96464380D02*
X99115200Y-96607237D01*
X99115200Y-96607237D02*
X99019961Y-96702475D01*
X99019961Y-96702475D02*
X98924723Y-96750094D01*
X98924723Y-96750094D02*
X98734247Y-96797713D01*
X98734247Y-96797713D02*
X98591390Y-96797713D01*
X98591390Y-96797713D02*
X98400914Y-96750094D01*
X98400914Y-96750094D02*
X98305676Y-96702475D01*
X98305676Y-96702475D02*
X98210438Y-96607237D01*
X98210438Y-96607237D02*
X98162819Y-96464380D01*
X98162819Y-96464380D02*
X98162819Y-96369142D01*
X98162819Y-96369142D02*
X98210438Y-96226285D01*
X98210438Y-96226285D02*
X98258057Y-96178666D01*
X98162819Y-95845332D02*
X98162819Y-95226285D01*
X98162819Y-95226285D02*
X98543771Y-95559618D01*
X98543771Y-95559618D02*
X98543771Y-95416761D01*
X98543771Y-95416761D02*
X98591390Y-95321523D01*
X98591390Y-95321523D02*
X98639009Y-95273904D01*
X98639009Y-95273904D02*
X98734247Y-95226285D01*
X98734247Y-95226285D02*
X98972342Y-95226285D01*
X98972342Y-95226285D02*
X99067580Y-95273904D01*
X99067580Y-95273904D02*
X99115200Y-95321523D01*
X99115200Y-95321523D02*
X99162819Y-95416761D01*
X99162819Y-95416761D02*
X99162819Y-95702475D01*
X99162819Y-95702475D02*
X99115200Y-95797713D01*
X99115200Y-95797713D02*
X99067580Y-95845332D01*
X119634095Y-87338819D02*
X119634095Y-88148342D01*
X119634095Y-88148342D02*
X119681714Y-88243580D01*
X119681714Y-88243580D02*
X119729333Y-88291200D01*
X119729333Y-88291200D02*
X119824571Y-88338819D01*
X119824571Y-88338819D02*
X120015047Y-88338819D01*
X120015047Y-88338819D02*
X120110285Y-88291200D01*
X120110285Y-88291200D02*
X120157904Y-88243580D01*
X120157904Y-88243580D02*
X120205523Y-88148342D01*
X120205523Y-88148342D02*
X120205523Y-87338819D01*
X120634095Y-87434057D02*
X120681714Y-87386438D01*
X120681714Y-87386438D02*
X120776952Y-87338819D01*
X120776952Y-87338819D02*
X121015047Y-87338819D01*
X121015047Y-87338819D02*
X121110285Y-87386438D01*
X121110285Y-87386438D02*
X121157904Y-87434057D01*
X121157904Y-87434057D02*
X121205523Y-87529295D01*
X121205523Y-87529295D02*
X121205523Y-87624533D01*
X121205523Y-87624533D02*
X121157904Y-87767390D01*
X121157904Y-87767390D02*
X120586476Y-88338819D01*
X120586476Y-88338819D02*
X121205523Y-88338819D01*
X160027580Y-129166857D02*
X160075200Y-129214476D01*
X160075200Y-129214476D02*
X160122819Y-129357333D01*
X160122819Y-129357333D02*
X160122819Y-129452571D01*
X160122819Y-129452571D02*
X160075200Y-129595428D01*
X160075200Y-129595428D02*
X159979961Y-129690666D01*
X159979961Y-129690666D02*
X159884723Y-129738285D01*
X159884723Y-129738285D02*
X159694247Y-129785904D01*
X159694247Y-129785904D02*
X159551390Y-129785904D01*
X159551390Y-129785904D02*
X159360914Y-129738285D01*
X159360914Y-129738285D02*
X159265676Y-129690666D01*
X159265676Y-129690666D02*
X159170438Y-129595428D01*
X159170438Y-129595428D02*
X159122819Y-129452571D01*
X159122819Y-129452571D02*
X159122819Y-129357333D01*
X159122819Y-129357333D02*
X159170438Y-129214476D01*
X159170438Y-129214476D02*
X159218057Y-129166857D01*
X160122819Y-128214476D02*
X160122819Y-128785904D01*
X160122819Y-128500190D02*
X159122819Y-128500190D01*
X159122819Y-128500190D02*
X159265676Y-128595428D01*
X159265676Y-128595428D02*
X159360914Y-128690666D01*
X159360914Y-128690666D02*
X159408533Y-128785904D01*
X159218057Y-127833523D02*
X159170438Y-127785904D01*
X159170438Y-127785904D02*
X159122819Y-127690666D01*
X159122819Y-127690666D02*
X159122819Y-127452571D01*
X159122819Y-127452571D02*
X159170438Y-127357333D01*
X159170438Y-127357333D02*
X159218057Y-127309714D01*
X159218057Y-127309714D02*
X159313295Y-127262095D01*
X159313295Y-127262095D02*
X159408533Y-127262095D01*
X159408533Y-127262095D02*
X159551390Y-127309714D01*
X159551390Y-127309714D02*
X160122819Y-127881142D01*
X160122819Y-127881142D02*
X160122819Y-127262095D01*
X145234819Y-113418857D02*
X144758628Y-113752190D01*
X145234819Y-113990285D02*
X144234819Y-113990285D01*
X144234819Y-113990285D02*
X144234819Y-113609333D01*
X144234819Y-113609333D02*
X144282438Y-113514095D01*
X144282438Y-113514095D02*
X144330057Y-113466476D01*
X144330057Y-113466476D02*
X144425295Y-113418857D01*
X144425295Y-113418857D02*
X144568152Y-113418857D01*
X144568152Y-113418857D02*
X144663390Y-113466476D01*
X144663390Y-113466476D02*
X144711009Y-113514095D01*
X144711009Y-113514095D02*
X144758628Y-113609333D01*
X144758628Y-113609333D02*
X144758628Y-113990285D01*
X145234819Y-112466476D02*
X145234819Y-113037904D01*
X145234819Y-112752190D02*
X144234819Y-112752190D01*
X144234819Y-112752190D02*
X144377676Y-112847428D01*
X144377676Y-112847428D02*
X144472914Y-112942666D01*
X144472914Y-112942666D02*
X144520533Y-113037904D01*
X144234819Y-112133142D02*
X144234819Y-111514095D01*
X144234819Y-111514095D02*
X144615771Y-111847428D01*
X144615771Y-111847428D02*
X144615771Y-111704571D01*
X144615771Y-111704571D02*
X144663390Y-111609333D01*
X144663390Y-111609333D02*
X144711009Y-111561714D01*
X144711009Y-111561714D02*
X144806247Y-111514095D01*
X144806247Y-111514095D02*
X145044342Y-111514095D01*
X145044342Y-111514095D02*
X145139580Y-111561714D01*
X145139580Y-111561714D02*
X145187200Y-111609333D01*
X145187200Y-111609333D02*
X145234819Y-111704571D01*
X145234819Y-111704571D02*
X145234819Y-111990285D01*
X145234819Y-111990285D02*
X145187200Y-112085523D01*
X145187200Y-112085523D02*
X145139580Y-112133142D01*
X158789905Y-123406819D02*
X159361333Y-123406819D01*
X159075619Y-124406819D02*
X159075619Y-123406819D01*
X159694667Y-124406819D02*
X159694667Y-123406819D01*
X159694667Y-123406819D02*
X160075619Y-123406819D01*
X160075619Y-123406819D02*
X160170857Y-123454438D01*
X160170857Y-123454438D02*
X160218476Y-123502057D01*
X160218476Y-123502057D02*
X160266095Y-123597295D01*
X160266095Y-123597295D02*
X160266095Y-123740152D01*
X160266095Y-123740152D02*
X160218476Y-123835390D01*
X160218476Y-123835390D02*
X160170857Y-123883009D01*
X160170857Y-123883009D02*
X160075619Y-123930628D01*
X160075619Y-123930628D02*
X159694667Y-123930628D01*
X161218476Y-124406819D02*
X160647048Y-124406819D01*
X160932762Y-124406819D02*
X160932762Y-123406819D01*
X160932762Y-123406819D02*
X160837524Y-123549676D01*
X160837524Y-123549676D02*
X160742286Y-123644914D01*
X160742286Y-123644914D02*
X160647048Y-123692533D01*
X161789905Y-123835390D02*
X161694667Y-123787771D01*
X161694667Y-123787771D02*
X161647048Y-123740152D01*
X161647048Y-123740152D02*
X161599429Y-123644914D01*
X161599429Y-123644914D02*
X161599429Y-123597295D01*
X161599429Y-123597295D02*
X161647048Y-123502057D01*
X161647048Y-123502057D02*
X161694667Y-123454438D01*
X161694667Y-123454438D02*
X161789905Y-123406819D01*
X161789905Y-123406819D02*
X161980381Y-123406819D01*
X161980381Y-123406819D02*
X162075619Y-123454438D01*
X162075619Y-123454438D02*
X162123238Y-123502057D01*
X162123238Y-123502057D02*
X162170857Y-123597295D01*
X162170857Y-123597295D02*
X162170857Y-123644914D01*
X162170857Y-123644914D02*
X162123238Y-123740152D01*
X162123238Y-123740152D02*
X162075619Y-123787771D01*
X162075619Y-123787771D02*
X161980381Y-123835390D01*
X161980381Y-123835390D02*
X161789905Y-123835390D01*
X161789905Y-123835390D02*
X161694667Y-123883009D01*
X161694667Y-123883009D02*
X161647048Y-123930628D01*
X161647048Y-123930628D02*
X161599429Y-124025866D01*
X161599429Y-124025866D02*
X161599429Y-124216342D01*
X161599429Y-124216342D02*
X161647048Y-124311580D01*
X161647048Y-124311580D02*
X161694667Y-124359200D01*
X161694667Y-124359200D02*
X161789905Y-124406819D01*
X161789905Y-124406819D02*
X161980381Y-124406819D01*
X161980381Y-124406819D02*
X162075619Y-124359200D01*
X162075619Y-124359200D02*
X162123238Y-124311580D01*
X162123238Y-124311580D02*
X162170857Y-124216342D01*
X162170857Y-124216342D02*
X162170857Y-124025866D01*
X162170857Y-124025866D02*
X162123238Y-123930628D01*
X162123238Y-123930628D02*
X162075619Y-123883009D01*
X162075619Y-123883009D02*
X161980381Y-123835390D01*
X118737142Y-98911580D02*
X118689523Y-98959200D01*
X118689523Y-98959200D02*
X118546666Y-99006819D01*
X118546666Y-99006819D02*
X118451428Y-99006819D01*
X118451428Y-99006819D02*
X118308571Y-98959200D01*
X118308571Y-98959200D02*
X118213333Y-98863961D01*
X118213333Y-98863961D02*
X118165714Y-98768723D01*
X118165714Y-98768723D02*
X118118095Y-98578247D01*
X118118095Y-98578247D02*
X118118095Y-98435390D01*
X118118095Y-98435390D02*
X118165714Y-98244914D01*
X118165714Y-98244914D02*
X118213333Y-98149676D01*
X118213333Y-98149676D02*
X118308571Y-98054438D01*
X118308571Y-98054438D02*
X118451428Y-98006819D01*
X118451428Y-98006819D02*
X118546666Y-98006819D01*
X118546666Y-98006819D02*
X118689523Y-98054438D01*
X118689523Y-98054438D02*
X118737142Y-98102057D01*
X119689523Y-99006819D02*
X119118095Y-99006819D01*
X119403809Y-99006819D02*
X119403809Y-98006819D01*
X119403809Y-98006819D02*
X119308571Y-98149676D01*
X119308571Y-98149676D02*
X119213333Y-98244914D01*
X119213333Y-98244914D02*
X119118095Y-98292533D01*
X120546666Y-98340152D02*
X120546666Y-99006819D01*
X120308571Y-97959200D02*
X120070476Y-98673485D01*
X120070476Y-98673485D02*
X120689523Y-98673485D01*
X155725905Y-115182819D02*
X155725905Y-114182819D01*
X155725905Y-114182819D02*
X155964000Y-114182819D01*
X155964000Y-114182819D02*
X156106857Y-114230438D01*
X156106857Y-114230438D02*
X156202095Y-114325676D01*
X156202095Y-114325676D02*
X156249714Y-114420914D01*
X156249714Y-114420914D02*
X156297333Y-114611390D01*
X156297333Y-114611390D02*
X156297333Y-114754247D01*
X156297333Y-114754247D02*
X156249714Y-114944723D01*
X156249714Y-114944723D02*
X156202095Y-115039961D01*
X156202095Y-115039961D02*
X156106857Y-115135200D01*
X156106857Y-115135200D02*
X155964000Y-115182819D01*
X155964000Y-115182819D02*
X155725905Y-115182819D01*
X156630667Y-114182819D02*
X157297333Y-114182819D01*
X157297333Y-114182819D02*
X156868762Y-115182819D01*
X117682261Y-100994057D02*
X117587023Y-100946438D01*
X117587023Y-100946438D02*
X117491785Y-100851200D01*
X117491785Y-100851200D02*
X117348928Y-100708342D01*
X117348928Y-100708342D02*
X117253690Y-100660723D01*
X117253690Y-100660723D02*
X117158452Y-100660723D01*
X117206071Y-100898819D02*
X117110833Y-100851200D01*
X117110833Y-100851200D02*
X117015595Y-100755961D01*
X117015595Y-100755961D02*
X116967976Y-100565485D01*
X116967976Y-100565485D02*
X116967976Y-100232152D01*
X116967976Y-100232152D02*
X117015595Y-100041676D01*
X117015595Y-100041676D02*
X117110833Y-99946438D01*
X117110833Y-99946438D02*
X117206071Y-99898819D01*
X117206071Y-99898819D02*
X117396547Y-99898819D01*
X117396547Y-99898819D02*
X117491785Y-99946438D01*
X117491785Y-99946438D02*
X117587023Y-100041676D01*
X117587023Y-100041676D02*
X117634642Y-100232152D01*
X117634642Y-100232152D02*
X117634642Y-100565485D01*
X117634642Y-100565485D02*
X117587023Y-100755961D01*
X117587023Y-100755961D02*
X117491785Y-100851200D01*
X117491785Y-100851200D02*
X117396547Y-100898819D01*
X117396547Y-100898819D02*
X117206071Y-100898819D01*
X118587023Y-100898819D02*
X118015595Y-100898819D01*
X118301309Y-100898819D02*
X118301309Y-99898819D01*
X118301309Y-99898819D02*
X118206071Y-100041676D01*
X118206071Y-100041676D02*
X118110833Y-100136914D01*
X118110833Y-100136914D02*
X118015595Y-100184533D01*
X167933905Y-108200819D02*
X168505333Y-108200819D01*
X168219619Y-109200819D02*
X168219619Y-108200819D01*
X168838667Y-109200819D02*
X168838667Y-108200819D01*
X168838667Y-108200819D02*
X169219619Y-108200819D01*
X169219619Y-108200819D02*
X169314857Y-108248438D01*
X169314857Y-108248438D02*
X169362476Y-108296057D01*
X169362476Y-108296057D02*
X169410095Y-108391295D01*
X169410095Y-108391295D02*
X169410095Y-108534152D01*
X169410095Y-108534152D02*
X169362476Y-108629390D01*
X169362476Y-108629390D02*
X169314857Y-108677009D01*
X169314857Y-108677009D02*
X169219619Y-108724628D01*
X169219619Y-108724628D02*
X168838667Y-108724628D01*
X170362476Y-109200819D02*
X169791048Y-109200819D01*
X170076762Y-109200819D02*
X170076762Y-108200819D01*
X170076762Y-108200819D02*
X169981524Y-108343676D01*
X169981524Y-108343676D02*
X169886286Y-108438914D01*
X169886286Y-108438914D02*
X169791048Y-108486533D01*
X170981524Y-108200819D02*
X171076762Y-108200819D01*
X171076762Y-108200819D02*
X171172000Y-108248438D01*
X171172000Y-108248438D02*
X171219619Y-108296057D01*
X171219619Y-108296057D02*
X171267238Y-108391295D01*
X171267238Y-108391295D02*
X171314857Y-108581771D01*
X171314857Y-108581771D02*
X171314857Y-108819866D01*
X171314857Y-108819866D02*
X171267238Y-109010342D01*
X171267238Y-109010342D02*
X171219619Y-109105580D01*
X171219619Y-109105580D02*
X171172000Y-109153200D01*
X171172000Y-109153200D02*
X171076762Y-109200819D01*
X171076762Y-109200819D02*
X170981524Y-109200819D01*
X170981524Y-109200819D02*
X170886286Y-109153200D01*
X170886286Y-109153200D02*
X170838667Y-109105580D01*
X170838667Y-109105580D02*
X170791048Y-109010342D01*
X170791048Y-109010342D02*
X170743429Y-108819866D01*
X170743429Y-108819866D02*
X170743429Y-108581771D01*
X170743429Y-108581771D02*
X170791048Y-108391295D01*
X170791048Y-108391295D02*
X170838667Y-108296057D01*
X170838667Y-108296057D02*
X170886286Y-108248438D01*
X170886286Y-108248438D02*
X170981524Y-108200819D01*
X160320819Y-104295857D02*
X159844628Y-104629190D01*
X160320819Y-104867285D02*
X159320819Y-104867285D01*
X159320819Y-104867285D02*
X159320819Y-104486333D01*
X159320819Y-104486333D02*
X159368438Y-104391095D01*
X159368438Y-104391095D02*
X159416057Y-104343476D01*
X159416057Y-104343476D02*
X159511295Y-104295857D01*
X159511295Y-104295857D02*
X159654152Y-104295857D01*
X159654152Y-104295857D02*
X159749390Y-104343476D01*
X159749390Y-104343476D02*
X159797009Y-104391095D01*
X159797009Y-104391095D02*
X159844628Y-104486333D01*
X159844628Y-104486333D02*
X159844628Y-104867285D01*
X160320819Y-103343476D02*
X160320819Y-103914904D01*
X160320819Y-103629190D02*
X159320819Y-103629190D01*
X159320819Y-103629190D02*
X159463676Y-103724428D01*
X159463676Y-103724428D02*
X159558914Y-103819666D01*
X159558914Y-103819666D02*
X159606533Y-103914904D01*
X159320819Y-102486333D02*
X159320819Y-102676809D01*
X159320819Y-102676809D02*
X159368438Y-102772047D01*
X159368438Y-102772047D02*
X159416057Y-102819666D01*
X159416057Y-102819666D02*
X159558914Y-102914904D01*
X159558914Y-102914904D02*
X159749390Y-102962523D01*
X159749390Y-102962523D02*
X160130342Y-102962523D01*
X160130342Y-102962523D02*
X160225580Y-102914904D01*
X160225580Y-102914904D02*
X160273200Y-102867285D01*
X160273200Y-102867285D02*
X160320819Y-102772047D01*
X160320819Y-102772047D02*
X160320819Y-102581571D01*
X160320819Y-102581571D02*
X160273200Y-102486333D01*
X160273200Y-102486333D02*
X160225580Y-102438714D01*
X160225580Y-102438714D02*
X160130342Y-102391095D01*
X160130342Y-102391095D02*
X159892247Y-102391095D01*
X159892247Y-102391095D02*
X159797009Y-102438714D01*
X159797009Y-102438714D02*
X159749390Y-102486333D01*
X159749390Y-102486333D02*
X159701771Y-102581571D01*
X159701771Y-102581571D02*
X159701771Y-102772047D01*
X159701771Y-102772047D02*
X159749390Y-102867285D01*
X159749390Y-102867285D02*
X159797009Y-102914904D01*
X159797009Y-102914904D02*
X159892247Y-102962523D01*
X109464095Y-100038819D02*
X110035523Y-100038819D01*
X109749809Y-101038819D02*
X109749809Y-100038819D01*
X110368857Y-101038819D02*
X110368857Y-100038819D01*
X110368857Y-100038819D02*
X110749809Y-100038819D01*
X110749809Y-100038819D02*
X110845047Y-100086438D01*
X110845047Y-100086438D02*
X110892666Y-100134057D01*
X110892666Y-100134057D02*
X110940285Y-100229295D01*
X110940285Y-100229295D02*
X110940285Y-100372152D01*
X110940285Y-100372152D02*
X110892666Y-100467390D01*
X110892666Y-100467390D02*
X110845047Y-100515009D01*
X110845047Y-100515009D02*
X110749809Y-100562628D01*
X110749809Y-100562628D02*
X110368857Y-100562628D01*
X111892666Y-101038819D02*
X111321238Y-101038819D01*
X111606952Y-101038819D02*
X111606952Y-100038819D01*
X111606952Y-100038819D02*
X111511714Y-100181676D01*
X111511714Y-100181676D02*
X111416476Y-100276914D01*
X111416476Y-100276914D02*
X111321238Y-100324533D01*
X109513905Y-133058819D02*
X110085333Y-133058819D01*
X109799619Y-134058819D02*
X109799619Y-133058819D01*
X110418667Y-134058819D02*
X110418667Y-133058819D01*
X110418667Y-133058819D02*
X110799619Y-133058819D01*
X110799619Y-133058819D02*
X110894857Y-133106438D01*
X110894857Y-133106438D02*
X110942476Y-133154057D01*
X110942476Y-133154057D02*
X110990095Y-133249295D01*
X110990095Y-133249295D02*
X110990095Y-133392152D01*
X110990095Y-133392152D02*
X110942476Y-133487390D01*
X110942476Y-133487390D02*
X110894857Y-133535009D01*
X110894857Y-133535009D02*
X110799619Y-133582628D01*
X110799619Y-133582628D02*
X110418667Y-133582628D01*
X111942476Y-134058819D02*
X111371048Y-134058819D01*
X111656762Y-134058819D02*
X111656762Y-133058819D01*
X111656762Y-133058819D02*
X111561524Y-133201676D01*
X111561524Y-133201676D02*
X111466286Y-133296914D01*
X111466286Y-133296914D02*
X111371048Y-133344533D01*
X112847238Y-133058819D02*
X112371048Y-133058819D01*
X112371048Y-133058819D02*
X112323429Y-133535009D01*
X112323429Y-133535009D02*
X112371048Y-133487390D01*
X112371048Y-133487390D02*
X112466286Y-133439771D01*
X112466286Y-133439771D02*
X112704381Y-133439771D01*
X112704381Y-133439771D02*
X112799619Y-133487390D01*
X112799619Y-133487390D02*
X112847238Y-133535009D01*
X112847238Y-133535009D02*
X112894857Y-133630247D01*
X112894857Y-133630247D02*
X112894857Y-133868342D01*
X112894857Y-133868342D02*
X112847238Y-133963580D01*
X112847238Y-133963580D02*
X112799619Y-134011200D01*
X112799619Y-134011200D02*
X112704381Y-134058819D01*
X112704381Y-134058819D02*
X112466286Y-134058819D01*
X112466286Y-134058819D02*
X112371048Y-134011200D01*
X112371048Y-134011200D02*
X112323429Y-133963580D01*
X154184819Y-138763333D02*
X154899104Y-138763333D01*
X154899104Y-138763333D02*
X155041961Y-138810952D01*
X155041961Y-138810952D02*
X155137200Y-138906190D01*
X155137200Y-138906190D02*
X155184819Y-139049047D01*
X155184819Y-139049047D02*
X155184819Y-139144285D01*
X154280057Y-138334761D02*
X154232438Y-138287142D01*
X154232438Y-138287142D02*
X154184819Y-138191904D01*
X154184819Y-138191904D02*
X154184819Y-137953809D01*
X154184819Y-137953809D02*
X154232438Y-137858571D01*
X154232438Y-137858571D02*
X154280057Y-137810952D01*
X154280057Y-137810952D02*
X154375295Y-137763333D01*
X154375295Y-137763333D02*
X154470533Y-137763333D01*
X154470533Y-137763333D02*
X154613390Y-137810952D01*
X154613390Y-137810952D02*
X155184819Y-138382380D01*
X155184819Y-138382380D02*
X155184819Y-137763333D01*
X156702819Y-109037333D02*
X157417104Y-109037333D01*
X157417104Y-109037333D02*
X157559961Y-109084952D01*
X157559961Y-109084952D02*
X157655200Y-109180190D01*
X157655200Y-109180190D02*
X157702819Y-109323047D01*
X157702819Y-109323047D02*
X157702819Y-109418285D01*
X157702819Y-108561142D02*
X156702819Y-108561142D01*
X156702819Y-108561142D02*
X156702819Y-108180190D01*
X156702819Y-108180190D02*
X156750438Y-108084952D01*
X156750438Y-108084952D02*
X156798057Y-108037333D01*
X156798057Y-108037333D02*
X156893295Y-107989714D01*
X156893295Y-107989714D02*
X157036152Y-107989714D01*
X157036152Y-107989714D02*
X157131390Y-108037333D01*
X157131390Y-108037333D02*
X157179009Y-108084952D01*
X157179009Y-108084952D02*
X157226628Y-108180190D01*
X157226628Y-108180190D02*
X157226628Y-108561142D01*
X157036152Y-107132571D02*
X157702819Y-107132571D01*
X156655200Y-107370666D02*
X157369485Y-107608761D01*
X157369485Y-107608761D02*
X157369485Y-106989714D01*
X154186095Y-104102819D02*
X154757523Y-104102819D01*
X154471809Y-105102819D02*
X154471809Y-104102819D01*
X155090857Y-105102819D02*
X155090857Y-104102819D01*
X155090857Y-104102819D02*
X155471809Y-104102819D01*
X155471809Y-104102819D02*
X155567047Y-104150438D01*
X155567047Y-104150438D02*
X155614666Y-104198057D01*
X155614666Y-104198057D02*
X155662285Y-104293295D01*
X155662285Y-104293295D02*
X155662285Y-104436152D01*
X155662285Y-104436152D02*
X155614666Y-104531390D01*
X155614666Y-104531390D02*
X155567047Y-104579009D01*
X155567047Y-104579009D02*
X155471809Y-104626628D01*
X155471809Y-104626628D02*
X155090857Y-104626628D01*
X156138476Y-105102819D02*
X156328952Y-105102819D01*
X156328952Y-105102819D02*
X156424190Y-105055200D01*
X156424190Y-105055200D02*
X156471809Y-105007580D01*
X156471809Y-105007580D02*
X156567047Y-104864723D01*
X156567047Y-104864723D02*
X156614666Y-104674247D01*
X156614666Y-104674247D02*
X156614666Y-104293295D01*
X156614666Y-104293295D02*
X156567047Y-104198057D01*
X156567047Y-104198057D02*
X156519428Y-104150438D01*
X156519428Y-104150438D02*
X156424190Y-104102819D01*
X156424190Y-104102819D02*
X156233714Y-104102819D01*
X156233714Y-104102819D02*
X156138476Y-104150438D01*
X156138476Y-104150438D02*
X156090857Y-104198057D01*
X156090857Y-104198057D02*
X156043238Y-104293295D01*
X156043238Y-104293295D02*
X156043238Y-104531390D01*
X156043238Y-104531390D02*
X156090857Y-104626628D01*
X156090857Y-104626628D02*
X156138476Y-104674247D01*
X156138476Y-104674247D02*
X156233714Y-104721866D01*
X156233714Y-104721866D02*
X156424190Y-104721866D01*
X156424190Y-104721866D02*
X156519428Y-104674247D01*
X156519428Y-104674247D02*
X156567047Y-104626628D01*
X156567047Y-104626628D02*
X156614666Y-104531390D01*
X142123905Y-125917819D02*
X142123905Y-126727342D01*
X142123905Y-126727342D02*
X142171524Y-126822580D01*
X142171524Y-126822580D02*
X142219143Y-126870200D01*
X142219143Y-126870200D02*
X142314381Y-126917819D01*
X142314381Y-126917819D02*
X142504857Y-126917819D01*
X142504857Y-126917819D02*
X142600095Y-126870200D01*
X142600095Y-126870200D02*
X142647714Y-126822580D01*
X142647714Y-126822580D02*
X142695333Y-126727342D01*
X142695333Y-126727342D02*
X142695333Y-125917819D01*
X143695333Y-126917819D02*
X143123905Y-126917819D01*
X143409619Y-126917819D02*
X143409619Y-125917819D01*
X143409619Y-125917819D02*
X143314381Y-126060676D01*
X143314381Y-126060676D02*
X143219143Y-126155914D01*
X143219143Y-126155914D02*
X143123905Y-126203533D01*
X144647714Y-126917819D02*
X144076286Y-126917819D01*
X144362000Y-126917819D02*
X144362000Y-125917819D01*
X144362000Y-125917819D02*
X144266762Y-126060676D01*
X144266762Y-126060676D02*
X144171524Y-126155914D01*
X144171524Y-126155914D02*
X144076286Y-126203533D01*
X123198095Y-101054819D02*
X123769523Y-101054819D01*
X123483809Y-102054819D02*
X123483809Y-101054819D01*
X124102857Y-102054819D02*
X124102857Y-101054819D01*
X124102857Y-101054819D02*
X124483809Y-101054819D01*
X124483809Y-101054819D02*
X124579047Y-101102438D01*
X124579047Y-101102438D02*
X124626666Y-101150057D01*
X124626666Y-101150057D02*
X124674285Y-101245295D01*
X124674285Y-101245295D02*
X124674285Y-101388152D01*
X124674285Y-101388152D02*
X124626666Y-101483390D01*
X124626666Y-101483390D02*
X124579047Y-101531009D01*
X124579047Y-101531009D02*
X124483809Y-101578628D01*
X124483809Y-101578628D02*
X124102857Y-101578628D01*
X125007619Y-101054819D02*
X125626666Y-101054819D01*
X125626666Y-101054819D02*
X125293333Y-101435771D01*
X125293333Y-101435771D02*
X125436190Y-101435771D01*
X125436190Y-101435771D02*
X125531428Y-101483390D01*
X125531428Y-101483390D02*
X125579047Y-101531009D01*
X125579047Y-101531009D02*
X125626666Y-101626247D01*
X125626666Y-101626247D02*
X125626666Y-101864342D01*
X125626666Y-101864342D02*
X125579047Y-101959580D01*
X125579047Y-101959580D02*
X125531428Y-102007200D01*
X125531428Y-102007200D02*
X125436190Y-102054819D01*
X125436190Y-102054819D02*
X125150476Y-102054819D01*
X125150476Y-102054819D02*
X125055238Y-102007200D01*
X125055238Y-102007200D02*
X125007619Y-101959580D01*
X116078095Y-121374819D02*
X116078095Y-122184342D01*
X116078095Y-122184342D02*
X116125714Y-122279580D01*
X116125714Y-122279580D02*
X116173333Y-122327200D01*
X116173333Y-122327200D02*
X116268571Y-122374819D01*
X116268571Y-122374819D02*
X116459047Y-122374819D01*
X116459047Y-122374819D02*
X116554285Y-122327200D01*
X116554285Y-122327200D02*
X116601904Y-122279580D01*
X116601904Y-122279580D02*
X116649523Y-122184342D01*
X116649523Y-122184342D02*
X116649523Y-121374819D01*
X117601904Y-121374819D02*
X117125714Y-121374819D01*
X117125714Y-121374819D02*
X117078095Y-121851009D01*
X117078095Y-121851009D02*
X117125714Y-121803390D01*
X117125714Y-121803390D02*
X117220952Y-121755771D01*
X117220952Y-121755771D02*
X117459047Y-121755771D01*
X117459047Y-121755771D02*
X117554285Y-121803390D01*
X117554285Y-121803390D02*
X117601904Y-121851009D01*
X117601904Y-121851009D02*
X117649523Y-121946247D01*
X117649523Y-121946247D02*
X117649523Y-122184342D01*
X117649523Y-122184342D02*
X117601904Y-122279580D01*
X117601904Y-122279580D02*
X117554285Y-122327200D01*
X117554285Y-122327200D02*
X117459047Y-122374819D01*
X117459047Y-122374819D02*
X117220952Y-122374819D01*
X117220952Y-122374819D02*
X117125714Y-122327200D01*
X117125714Y-122327200D02*
X117078095Y-122279580D01*
X114503642Y-85931580D02*
X114456023Y-85979200D01*
X114456023Y-85979200D02*
X114313166Y-86026819D01*
X114313166Y-86026819D02*
X114217928Y-86026819D01*
X114217928Y-86026819D02*
X114075071Y-85979200D01*
X114075071Y-85979200D02*
X113979833Y-85883961D01*
X113979833Y-85883961D02*
X113932214Y-85788723D01*
X113932214Y-85788723D02*
X113884595Y-85598247D01*
X113884595Y-85598247D02*
X113884595Y-85455390D01*
X113884595Y-85455390D02*
X113932214Y-85264914D01*
X113932214Y-85264914D02*
X113979833Y-85169676D01*
X113979833Y-85169676D02*
X114075071Y-85074438D01*
X114075071Y-85074438D02*
X114217928Y-85026819D01*
X114217928Y-85026819D02*
X114313166Y-85026819D01*
X114313166Y-85026819D02*
X114456023Y-85074438D01*
X114456023Y-85074438D02*
X114503642Y-85122057D01*
X115456023Y-86026819D02*
X114884595Y-86026819D01*
X115170309Y-86026819D02*
X115170309Y-85026819D01*
X115170309Y-85026819D02*
X115075071Y-85169676D01*
X115075071Y-85169676D02*
X114979833Y-85264914D01*
X114979833Y-85264914D02*
X114884595Y-85312533D01*
X115789357Y-85026819D02*
X116408404Y-85026819D01*
X116408404Y-85026819D02*
X116075071Y-85407771D01*
X116075071Y-85407771D02*
X116217928Y-85407771D01*
X116217928Y-85407771D02*
X116313166Y-85455390D01*
X116313166Y-85455390D02*
X116360785Y-85503009D01*
X116360785Y-85503009D02*
X116408404Y-85598247D01*
X116408404Y-85598247D02*
X116408404Y-85836342D01*
X116408404Y-85836342D02*
X116360785Y-85931580D01*
X116360785Y-85931580D02*
X116313166Y-85979200D01*
X116313166Y-85979200D02*
X116217928Y-86026819D01*
X116217928Y-86026819D02*
X115932214Y-86026819D01*
X115932214Y-86026819D02*
X115836976Y-85979200D01*
X115836976Y-85979200D02*
X115789357Y-85931580D01*
X147420819Y-107830857D02*
X146944628Y-108164190D01*
X147420819Y-108402285D02*
X146420819Y-108402285D01*
X146420819Y-108402285D02*
X146420819Y-108021333D01*
X146420819Y-108021333D02*
X146468438Y-107926095D01*
X146468438Y-107926095D02*
X146516057Y-107878476D01*
X146516057Y-107878476D02*
X146611295Y-107830857D01*
X146611295Y-107830857D02*
X146754152Y-107830857D01*
X146754152Y-107830857D02*
X146849390Y-107878476D01*
X146849390Y-107878476D02*
X146897009Y-107926095D01*
X146897009Y-107926095D02*
X146944628Y-108021333D01*
X146944628Y-108021333D02*
X146944628Y-108402285D01*
X147420819Y-106878476D02*
X147420819Y-107449904D01*
X147420819Y-107164190D02*
X146420819Y-107164190D01*
X146420819Y-107164190D02*
X146563676Y-107259428D01*
X146563676Y-107259428D02*
X146658914Y-107354666D01*
X146658914Y-107354666D02*
X146706533Y-107449904D01*
X146754152Y-106021333D02*
X147420819Y-106021333D01*
X146373200Y-106259428D02*
X147087485Y-106497523D01*
X147087485Y-106497523D02*
X147087485Y-105878476D01*
X114466905Y-133058819D02*
X115038333Y-133058819D01*
X114752619Y-134058819D02*
X114752619Y-133058819D01*
X115371667Y-134058819D02*
X115371667Y-133058819D01*
X115371667Y-133058819D02*
X115752619Y-133058819D01*
X115752619Y-133058819D02*
X115847857Y-133106438D01*
X115847857Y-133106438D02*
X115895476Y-133154057D01*
X115895476Y-133154057D02*
X115943095Y-133249295D01*
X115943095Y-133249295D02*
X115943095Y-133392152D01*
X115943095Y-133392152D02*
X115895476Y-133487390D01*
X115895476Y-133487390D02*
X115847857Y-133535009D01*
X115847857Y-133535009D02*
X115752619Y-133582628D01*
X115752619Y-133582628D02*
X115371667Y-133582628D01*
X116895476Y-134058819D02*
X116324048Y-134058819D01*
X116609762Y-134058819D02*
X116609762Y-133058819D01*
X116609762Y-133058819D02*
X116514524Y-133201676D01*
X116514524Y-133201676D02*
X116419286Y-133296914D01*
X116419286Y-133296914D02*
X116324048Y-133344533D01*
X117752619Y-133058819D02*
X117562143Y-133058819D01*
X117562143Y-133058819D02*
X117466905Y-133106438D01*
X117466905Y-133106438D02*
X117419286Y-133154057D01*
X117419286Y-133154057D02*
X117324048Y-133296914D01*
X117324048Y-133296914D02*
X117276429Y-133487390D01*
X117276429Y-133487390D02*
X117276429Y-133868342D01*
X117276429Y-133868342D02*
X117324048Y-133963580D01*
X117324048Y-133963580D02*
X117371667Y-134011200D01*
X117371667Y-134011200D02*
X117466905Y-134058819D01*
X117466905Y-134058819D02*
X117657381Y-134058819D01*
X117657381Y-134058819D02*
X117752619Y-134011200D01*
X117752619Y-134011200D02*
X117800238Y-133963580D01*
X117800238Y-133963580D02*
X117847857Y-133868342D01*
X117847857Y-133868342D02*
X117847857Y-133630247D01*
X117847857Y-133630247D02*
X117800238Y-133535009D01*
X117800238Y-133535009D02*
X117752619Y-133487390D01*
X117752619Y-133487390D02*
X117657381Y-133439771D01*
X117657381Y-133439771D02*
X117466905Y-133439771D01*
X117466905Y-133439771D02*
X117371667Y-133487390D01*
X117371667Y-133487390D02*
X117324048Y-133535009D01*
X117324048Y-133535009D02*
X117276429Y-133630247D01*
X143089333Y-102882819D02*
X142613143Y-102882819D01*
X142613143Y-102882819D02*
X142613143Y-101882819D01*
X143946476Y-102882819D02*
X143375048Y-102882819D01*
X143660762Y-102882819D02*
X143660762Y-101882819D01*
X143660762Y-101882819D02*
X143565524Y-102025676D01*
X143565524Y-102025676D02*
X143470286Y-102120914D01*
X143470286Y-102120914D02*
X143375048Y-102168533D01*
X125035819Y-134437333D02*
X125750104Y-134437333D01*
X125750104Y-134437333D02*
X125892961Y-134484952D01*
X125892961Y-134484952D02*
X125988200Y-134580190D01*
X125988200Y-134580190D02*
X126035819Y-134723047D01*
X126035819Y-134723047D02*
X126035819Y-134818285D01*
X126035819Y-133961142D02*
X125035819Y-133961142D01*
X125035819Y-133961142D02*
X125035819Y-133580190D01*
X125035819Y-133580190D02*
X125083438Y-133484952D01*
X125083438Y-133484952D02*
X125131057Y-133437333D01*
X125131057Y-133437333D02*
X125226295Y-133389714D01*
X125226295Y-133389714D02*
X125369152Y-133389714D01*
X125369152Y-133389714D02*
X125464390Y-133437333D01*
X125464390Y-133437333D02*
X125512009Y-133484952D01*
X125512009Y-133484952D02*
X125559628Y-133580190D01*
X125559628Y-133580190D02*
X125559628Y-133961142D01*
X126035819Y-132437333D02*
X126035819Y-133008761D01*
X126035819Y-132723047D02*
X125035819Y-132723047D01*
X125035819Y-132723047D02*
X125178676Y-132818285D01*
X125178676Y-132818285D02*
X125273914Y-132913523D01*
X125273914Y-132913523D02*
X125321533Y-133008761D01*
X153775580Y-97194666D02*
X153823200Y-97242285D01*
X153823200Y-97242285D02*
X153870819Y-97385142D01*
X153870819Y-97385142D02*
X153870819Y-97480380D01*
X153870819Y-97480380D02*
X153823200Y-97623237D01*
X153823200Y-97623237D02*
X153727961Y-97718475D01*
X153727961Y-97718475D02*
X153632723Y-97766094D01*
X153632723Y-97766094D02*
X153442247Y-97813713D01*
X153442247Y-97813713D02*
X153299390Y-97813713D01*
X153299390Y-97813713D02*
X153108914Y-97766094D01*
X153108914Y-97766094D02*
X153013676Y-97718475D01*
X153013676Y-97718475D02*
X152918438Y-97623237D01*
X152918438Y-97623237D02*
X152870819Y-97480380D01*
X152870819Y-97480380D02*
X152870819Y-97385142D01*
X152870819Y-97385142D02*
X152918438Y-97242285D01*
X152918438Y-97242285D02*
X152966057Y-97194666D01*
X153299390Y-96623237D02*
X153251771Y-96718475D01*
X153251771Y-96718475D02*
X153204152Y-96766094D01*
X153204152Y-96766094D02*
X153108914Y-96813713D01*
X153108914Y-96813713D02*
X153061295Y-96813713D01*
X153061295Y-96813713D02*
X152966057Y-96766094D01*
X152966057Y-96766094D02*
X152918438Y-96718475D01*
X152918438Y-96718475D02*
X152870819Y-96623237D01*
X152870819Y-96623237D02*
X152870819Y-96432761D01*
X152870819Y-96432761D02*
X152918438Y-96337523D01*
X152918438Y-96337523D02*
X152966057Y-96289904D01*
X152966057Y-96289904D02*
X153061295Y-96242285D01*
X153061295Y-96242285D02*
X153108914Y-96242285D01*
X153108914Y-96242285D02*
X153204152Y-96289904D01*
X153204152Y-96289904D02*
X153251771Y-96337523D01*
X153251771Y-96337523D02*
X153299390Y-96432761D01*
X153299390Y-96432761D02*
X153299390Y-96623237D01*
X153299390Y-96623237D02*
X153347009Y-96718475D01*
X153347009Y-96718475D02*
X153394628Y-96766094D01*
X153394628Y-96766094D02*
X153489866Y-96813713D01*
X153489866Y-96813713D02*
X153680342Y-96813713D01*
X153680342Y-96813713D02*
X153775580Y-96766094D01*
X153775580Y-96766094D02*
X153823200Y-96718475D01*
X153823200Y-96718475D02*
X153870819Y-96623237D01*
X153870819Y-96623237D02*
X153870819Y-96432761D01*
X153870819Y-96432761D02*
X153823200Y-96337523D01*
X153823200Y-96337523D02*
X153775580Y-96289904D01*
X153775580Y-96289904D02*
X153680342Y-96242285D01*
X153680342Y-96242285D02*
X153489866Y-96242285D01*
X153489866Y-96242285D02*
X153394628Y-96289904D01*
X153394628Y-96289904D02*
X153347009Y-96337523D01*
X153347009Y-96337523D02*
X153299390Y-96432761D01*
X149723819Y-99435404D02*
X150533342Y-99435404D01*
X150533342Y-99435404D02*
X150628580Y-99387785D01*
X150628580Y-99387785D02*
X150676200Y-99340166D01*
X150676200Y-99340166D02*
X150723819Y-99244928D01*
X150723819Y-99244928D02*
X150723819Y-99054452D01*
X150723819Y-99054452D02*
X150676200Y-98959214D01*
X150676200Y-98959214D02*
X150628580Y-98911595D01*
X150628580Y-98911595D02*
X150533342Y-98863976D01*
X150533342Y-98863976D02*
X149723819Y-98863976D01*
X149723819Y-98483023D02*
X149723819Y-97816357D01*
X149723819Y-97816357D02*
X150723819Y-98244928D01*
X156596595Y-98212819D02*
X156596595Y-99022342D01*
X156596595Y-99022342D02*
X156644214Y-99117580D01*
X156644214Y-99117580D02*
X156691833Y-99165200D01*
X156691833Y-99165200D02*
X156787071Y-99212819D01*
X156787071Y-99212819D02*
X156977547Y-99212819D01*
X156977547Y-99212819D02*
X157072785Y-99165200D01*
X157072785Y-99165200D02*
X157120404Y-99117580D01*
X157120404Y-99117580D02*
X157168023Y-99022342D01*
X157168023Y-99022342D02*
X157168023Y-98212819D01*
X157548976Y-98212819D02*
X158168023Y-98212819D01*
X158168023Y-98212819D02*
X157834690Y-98593771D01*
X157834690Y-98593771D02*
X157977547Y-98593771D01*
X157977547Y-98593771D02*
X158072785Y-98641390D01*
X158072785Y-98641390D02*
X158120404Y-98689009D01*
X158120404Y-98689009D02*
X158168023Y-98784247D01*
X158168023Y-98784247D02*
X158168023Y-99022342D01*
X158168023Y-99022342D02*
X158120404Y-99117580D01*
X158120404Y-99117580D02*
X158072785Y-99165200D01*
X158072785Y-99165200D02*
X157977547Y-99212819D01*
X157977547Y-99212819D02*
X157691833Y-99212819D01*
X157691833Y-99212819D02*
X157596595Y-99165200D01*
X157596595Y-99165200D02*
X157548976Y-99117580D01*
X113548819Y-93191404D02*
X114358342Y-93191404D01*
X114358342Y-93191404D02*
X114453580Y-93143785D01*
X114453580Y-93143785D02*
X114501200Y-93096166D01*
X114501200Y-93096166D02*
X114548819Y-93000928D01*
X114548819Y-93000928D02*
X114548819Y-92810452D01*
X114548819Y-92810452D02*
X114501200Y-92715214D01*
X114501200Y-92715214D02*
X114453580Y-92667595D01*
X114453580Y-92667595D02*
X114358342Y-92619976D01*
X114358342Y-92619976D02*
X113548819Y-92619976D01*
X114548819Y-91619976D02*
X114548819Y-92191404D01*
X114548819Y-91905690D02*
X113548819Y-91905690D01*
X113548819Y-91905690D02*
X113691676Y-92000928D01*
X113691676Y-92000928D02*
X113786914Y-92096166D01*
X113786914Y-92096166D02*
X113834533Y-92191404D01*
X140501905Y-113754819D02*
X141073333Y-113754819D01*
X140787619Y-114754819D02*
X140787619Y-113754819D01*
X141406667Y-114754819D02*
X141406667Y-113754819D01*
X141406667Y-113754819D02*
X141787619Y-113754819D01*
X141787619Y-113754819D02*
X141882857Y-113802438D01*
X141882857Y-113802438D02*
X141930476Y-113850057D01*
X141930476Y-113850057D02*
X141978095Y-113945295D01*
X141978095Y-113945295D02*
X141978095Y-114088152D01*
X141978095Y-114088152D02*
X141930476Y-114183390D01*
X141930476Y-114183390D02*
X141882857Y-114231009D01*
X141882857Y-114231009D02*
X141787619Y-114278628D01*
X141787619Y-114278628D02*
X141406667Y-114278628D01*
X142359048Y-113850057D02*
X142406667Y-113802438D01*
X142406667Y-113802438D02*
X142501905Y-113754819D01*
X142501905Y-113754819D02*
X142740000Y-113754819D01*
X142740000Y-113754819D02*
X142835238Y-113802438D01*
X142835238Y-113802438D02*
X142882857Y-113850057D01*
X142882857Y-113850057D02*
X142930476Y-113945295D01*
X142930476Y-113945295D02*
X142930476Y-114040533D01*
X142930476Y-114040533D02*
X142882857Y-114183390D01*
X142882857Y-114183390D02*
X142311429Y-114754819D01*
X142311429Y-114754819D02*
X142930476Y-114754819D01*
X143311429Y-113850057D02*
X143359048Y-113802438D01*
X143359048Y-113802438D02*
X143454286Y-113754819D01*
X143454286Y-113754819D02*
X143692381Y-113754819D01*
X143692381Y-113754819D02*
X143787619Y-113802438D01*
X143787619Y-113802438D02*
X143835238Y-113850057D01*
X143835238Y-113850057D02*
X143882857Y-113945295D01*
X143882857Y-113945295D02*
X143882857Y-114040533D01*
X143882857Y-114040533D02*
X143835238Y-114183390D01*
X143835238Y-114183390D02*
X143263810Y-114754819D01*
X143263810Y-114754819D02*
X143882857Y-114754819D01*
X148629905Y-115312819D02*
X149201333Y-115312819D01*
X148915619Y-116312819D02*
X148915619Y-115312819D01*
X149534667Y-116312819D02*
X149534667Y-115312819D01*
X149534667Y-115312819D02*
X149915619Y-115312819D01*
X149915619Y-115312819D02*
X150010857Y-115360438D01*
X150010857Y-115360438D02*
X150058476Y-115408057D01*
X150058476Y-115408057D02*
X150106095Y-115503295D01*
X150106095Y-115503295D02*
X150106095Y-115646152D01*
X150106095Y-115646152D02*
X150058476Y-115741390D01*
X150058476Y-115741390D02*
X150010857Y-115789009D01*
X150010857Y-115789009D02*
X149915619Y-115836628D01*
X149915619Y-115836628D02*
X149534667Y-115836628D01*
X150487048Y-115408057D02*
X150534667Y-115360438D01*
X150534667Y-115360438D02*
X150629905Y-115312819D01*
X150629905Y-115312819D02*
X150868000Y-115312819D01*
X150868000Y-115312819D02*
X150963238Y-115360438D01*
X150963238Y-115360438D02*
X151010857Y-115408057D01*
X151010857Y-115408057D02*
X151058476Y-115503295D01*
X151058476Y-115503295D02*
X151058476Y-115598533D01*
X151058476Y-115598533D02*
X151010857Y-115741390D01*
X151010857Y-115741390D02*
X150439429Y-116312819D01*
X150439429Y-116312819D02*
X151058476Y-116312819D01*
X152010857Y-116312819D02*
X151439429Y-116312819D01*
X151725143Y-116312819D02*
X151725143Y-115312819D01*
X151725143Y-115312819D02*
X151629905Y-115455676D01*
X151629905Y-115455676D02*
X151534667Y-115550914D01*
X151534667Y-115550914D02*
X151439429Y-115598533D01*
X99353905Y-121882819D02*
X99925333Y-121882819D01*
X99639619Y-122882819D02*
X99639619Y-121882819D01*
X100258667Y-122882819D02*
X100258667Y-121882819D01*
X100258667Y-121882819D02*
X100639619Y-121882819D01*
X100639619Y-121882819D02*
X100734857Y-121930438D01*
X100734857Y-121930438D02*
X100782476Y-121978057D01*
X100782476Y-121978057D02*
X100830095Y-122073295D01*
X100830095Y-122073295D02*
X100830095Y-122216152D01*
X100830095Y-122216152D02*
X100782476Y-122311390D01*
X100782476Y-122311390D02*
X100734857Y-122359009D01*
X100734857Y-122359009D02*
X100639619Y-122406628D01*
X100639619Y-122406628D02*
X100258667Y-122406628D01*
X101782476Y-122882819D02*
X101211048Y-122882819D01*
X101496762Y-122882819D02*
X101496762Y-121882819D01*
X101496762Y-121882819D02*
X101401524Y-122025676D01*
X101401524Y-122025676D02*
X101306286Y-122120914D01*
X101306286Y-122120914D02*
X101211048Y-122168533D01*
X102115810Y-121882819D02*
X102734857Y-121882819D01*
X102734857Y-121882819D02*
X102401524Y-122263771D01*
X102401524Y-122263771D02*
X102544381Y-122263771D01*
X102544381Y-122263771D02*
X102639619Y-122311390D01*
X102639619Y-122311390D02*
X102687238Y-122359009D01*
X102687238Y-122359009D02*
X102734857Y-122454247D01*
X102734857Y-122454247D02*
X102734857Y-122692342D01*
X102734857Y-122692342D02*
X102687238Y-122787580D01*
X102687238Y-122787580D02*
X102639619Y-122835200D01*
X102639619Y-122835200D02*
X102544381Y-122882819D01*
X102544381Y-122882819D02*
X102258667Y-122882819D01*
X102258667Y-122882819D02*
X102163429Y-122835200D01*
X102163429Y-122835200D02*
X102115810Y-122787580D01*
X147774819Y-130690857D02*
X147298628Y-131024190D01*
X147774819Y-131262285D02*
X146774819Y-131262285D01*
X146774819Y-131262285D02*
X146774819Y-130881333D01*
X146774819Y-130881333D02*
X146822438Y-130786095D01*
X146822438Y-130786095D02*
X146870057Y-130738476D01*
X146870057Y-130738476D02*
X146965295Y-130690857D01*
X146965295Y-130690857D02*
X147108152Y-130690857D01*
X147108152Y-130690857D02*
X147203390Y-130738476D01*
X147203390Y-130738476D02*
X147251009Y-130786095D01*
X147251009Y-130786095D02*
X147298628Y-130881333D01*
X147298628Y-130881333D02*
X147298628Y-131262285D01*
X147774819Y-129738476D02*
X147774819Y-130309904D01*
X147774819Y-130024190D02*
X146774819Y-130024190D01*
X146774819Y-130024190D02*
X146917676Y-130119428D01*
X146917676Y-130119428D02*
X147012914Y-130214666D01*
X147012914Y-130214666D02*
X147060533Y-130309904D01*
X146774819Y-129119428D02*
X146774819Y-129024190D01*
X146774819Y-129024190D02*
X146822438Y-128928952D01*
X146822438Y-128928952D02*
X146870057Y-128881333D01*
X146870057Y-128881333D02*
X146965295Y-128833714D01*
X146965295Y-128833714D02*
X147155771Y-128786095D01*
X147155771Y-128786095D02*
X147393866Y-128786095D01*
X147393866Y-128786095D02*
X147584342Y-128833714D01*
X147584342Y-128833714D02*
X147679580Y-128881333D01*
X147679580Y-128881333D02*
X147727200Y-128928952D01*
X147727200Y-128928952D02*
X147774819Y-129024190D01*
X147774819Y-129024190D02*
X147774819Y-129119428D01*
X147774819Y-129119428D02*
X147727200Y-129214666D01*
X147727200Y-129214666D02*
X147679580Y-129262285D01*
X147679580Y-129262285D02*
X147584342Y-129309904D01*
X147584342Y-129309904D02*
X147393866Y-129357523D01*
X147393866Y-129357523D02*
X147155771Y-129357523D01*
X147155771Y-129357523D02*
X146965295Y-129309904D01*
X146965295Y-129309904D02*
X146870057Y-129262285D01*
X146870057Y-129262285D02*
X146822438Y-129214666D01*
X146822438Y-129214666D02*
X146774819Y-129119428D01*
X119739580Y-134278666D02*
X119787200Y-134326285D01*
X119787200Y-134326285D02*
X119834819Y-134469142D01*
X119834819Y-134469142D02*
X119834819Y-134564380D01*
X119834819Y-134564380D02*
X119787200Y-134707237D01*
X119787200Y-134707237D02*
X119691961Y-134802475D01*
X119691961Y-134802475D02*
X119596723Y-134850094D01*
X119596723Y-134850094D02*
X119406247Y-134897713D01*
X119406247Y-134897713D02*
X119263390Y-134897713D01*
X119263390Y-134897713D02*
X119072914Y-134850094D01*
X119072914Y-134850094D02*
X118977676Y-134802475D01*
X118977676Y-134802475D02*
X118882438Y-134707237D01*
X118882438Y-134707237D02*
X118834819Y-134564380D01*
X118834819Y-134564380D02*
X118834819Y-134469142D01*
X118834819Y-134469142D02*
X118882438Y-134326285D01*
X118882438Y-134326285D02*
X118930057Y-134278666D01*
X118834819Y-133421523D02*
X118834819Y-133611999D01*
X118834819Y-133611999D02*
X118882438Y-133707237D01*
X118882438Y-133707237D02*
X118930057Y-133754856D01*
X118930057Y-133754856D02*
X119072914Y-133850094D01*
X119072914Y-133850094D02*
X119263390Y-133897713D01*
X119263390Y-133897713D02*
X119644342Y-133897713D01*
X119644342Y-133897713D02*
X119739580Y-133850094D01*
X119739580Y-133850094D02*
X119787200Y-133802475D01*
X119787200Y-133802475D02*
X119834819Y-133707237D01*
X119834819Y-133707237D02*
X119834819Y-133516761D01*
X119834819Y-133516761D02*
X119787200Y-133421523D01*
X119787200Y-133421523D02*
X119739580Y-133373904D01*
X119739580Y-133373904D02*
X119644342Y-133326285D01*
X119644342Y-133326285D02*
X119406247Y-133326285D01*
X119406247Y-133326285D02*
X119311009Y-133373904D01*
X119311009Y-133373904D02*
X119263390Y-133421523D01*
X119263390Y-133421523D02*
X119215771Y-133516761D01*
X119215771Y-133516761D02*
X119215771Y-133707237D01*
X119215771Y-133707237D02*
X119263390Y-133802475D01*
X119263390Y-133802475D02*
X119311009Y-133850094D01*
X119311009Y-133850094D02*
X119406247Y-133897713D01*
X114503580Y-119546666D02*
X114551200Y-119594285D01*
X114551200Y-119594285D02*
X114598819Y-119737142D01*
X114598819Y-119737142D02*
X114598819Y-119832380D01*
X114598819Y-119832380D02*
X114551200Y-119975237D01*
X114551200Y-119975237D02*
X114455961Y-120070475D01*
X114455961Y-120070475D02*
X114360723Y-120118094D01*
X114360723Y-120118094D02*
X114170247Y-120165713D01*
X114170247Y-120165713D02*
X114027390Y-120165713D01*
X114027390Y-120165713D02*
X113836914Y-120118094D01*
X113836914Y-120118094D02*
X113741676Y-120070475D01*
X113741676Y-120070475D02*
X113646438Y-119975237D01*
X113646438Y-119975237D02*
X113598819Y-119832380D01*
X113598819Y-119832380D02*
X113598819Y-119737142D01*
X113598819Y-119737142D02*
X113646438Y-119594285D01*
X113646438Y-119594285D02*
X113694057Y-119546666D01*
X114598819Y-119070475D02*
X114598819Y-118879999D01*
X114598819Y-118879999D02*
X114551200Y-118784761D01*
X114551200Y-118784761D02*
X114503580Y-118737142D01*
X114503580Y-118737142D02*
X114360723Y-118641904D01*
X114360723Y-118641904D02*
X114170247Y-118594285D01*
X114170247Y-118594285D02*
X113789295Y-118594285D01*
X113789295Y-118594285D02*
X113694057Y-118641904D01*
X113694057Y-118641904D02*
X113646438Y-118689523D01*
X113646438Y-118689523D02*
X113598819Y-118784761D01*
X113598819Y-118784761D02*
X113598819Y-118975237D01*
X113598819Y-118975237D02*
X113646438Y-119070475D01*
X113646438Y-119070475D02*
X113694057Y-119118094D01*
X113694057Y-119118094D02*
X113789295Y-119165713D01*
X113789295Y-119165713D02*
X114027390Y-119165713D01*
X114027390Y-119165713D02*
X114122628Y-119118094D01*
X114122628Y-119118094D02*
X114170247Y-119070475D01*
X114170247Y-119070475D02*
X114217866Y-118975237D01*
X114217866Y-118975237D02*
X114217866Y-118784761D01*
X114217866Y-118784761D02*
X114170247Y-118689523D01*
X114170247Y-118689523D02*
X114122628Y-118641904D01*
X114122628Y-118641904D02*
X114027390Y-118594285D01*
X111224819Y-107283333D02*
X111939104Y-107283333D01*
X111939104Y-107283333D02*
X112081961Y-107330952D01*
X112081961Y-107330952D02*
X112177200Y-107426190D01*
X112177200Y-107426190D02*
X112224819Y-107569047D01*
X112224819Y-107569047D02*
X112224819Y-107664285D01*
X111224819Y-106902380D02*
X111224819Y-106283333D01*
X111224819Y-106283333D02*
X111605771Y-106616666D01*
X111605771Y-106616666D02*
X111605771Y-106473809D01*
X111605771Y-106473809D02*
X111653390Y-106378571D01*
X111653390Y-106378571D02*
X111701009Y-106330952D01*
X111701009Y-106330952D02*
X111796247Y-106283333D01*
X111796247Y-106283333D02*
X112034342Y-106283333D01*
X112034342Y-106283333D02*
X112129580Y-106330952D01*
X112129580Y-106330952D02*
X112177200Y-106378571D01*
X112177200Y-106378571D02*
X112224819Y-106473809D01*
X112224819Y-106473809D02*
X112224819Y-106759523D01*
X112224819Y-106759523D02*
X112177200Y-106854761D01*
X112177200Y-106854761D02*
X112129580Y-106902380D01*
X122789905Y-126801819D02*
X122789905Y-127611342D01*
X122789905Y-127611342D02*
X122837524Y-127706580D01*
X122837524Y-127706580D02*
X122885143Y-127754200D01*
X122885143Y-127754200D02*
X122980381Y-127801819D01*
X122980381Y-127801819D02*
X123170857Y-127801819D01*
X123170857Y-127801819D02*
X123266095Y-127754200D01*
X123266095Y-127754200D02*
X123313714Y-127706580D01*
X123313714Y-127706580D02*
X123361333Y-127611342D01*
X123361333Y-127611342D02*
X123361333Y-126801819D01*
X124361333Y-127801819D02*
X123789905Y-127801819D01*
X124075619Y-127801819D02*
X124075619Y-126801819D01*
X124075619Y-126801819D02*
X123980381Y-126944676D01*
X123980381Y-126944676D02*
X123885143Y-127039914D01*
X123885143Y-127039914D02*
X123789905Y-127087533D01*
X124980381Y-126801819D02*
X125075619Y-126801819D01*
X125075619Y-126801819D02*
X125170857Y-126849438D01*
X125170857Y-126849438D02*
X125218476Y-126897057D01*
X125218476Y-126897057D02*
X125266095Y-126992295D01*
X125266095Y-126992295D02*
X125313714Y-127182771D01*
X125313714Y-127182771D02*
X125313714Y-127420866D01*
X125313714Y-127420866D02*
X125266095Y-127611342D01*
X125266095Y-127611342D02*
X125218476Y-127706580D01*
X125218476Y-127706580D02*
X125170857Y-127754200D01*
X125170857Y-127754200D02*
X125075619Y-127801819D01*
X125075619Y-127801819D02*
X124980381Y-127801819D01*
X124980381Y-127801819D02*
X124885143Y-127754200D01*
X124885143Y-127754200D02*
X124837524Y-127706580D01*
X124837524Y-127706580D02*
X124789905Y-127611342D01*
X124789905Y-127611342D02*
X124742286Y-127420866D01*
X124742286Y-127420866D02*
X124742286Y-127182771D01*
X124742286Y-127182771D02*
X124789905Y-126992295D01*
X124789905Y-126992295D02*
X124837524Y-126897057D01*
X124837524Y-126897057D02*
X124885143Y-126849438D01*
X124885143Y-126849438D02*
X124980381Y-126801819D01*
X165554819Y-124104094D02*
X164554819Y-124104094D01*
X164554819Y-124104094D02*
X164554819Y-123865999D01*
X164554819Y-123865999D02*
X164602438Y-123723142D01*
X164602438Y-123723142D02*
X164697676Y-123627904D01*
X164697676Y-123627904D02*
X164792914Y-123580285D01*
X164792914Y-123580285D02*
X164983390Y-123532666D01*
X164983390Y-123532666D02*
X165126247Y-123532666D01*
X165126247Y-123532666D02*
X165316723Y-123580285D01*
X165316723Y-123580285D02*
X165411961Y-123627904D01*
X165411961Y-123627904D02*
X165507200Y-123723142D01*
X165507200Y-123723142D02*
X165554819Y-123865999D01*
X165554819Y-123865999D02*
X165554819Y-124104094D01*
X164554819Y-122675523D02*
X164554819Y-122865999D01*
X164554819Y-122865999D02*
X164602438Y-122961237D01*
X164602438Y-122961237D02*
X164650057Y-123008856D01*
X164650057Y-123008856D02*
X164792914Y-123104094D01*
X164792914Y-123104094D02*
X164983390Y-123151713D01*
X164983390Y-123151713D02*
X165364342Y-123151713D01*
X165364342Y-123151713D02*
X165459580Y-123104094D01*
X165459580Y-123104094D02*
X165507200Y-123056475D01*
X165507200Y-123056475D02*
X165554819Y-122961237D01*
X165554819Y-122961237D02*
X165554819Y-122770761D01*
X165554819Y-122770761D02*
X165507200Y-122675523D01*
X165507200Y-122675523D02*
X165459580Y-122627904D01*
X165459580Y-122627904D02*
X165364342Y-122580285D01*
X165364342Y-122580285D02*
X165126247Y-122580285D01*
X165126247Y-122580285D02*
X165031009Y-122627904D01*
X165031009Y-122627904D02*
X164983390Y-122675523D01*
X164983390Y-122675523D02*
X164935771Y-122770761D01*
X164935771Y-122770761D02*
X164935771Y-122961237D01*
X164935771Y-122961237D02*
X164983390Y-123056475D01*
X164983390Y-123056475D02*
X165031009Y-123104094D01*
X165031009Y-123104094D02*
X165126247Y-123151713D01*
X140215580Y-111418666D02*
X140263200Y-111466285D01*
X140263200Y-111466285D02*
X140310819Y-111609142D01*
X140310819Y-111609142D02*
X140310819Y-111704380D01*
X140310819Y-111704380D02*
X140263200Y-111847237D01*
X140263200Y-111847237D02*
X140167961Y-111942475D01*
X140167961Y-111942475D02*
X140072723Y-111990094D01*
X140072723Y-111990094D02*
X139882247Y-112037713D01*
X139882247Y-112037713D02*
X139739390Y-112037713D01*
X139739390Y-112037713D02*
X139548914Y-111990094D01*
X139548914Y-111990094D02*
X139453676Y-111942475D01*
X139453676Y-111942475D02*
X139358438Y-111847237D01*
X139358438Y-111847237D02*
X139310819Y-111704380D01*
X139310819Y-111704380D02*
X139310819Y-111609142D01*
X139310819Y-111609142D02*
X139358438Y-111466285D01*
X139358438Y-111466285D02*
X139406057Y-111418666D01*
X139644152Y-110561523D02*
X140310819Y-110561523D01*
X139263200Y-110799618D02*
X139977485Y-111037713D01*
X139977485Y-111037713D02*
X139977485Y-110418666D01*
X154177904Y-124497180D02*
X154177904Y-123687657D01*
X154177904Y-123687657D02*
X154130285Y-123592419D01*
X154130285Y-123592419D02*
X154082666Y-123544800D01*
X154082666Y-123544800D02*
X153987428Y-123497180D01*
X153987428Y-123497180D02*
X153796952Y-123497180D01*
X153796952Y-123497180D02*
X153701714Y-123544800D01*
X153701714Y-123544800D02*
X153654095Y-123592419D01*
X153654095Y-123592419D02*
X153606476Y-123687657D01*
X153606476Y-123687657D02*
X153606476Y-124497180D01*
X152701714Y-124497180D02*
X152892190Y-124497180D01*
X152892190Y-124497180D02*
X152987428Y-124449561D01*
X152987428Y-124449561D02*
X153035047Y-124401942D01*
X153035047Y-124401942D02*
X153130285Y-124259085D01*
X153130285Y-124259085D02*
X153177904Y-124068609D01*
X153177904Y-124068609D02*
X153177904Y-123687657D01*
X153177904Y-123687657D02*
X153130285Y-123592419D01*
X153130285Y-123592419D02*
X153082666Y-123544800D01*
X153082666Y-123544800D02*
X152987428Y-123497180D01*
X152987428Y-123497180D02*
X152796952Y-123497180D01*
X152796952Y-123497180D02*
X152701714Y-123544800D01*
X152701714Y-123544800D02*
X152654095Y-123592419D01*
X152654095Y-123592419D02*
X152606476Y-123687657D01*
X152606476Y-123687657D02*
X152606476Y-123925752D01*
X152606476Y-123925752D02*
X152654095Y-124020990D01*
X152654095Y-124020990D02*
X152701714Y-124068609D01*
X152701714Y-124068609D02*
X152796952Y-124116228D01*
X152796952Y-124116228D02*
X152987428Y-124116228D01*
X152987428Y-124116228D02*
X153082666Y-124068609D01*
X153082666Y-124068609D02*
X153130285Y-124020990D01*
X153130285Y-124020990D02*
X153177904Y-123925752D01*
X118118095Y-103120819D02*
X118689523Y-103120819D01*
X118403809Y-104120819D02*
X118403809Y-103120819D01*
X119022857Y-104120819D02*
X119022857Y-103120819D01*
X119022857Y-103120819D02*
X119403809Y-103120819D01*
X119403809Y-103120819D02*
X119499047Y-103168438D01*
X119499047Y-103168438D02*
X119546666Y-103216057D01*
X119546666Y-103216057D02*
X119594285Y-103311295D01*
X119594285Y-103311295D02*
X119594285Y-103454152D01*
X119594285Y-103454152D02*
X119546666Y-103549390D01*
X119546666Y-103549390D02*
X119499047Y-103597009D01*
X119499047Y-103597009D02*
X119403809Y-103644628D01*
X119403809Y-103644628D02*
X119022857Y-103644628D01*
X120451428Y-103120819D02*
X120260952Y-103120819D01*
X120260952Y-103120819D02*
X120165714Y-103168438D01*
X120165714Y-103168438D02*
X120118095Y-103216057D01*
X120118095Y-103216057D02*
X120022857Y-103358914D01*
X120022857Y-103358914D02*
X119975238Y-103549390D01*
X119975238Y-103549390D02*
X119975238Y-103930342D01*
X119975238Y-103930342D02*
X120022857Y-104025580D01*
X120022857Y-104025580D02*
X120070476Y-104073200D01*
X120070476Y-104073200D02*
X120165714Y-104120819D01*
X120165714Y-104120819D02*
X120356190Y-104120819D01*
X120356190Y-104120819D02*
X120451428Y-104073200D01*
X120451428Y-104073200D02*
X120499047Y-104025580D01*
X120499047Y-104025580D02*
X120546666Y-103930342D01*
X120546666Y-103930342D02*
X120546666Y-103692247D01*
X120546666Y-103692247D02*
X120499047Y-103597009D01*
X120499047Y-103597009D02*
X120451428Y-103549390D01*
X120451428Y-103549390D02*
X120356190Y-103501771D01*
X120356190Y-103501771D02*
X120165714Y-103501771D01*
X120165714Y-103501771D02*
X120070476Y-103549390D01*
X120070476Y-103549390D02*
X120022857Y-103597009D01*
X120022857Y-103597009D02*
X119975238Y-103692247D01*
X97347833Y-100279580D02*
X97300214Y-100327200D01*
X97300214Y-100327200D02*
X97157357Y-100374819D01*
X97157357Y-100374819D02*
X97062119Y-100374819D01*
X97062119Y-100374819D02*
X96919262Y-100327200D01*
X96919262Y-100327200D02*
X96824024Y-100231961D01*
X96824024Y-100231961D02*
X96776405Y-100136723D01*
X96776405Y-100136723D02*
X96728786Y-99946247D01*
X96728786Y-99946247D02*
X96728786Y-99803390D01*
X96728786Y-99803390D02*
X96776405Y-99612914D01*
X96776405Y-99612914D02*
X96824024Y-99517676D01*
X96824024Y-99517676D02*
X96919262Y-99422438D01*
X96919262Y-99422438D02*
X97062119Y-99374819D01*
X97062119Y-99374819D02*
X97157357Y-99374819D01*
X97157357Y-99374819D02*
X97300214Y-99422438D01*
X97300214Y-99422438D02*
X97347833Y-99470057D01*
X97728786Y-99470057D02*
X97776405Y-99422438D01*
X97776405Y-99422438D02*
X97871643Y-99374819D01*
X97871643Y-99374819D02*
X98109738Y-99374819D01*
X98109738Y-99374819D02*
X98204976Y-99422438D01*
X98204976Y-99422438D02*
X98252595Y-99470057D01*
X98252595Y-99470057D02*
X98300214Y-99565295D01*
X98300214Y-99565295D02*
X98300214Y-99660533D01*
X98300214Y-99660533D02*
X98252595Y-99803390D01*
X98252595Y-99803390D02*
X97681167Y-100374819D01*
X97681167Y-100374819D02*
X98300214Y-100374819D01*
X112594905Y-128470819D02*
X112594905Y-127470819D01*
X112594905Y-127470819D02*
X112833000Y-127470819D01*
X112833000Y-127470819D02*
X112975857Y-127518438D01*
X112975857Y-127518438D02*
X113071095Y-127613676D01*
X113071095Y-127613676D02*
X113118714Y-127708914D01*
X113118714Y-127708914D02*
X113166333Y-127899390D01*
X113166333Y-127899390D02*
X113166333Y-128042247D01*
X113166333Y-128042247D02*
X113118714Y-128232723D01*
X113118714Y-128232723D02*
X113071095Y-128327961D01*
X113071095Y-128327961D02*
X112975857Y-128423200D01*
X112975857Y-128423200D02*
X112833000Y-128470819D01*
X112833000Y-128470819D02*
X112594905Y-128470819D01*
X114071095Y-127470819D02*
X113594905Y-127470819D01*
X113594905Y-127470819D02*
X113547286Y-127947009D01*
X113547286Y-127947009D02*
X113594905Y-127899390D01*
X113594905Y-127899390D02*
X113690143Y-127851771D01*
X113690143Y-127851771D02*
X113928238Y-127851771D01*
X113928238Y-127851771D02*
X114023476Y-127899390D01*
X114023476Y-127899390D02*
X114071095Y-127947009D01*
X114071095Y-127947009D02*
X114118714Y-128042247D01*
X114118714Y-128042247D02*
X114118714Y-128280342D01*
X114118714Y-128280342D02*
X114071095Y-128375580D01*
X114071095Y-128375580D02*
X114023476Y-128423200D01*
X114023476Y-128423200D02*
X113928238Y-128470819D01*
X113928238Y-128470819D02*
X113690143Y-128470819D01*
X113690143Y-128470819D02*
X113594905Y-128423200D01*
X113594905Y-128423200D02*
X113547286Y-128375580D01*
X119721333Y-97482819D02*
X119388000Y-97006628D01*
X119149905Y-97482819D02*
X119149905Y-96482819D01*
X119149905Y-96482819D02*
X119530857Y-96482819D01*
X119530857Y-96482819D02*
X119626095Y-96530438D01*
X119626095Y-96530438D02*
X119673714Y-96578057D01*
X119673714Y-96578057D02*
X119721333Y-96673295D01*
X119721333Y-96673295D02*
X119721333Y-96816152D01*
X119721333Y-96816152D02*
X119673714Y-96911390D01*
X119673714Y-96911390D02*
X119626095Y-96959009D01*
X119626095Y-96959009D02*
X119530857Y-97006628D01*
X119530857Y-97006628D02*
X119149905Y-97006628D01*
X120054667Y-96482819D02*
X120673714Y-96482819D01*
X120673714Y-96482819D02*
X120340381Y-96863771D01*
X120340381Y-96863771D02*
X120483238Y-96863771D01*
X120483238Y-96863771D02*
X120578476Y-96911390D01*
X120578476Y-96911390D02*
X120626095Y-96959009D01*
X120626095Y-96959009D02*
X120673714Y-97054247D01*
X120673714Y-97054247D02*
X120673714Y-97292342D01*
X120673714Y-97292342D02*
X120626095Y-97387580D01*
X120626095Y-97387580D02*
X120578476Y-97435200D01*
X120578476Y-97435200D02*
X120483238Y-97482819D01*
X120483238Y-97482819D02*
X120197524Y-97482819D01*
X120197524Y-97482819D02*
X120102286Y-97435200D01*
X120102286Y-97435200D02*
X120054667Y-97387580D01*
X140678819Y-134071333D02*
X141393104Y-134071333D01*
X141393104Y-134071333D02*
X141535961Y-134118952D01*
X141535961Y-134118952D02*
X141631200Y-134214190D01*
X141631200Y-134214190D02*
X141678819Y-134357047D01*
X141678819Y-134357047D02*
X141678819Y-134452285D01*
X141678819Y-133595142D02*
X140678819Y-133595142D01*
X140678819Y-133595142D02*
X140678819Y-133214190D01*
X140678819Y-133214190D02*
X140726438Y-133118952D01*
X140726438Y-133118952D02*
X140774057Y-133071333D01*
X140774057Y-133071333D02*
X140869295Y-133023714D01*
X140869295Y-133023714D02*
X141012152Y-133023714D01*
X141012152Y-133023714D02*
X141107390Y-133071333D01*
X141107390Y-133071333D02*
X141155009Y-133118952D01*
X141155009Y-133118952D02*
X141202628Y-133214190D01*
X141202628Y-133214190D02*
X141202628Y-133595142D01*
X140774057Y-132642761D02*
X140726438Y-132595142D01*
X140726438Y-132595142D02*
X140678819Y-132499904D01*
X140678819Y-132499904D02*
X140678819Y-132261809D01*
X140678819Y-132261809D02*
X140726438Y-132166571D01*
X140726438Y-132166571D02*
X140774057Y-132118952D01*
X140774057Y-132118952D02*
X140869295Y-132071333D01*
X140869295Y-132071333D02*
X140964533Y-132071333D01*
X140964533Y-132071333D02*
X141107390Y-132118952D01*
X141107390Y-132118952D02*
X141678819Y-132690380D01*
X141678819Y-132690380D02*
X141678819Y-132071333D01*
X137519580Y-130444109D02*
X137567200Y-130491728D01*
X137567200Y-130491728D02*
X137614819Y-130634585D01*
X137614819Y-130634585D02*
X137614819Y-130729823D01*
X137614819Y-130729823D02*
X137567200Y-130872680D01*
X137567200Y-130872680D02*
X137471961Y-130967918D01*
X137471961Y-130967918D02*
X137376723Y-131015537D01*
X137376723Y-131015537D02*
X137186247Y-131063156D01*
X137186247Y-131063156D02*
X137043390Y-131063156D01*
X137043390Y-131063156D02*
X136852914Y-131015537D01*
X136852914Y-131015537D02*
X136757676Y-130967918D01*
X136757676Y-130967918D02*
X136662438Y-130872680D01*
X136662438Y-130872680D02*
X136614819Y-130729823D01*
X136614819Y-130729823D02*
X136614819Y-130634585D01*
X136614819Y-130634585D02*
X136662438Y-130491728D01*
X136662438Y-130491728D02*
X136710057Y-130444109D01*
X137614819Y-129491728D02*
X137614819Y-130063156D01*
X137614819Y-129777442D02*
X136614819Y-129777442D01*
X136614819Y-129777442D02*
X136757676Y-129872680D01*
X136757676Y-129872680D02*
X136852914Y-129967918D01*
X136852914Y-129967918D02*
X136900533Y-130063156D01*
X137043390Y-128920299D02*
X136995771Y-129015537D01*
X136995771Y-129015537D02*
X136948152Y-129063156D01*
X136948152Y-129063156D02*
X136852914Y-129110775D01*
X136852914Y-129110775D02*
X136805295Y-129110775D01*
X136805295Y-129110775D02*
X136710057Y-129063156D01*
X136710057Y-129063156D02*
X136662438Y-129015537D01*
X136662438Y-129015537D02*
X136614819Y-128920299D01*
X136614819Y-128920299D02*
X136614819Y-128729823D01*
X136614819Y-128729823D02*
X136662438Y-128634585D01*
X136662438Y-128634585D02*
X136710057Y-128586966D01*
X136710057Y-128586966D02*
X136805295Y-128539347D01*
X136805295Y-128539347D02*
X136852914Y-128539347D01*
X136852914Y-128539347D02*
X136948152Y-128586966D01*
X136948152Y-128586966D02*
X136995771Y-128634585D01*
X136995771Y-128634585D02*
X137043390Y-128729823D01*
X137043390Y-128729823D02*
X137043390Y-128920299D01*
X137043390Y-128920299D02*
X137091009Y-129015537D01*
X137091009Y-129015537D02*
X137138628Y-129063156D01*
X137138628Y-129063156D02*
X137233866Y-129110775D01*
X137233866Y-129110775D02*
X137424342Y-129110775D01*
X137424342Y-129110775D02*
X137519580Y-129063156D01*
X137519580Y-129063156D02*
X137567200Y-129015537D01*
X137567200Y-129015537D02*
X137614819Y-128920299D01*
X137614819Y-128920299D02*
X137614819Y-128729823D01*
X137614819Y-128729823D02*
X137567200Y-128634585D01*
X137567200Y-128634585D02*
X137519580Y-128586966D01*
X137519580Y-128586966D02*
X137424342Y-128539347D01*
X137424342Y-128539347D02*
X137233866Y-128539347D01*
X137233866Y-128539347D02*
X137138628Y-128586966D01*
X137138628Y-128586966D02*
X137091009Y-128634585D01*
X137091009Y-128634585D02*
X137043390Y-128729823D01*
X155710095Y-112738819D02*
X156281523Y-112738819D01*
X155995809Y-113738819D02*
X155995809Y-112738819D01*
X156614857Y-113738819D02*
X156614857Y-112738819D01*
X156614857Y-112738819D02*
X156995809Y-112738819D01*
X156995809Y-112738819D02*
X157091047Y-112786438D01*
X157091047Y-112786438D02*
X157138666Y-112834057D01*
X157138666Y-112834057D02*
X157186285Y-112929295D01*
X157186285Y-112929295D02*
X157186285Y-113072152D01*
X157186285Y-113072152D02*
X157138666Y-113167390D01*
X157138666Y-113167390D02*
X157091047Y-113215009D01*
X157091047Y-113215009D02*
X156995809Y-113262628D01*
X156995809Y-113262628D02*
X156614857Y-113262628D01*
X157519619Y-112738819D02*
X158186285Y-112738819D01*
X158186285Y-112738819D02*
X157757714Y-113738819D01*
X168155580Y-105930857D02*
X168203200Y-105978476D01*
X168203200Y-105978476D02*
X168250819Y-106121333D01*
X168250819Y-106121333D02*
X168250819Y-106216571D01*
X168250819Y-106216571D02*
X168203200Y-106359428D01*
X168203200Y-106359428D02*
X168107961Y-106454666D01*
X168107961Y-106454666D02*
X168012723Y-106502285D01*
X168012723Y-106502285D02*
X167822247Y-106549904D01*
X167822247Y-106549904D02*
X167679390Y-106549904D01*
X167679390Y-106549904D02*
X167488914Y-106502285D01*
X167488914Y-106502285D02*
X167393676Y-106454666D01*
X167393676Y-106454666D02*
X167298438Y-106359428D01*
X167298438Y-106359428D02*
X167250819Y-106216571D01*
X167250819Y-106216571D02*
X167250819Y-106121333D01*
X167250819Y-106121333D02*
X167298438Y-105978476D01*
X167298438Y-105978476D02*
X167346057Y-105930857D01*
X168250819Y-104978476D02*
X168250819Y-105549904D01*
X168250819Y-105264190D02*
X167250819Y-105264190D01*
X167250819Y-105264190D02*
X167393676Y-105359428D01*
X167393676Y-105359428D02*
X167488914Y-105454666D01*
X167488914Y-105454666D02*
X167536533Y-105549904D01*
X167250819Y-104645142D02*
X167250819Y-103978476D01*
X167250819Y-103978476D02*
X168250819Y-104407047D01*
X171434819Y-106497333D02*
X172149104Y-106497333D01*
X172149104Y-106497333D02*
X172291961Y-106544952D01*
X172291961Y-106544952D02*
X172387200Y-106640190D01*
X172387200Y-106640190D02*
X172434819Y-106783047D01*
X172434819Y-106783047D02*
X172434819Y-106878285D01*
X172434819Y-106021142D02*
X171434819Y-106021142D01*
X171434819Y-106021142D02*
X171434819Y-105640190D01*
X171434819Y-105640190D02*
X171482438Y-105544952D01*
X171482438Y-105544952D02*
X171530057Y-105497333D01*
X171530057Y-105497333D02*
X171625295Y-105449714D01*
X171625295Y-105449714D02*
X171768152Y-105449714D01*
X171768152Y-105449714D02*
X171863390Y-105497333D01*
X171863390Y-105497333D02*
X171911009Y-105544952D01*
X171911009Y-105544952D02*
X171958628Y-105640190D01*
X171958628Y-105640190D02*
X171958628Y-106021142D01*
X171434819Y-104544952D02*
X171434819Y-105021142D01*
X171434819Y-105021142D02*
X171911009Y-105068761D01*
X171911009Y-105068761D02*
X171863390Y-105021142D01*
X171863390Y-105021142D02*
X171815771Y-104925904D01*
X171815771Y-104925904D02*
X171815771Y-104687809D01*
X171815771Y-104687809D02*
X171863390Y-104592571D01*
X171863390Y-104592571D02*
X171911009Y-104544952D01*
X171911009Y-104544952D02*
X172006247Y-104497333D01*
X172006247Y-104497333D02*
X172244342Y-104497333D01*
X172244342Y-104497333D02*
X172339580Y-104544952D01*
X172339580Y-104544952D02*
X172387200Y-104592571D01*
X172387200Y-104592571D02*
X172434819Y-104687809D01*
X172434819Y-104687809D02*
X172434819Y-104925904D01*
X172434819Y-104925904D02*
X172387200Y-105021142D01*
X172387200Y-105021142D02*
X172339580Y-105068761D01*
X128978819Y-130555045D02*
X128502628Y-130888378D01*
X128978819Y-131126473D02*
X127978819Y-131126473D01*
X127978819Y-131126473D02*
X127978819Y-130745521D01*
X127978819Y-130745521D02*
X128026438Y-130650283D01*
X128026438Y-130650283D02*
X128074057Y-130602664D01*
X128074057Y-130602664D02*
X128169295Y-130555045D01*
X128169295Y-130555045D02*
X128312152Y-130555045D01*
X128312152Y-130555045D02*
X128407390Y-130602664D01*
X128407390Y-130602664D02*
X128455009Y-130650283D01*
X128455009Y-130650283D02*
X128502628Y-130745521D01*
X128502628Y-130745521D02*
X128502628Y-131126473D01*
X128978819Y-130078854D02*
X128978819Y-129888378D01*
X128978819Y-129888378D02*
X128931200Y-129793140D01*
X128931200Y-129793140D02*
X128883580Y-129745521D01*
X128883580Y-129745521D02*
X128740723Y-129650283D01*
X128740723Y-129650283D02*
X128550247Y-129602664D01*
X128550247Y-129602664D02*
X128169295Y-129602664D01*
X128169295Y-129602664D02*
X128074057Y-129650283D01*
X128074057Y-129650283D02*
X128026438Y-129697902D01*
X128026438Y-129697902D02*
X127978819Y-129793140D01*
X127978819Y-129793140D02*
X127978819Y-129983616D01*
X127978819Y-129983616D02*
X128026438Y-130078854D01*
X128026438Y-130078854D02*
X128074057Y-130126473D01*
X128074057Y-130126473D02*
X128169295Y-130174092D01*
X128169295Y-130174092D02*
X128407390Y-130174092D01*
X128407390Y-130174092D02*
X128502628Y-130126473D01*
X128502628Y-130126473D02*
X128550247Y-130078854D01*
X128550247Y-130078854D02*
X128597866Y-129983616D01*
X128597866Y-129983616D02*
X128597866Y-129793140D01*
X128597866Y-129793140D02*
X128550247Y-129697902D01*
X128550247Y-129697902D02*
X128502628Y-129650283D01*
X128502628Y-129650283D02*
X128407390Y-129602664D01*
X115604954Y-93926819D02*
X115271621Y-93450628D01*
X115033526Y-93926819D02*
X115033526Y-92926819D01*
X115033526Y-92926819D02*
X115414478Y-92926819D01*
X115414478Y-92926819D02*
X115509716Y-92974438D01*
X115509716Y-92974438D02*
X115557335Y-93022057D01*
X115557335Y-93022057D02*
X115604954Y-93117295D01*
X115604954Y-93117295D02*
X115604954Y-93260152D01*
X115604954Y-93260152D02*
X115557335Y-93355390D01*
X115557335Y-93355390D02*
X115509716Y-93403009D01*
X115509716Y-93403009D02*
X115414478Y-93450628D01*
X115414478Y-93450628D02*
X115033526Y-93450628D01*
X116462097Y-92926819D02*
X116271621Y-92926819D01*
X116271621Y-92926819D02*
X116176383Y-92974438D01*
X116176383Y-92974438D02*
X116128764Y-93022057D01*
X116128764Y-93022057D02*
X116033526Y-93164914D01*
X116033526Y-93164914D02*
X115985907Y-93355390D01*
X115985907Y-93355390D02*
X115985907Y-93736342D01*
X115985907Y-93736342D02*
X116033526Y-93831580D01*
X116033526Y-93831580D02*
X116081145Y-93879200D01*
X116081145Y-93879200D02*
X116176383Y-93926819D01*
X116176383Y-93926819D02*
X116366859Y-93926819D01*
X116366859Y-93926819D02*
X116462097Y-93879200D01*
X116462097Y-93879200D02*
X116509716Y-93831580D01*
X116509716Y-93831580D02*
X116557335Y-93736342D01*
X116557335Y-93736342D02*
X116557335Y-93498247D01*
X116557335Y-93498247D02*
X116509716Y-93403009D01*
X116509716Y-93403009D02*
X116462097Y-93355390D01*
X116462097Y-93355390D02*
X116366859Y-93307771D01*
X116366859Y-93307771D02*
X116176383Y-93307771D01*
X116176383Y-93307771D02*
X116081145Y-93355390D01*
X116081145Y-93355390D02*
X116033526Y-93403009D01*
X116033526Y-93403009D02*
X115985907Y-93498247D01*
X114054095Y-94450819D02*
X114625523Y-94450819D01*
X114339809Y-95450819D02*
X114339809Y-94450819D01*
X114958857Y-95450819D02*
X114958857Y-94450819D01*
X114958857Y-94450819D02*
X115339809Y-94450819D01*
X115339809Y-94450819D02*
X115435047Y-94498438D01*
X115435047Y-94498438D02*
X115482666Y-94546057D01*
X115482666Y-94546057D02*
X115530285Y-94641295D01*
X115530285Y-94641295D02*
X115530285Y-94784152D01*
X115530285Y-94784152D02*
X115482666Y-94879390D01*
X115482666Y-94879390D02*
X115435047Y-94927009D01*
X115435047Y-94927009D02*
X115339809Y-94974628D01*
X115339809Y-94974628D02*
X114958857Y-94974628D01*
X116435047Y-94450819D02*
X115958857Y-94450819D01*
X115958857Y-94450819D02*
X115911238Y-94927009D01*
X115911238Y-94927009D02*
X115958857Y-94879390D01*
X115958857Y-94879390D02*
X116054095Y-94831771D01*
X116054095Y-94831771D02*
X116292190Y-94831771D01*
X116292190Y-94831771D02*
X116387428Y-94879390D01*
X116387428Y-94879390D02*
X116435047Y-94927009D01*
X116435047Y-94927009D02*
X116482666Y-95022247D01*
X116482666Y-95022247D02*
X116482666Y-95260342D01*
X116482666Y-95260342D02*
X116435047Y-95355580D01*
X116435047Y-95355580D02*
X116387428Y-95403200D01*
X116387428Y-95403200D02*
X116292190Y-95450819D01*
X116292190Y-95450819D02*
X116054095Y-95450819D01*
X116054095Y-95450819D02*
X115958857Y-95403200D01*
X115958857Y-95403200D02*
X115911238Y-95355580D01*
X154265333Y-106531580D02*
X154217714Y-106579200D01*
X154217714Y-106579200D02*
X154074857Y-106626819D01*
X154074857Y-106626819D02*
X153979619Y-106626819D01*
X153979619Y-106626819D02*
X153836762Y-106579200D01*
X153836762Y-106579200D02*
X153741524Y-106483961D01*
X153741524Y-106483961D02*
X153693905Y-106388723D01*
X153693905Y-106388723D02*
X153646286Y-106198247D01*
X153646286Y-106198247D02*
X153646286Y-106055390D01*
X153646286Y-106055390D02*
X153693905Y-105864914D01*
X153693905Y-105864914D02*
X153741524Y-105769676D01*
X153741524Y-105769676D02*
X153836762Y-105674438D01*
X153836762Y-105674438D02*
X153979619Y-105626819D01*
X153979619Y-105626819D02*
X154074857Y-105626819D01*
X154074857Y-105626819D02*
X154217714Y-105674438D01*
X154217714Y-105674438D02*
X154265333Y-105722057D01*
X155170095Y-105626819D02*
X154693905Y-105626819D01*
X154693905Y-105626819D02*
X154646286Y-106103009D01*
X154646286Y-106103009D02*
X154693905Y-106055390D01*
X154693905Y-106055390D02*
X154789143Y-106007771D01*
X154789143Y-106007771D02*
X155027238Y-106007771D01*
X155027238Y-106007771D02*
X155122476Y-106055390D01*
X155122476Y-106055390D02*
X155170095Y-106103009D01*
X155170095Y-106103009D02*
X155217714Y-106198247D01*
X155217714Y-106198247D02*
X155217714Y-106436342D01*
X155217714Y-106436342D02*
X155170095Y-106531580D01*
X155170095Y-106531580D02*
X155122476Y-106579200D01*
X155122476Y-106579200D02*
X155027238Y-106626819D01*
X155027238Y-106626819D02*
X154789143Y-106626819D01*
X154789143Y-106626819D02*
X154693905Y-106579200D01*
X154693905Y-106579200D02*
X154646286Y-106531580D01*
X143202819Y-94712357D02*
X142726628Y-95045690D01*
X143202819Y-95283785D02*
X142202819Y-95283785D01*
X142202819Y-95283785D02*
X142202819Y-94902833D01*
X142202819Y-94902833D02*
X142250438Y-94807595D01*
X142250438Y-94807595D02*
X142298057Y-94759976D01*
X142298057Y-94759976D02*
X142393295Y-94712357D01*
X142393295Y-94712357D02*
X142536152Y-94712357D01*
X142536152Y-94712357D02*
X142631390Y-94759976D01*
X142631390Y-94759976D02*
X142679009Y-94807595D01*
X142679009Y-94807595D02*
X142726628Y-94902833D01*
X142726628Y-94902833D02*
X142726628Y-95283785D01*
X143202819Y-93759976D02*
X143202819Y-94331404D01*
X143202819Y-94045690D02*
X142202819Y-94045690D01*
X142202819Y-94045690D02*
X142345676Y-94140928D01*
X142345676Y-94140928D02*
X142440914Y-94236166D01*
X142440914Y-94236166D02*
X142488533Y-94331404D01*
X142631390Y-93188547D02*
X142583771Y-93283785D01*
X142583771Y-93283785D02*
X142536152Y-93331404D01*
X142536152Y-93331404D02*
X142440914Y-93379023D01*
X142440914Y-93379023D02*
X142393295Y-93379023D01*
X142393295Y-93379023D02*
X142298057Y-93331404D01*
X142298057Y-93331404D02*
X142250438Y-93283785D01*
X142250438Y-93283785D02*
X142202819Y-93188547D01*
X142202819Y-93188547D02*
X142202819Y-92998071D01*
X142202819Y-92998071D02*
X142250438Y-92902833D01*
X142250438Y-92902833D02*
X142298057Y-92855214D01*
X142298057Y-92855214D02*
X142393295Y-92807595D01*
X142393295Y-92807595D02*
X142440914Y-92807595D01*
X142440914Y-92807595D02*
X142536152Y-92855214D01*
X142536152Y-92855214D02*
X142583771Y-92902833D01*
X142583771Y-92902833D02*
X142631390Y-92998071D01*
X142631390Y-92998071D02*
X142631390Y-93188547D01*
X142631390Y-93188547D02*
X142679009Y-93283785D01*
X142679009Y-93283785D02*
X142726628Y-93331404D01*
X142726628Y-93331404D02*
X142821866Y-93379023D01*
X142821866Y-93379023D02*
X143012342Y-93379023D01*
X143012342Y-93379023D02*
X143107580Y-93331404D01*
X143107580Y-93331404D02*
X143155200Y-93283785D01*
X143155200Y-93283785D02*
X143202819Y-93188547D01*
X143202819Y-93188547D02*
X143202819Y-92998071D01*
X143202819Y-92998071D02*
X143155200Y-92902833D01*
X143155200Y-92902833D02*
X143107580Y-92855214D01*
X143107580Y-92855214D02*
X143012342Y-92807595D01*
X143012342Y-92807595D02*
X142821866Y-92807595D01*
X142821866Y-92807595D02*
X142726628Y-92855214D01*
X142726628Y-92855214D02*
X142679009Y-92902833D01*
X142679009Y-92902833D02*
X142631390Y-92998071D01*
X151918819Y-111482094D02*
X150918819Y-111482094D01*
X150918819Y-111482094D02*
X150918819Y-111243999D01*
X150918819Y-111243999D02*
X150966438Y-111101142D01*
X150966438Y-111101142D02*
X151061676Y-111005904D01*
X151061676Y-111005904D02*
X151156914Y-110958285D01*
X151156914Y-110958285D02*
X151347390Y-110910666D01*
X151347390Y-110910666D02*
X151490247Y-110910666D01*
X151490247Y-110910666D02*
X151680723Y-110958285D01*
X151680723Y-110958285D02*
X151775961Y-111005904D01*
X151775961Y-111005904D02*
X151871200Y-111101142D01*
X151871200Y-111101142D02*
X151918819Y-111243999D01*
X151918819Y-111243999D02*
X151918819Y-111482094D01*
X150918819Y-110577332D02*
X150918819Y-109958285D01*
X150918819Y-109958285D02*
X151299771Y-110291618D01*
X151299771Y-110291618D02*
X151299771Y-110148761D01*
X151299771Y-110148761D02*
X151347390Y-110053523D01*
X151347390Y-110053523D02*
X151395009Y-110005904D01*
X151395009Y-110005904D02*
X151490247Y-109958285D01*
X151490247Y-109958285D02*
X151728342Y-109958285D01*
X151728342Y-109958285D02*
X151823580Y-110005904D01*
X151823580Y-110005904D02*
X151871200Y-110053523D01*
X151871200Y-110053523D02*
X151918819Y-110148761D01*
X151918819Y-110148761D02*
X151918819Y-110434475D01*
X151918819Y-110434475D02*
X151871200Y-110529713D01*
X151871200Y-110529713D02*
X151823580Y-110577332D01*
X123833095Y-96389819D02*
X124404523Y-96389819D01*
X124118809Y-97389819D02*
X124118809Y-96389819D01*
X124737857Y-97389819D02*
X124737857Y-96389819D01*
X124737857Y-96389819D02*
X125118809Y-96389819D01*
X125118809Y-96389819D02*
X125214047Y-96437438D01*
X125214047Y-96437438D02*
X125261666Y-96485057D01*
X125261666Y-96485057D02*
X125309285Y-96580295D01*
X125309285Y-96580295D02*
X125309285Y-96723152D01*
X125309285Y-96723152D02*
X125261666Y-96818390D01*
X125261666Y-96818390D02*
X125214047Y-96866009D01*
X125214047Y-96866009D02*
X125118809Y-96913628D01*
X125118809Y-96913628D02*
X124737857Y-96913628D01*
X125690238Y-96485057D02*
X125737857Y-96437438D01*
X125737857Y-96437438D02*
X125833095Y-96389819D01*
X125833095Y-96389819D02*
X126071190Y-96389819D01*
X126071190Y-96389819D02*
X126166428Y-96437438D01*
X126166428Y-96437438D02*
X126214047Y-96485057D01*
X126214047Y-96485057D02*
X126261666Y-96580295D01*
X126261666Y-96580295D02*
X126261666Y-96675533D01*
X126261666Y-96675533D02*
X126214047Y-96818390D01*
X126214047Y-96818390D02*
X125642619Y-97389819D01*
X125642619Y-97389819D02*
X126261666Y-97389819D01*
X145234819Y-110460357D02*
X144758628Y-110793690D01*
X145234819Y-111031785D02*
X144234819Y-111031785D01*
X144234819Y-111031785D02*
X144234819Y-110650833D01*
X144234819Y-110650833D02*
X144282438Y-110555595D01*
X144282438Y-110555595D02*
X144330057Y-110507976D01*
X144330057Y-110507976D02*
X144425295Y-110460357D01*
X144425295Y-110460357D02*
X144568152Y-110460357D01*
X144568152Y-110460357D02*
X144663390Y-110507976D01*
X144663390Y-110507976D02*
X144711009Y-110555595D01*
X144711009Y-110555595D02*
X144758628Y-110650833D01*
X144758628Y-110650833D02*
X144758628Y-111031785D01*
X145234819Y-109507976D02*
X145234819Y-110079404D01*
X145234819Y-109793690D02*
X144234819Y-109793690D01*
X144234819Y-109793690D02*
X144377676Y-109888928D01*
X144377676Y-109888928D02*
X144472914Y-109984166D01*
X144472914Y-109984166D02*
X144520533Y-110079404D01*
X144330057Y-109127023D02*
X144282438Y-109079404D01*
X144282438Y-109079404D02*
X144234819Y-108984166D01*
X144234819Y-108984166D02*
X144234819Y-108746071D01*
X144234819Y-108746071D02*
X144282438Y-108650833D01*
X144282438Y-108650833D02*
X144330057Y-108603214D01*
X144330057Y-108603214D02*
X144425295Y-108555595D01*
X144425295Y-108555595D02*
X144520533Y-108555595D01*
X144520533Y-108555595D02*
X144663390Y-108603214D01*
X144663390Y-108603214D02*
X145234819Y-109174642D01*
X145234819Y-109174642D02*
X145234819Y-108555595D01*
X166917905Y-112772819D02*
X167489333Y-112772819D01*
X167203619Y-113772819D02*
X167203619Y-112772819D01*
X167822667Y-113772819D02*
X167822667Y-112772819D01*
X167822667Y-112772819D02*
X168203619Y-112772819D01*
X168203619Y-112772819D02*
X168298857Y-112820438D01*
X168298857Y-112820438D02*
X168346476Y-112868057D01*
X168346476Y-112868057D02*
X168394095Y-112963295D01*
X168394095Y-112963295D02*
X168394095Y-113106152D01*
X168394095Y-113106152D02*
X168346476Y-113201390D01*
X168346476Y-113201390D02*
X168298857Y-113249009D01*
X168298857Y-113249009D02*
X168203619Y-113296628D01*
X168203619Y-113296628D02*
X167822667Y-113296628D01*
X168775048Y-112868057D02*
X168822667Y-112820438D01*
X168822667Y-112820438D02*
X168917905Y-112772819D01*
X168917905Y-112772819D02*
X169156000Y-112772819D01*
X169156000Y-112772819D02*
X169251238Y-112820438D01*
X169251238Y-112820438D02*
X169298857Y-112868057D01*
X169298857Y-112868057D02*
X169346476Y-112963295D01*
X169346476Y-112963295D02*
X169346476Y-113058533D01*
X169346476Y-113058533D02*
X169298857Y-113201390D01*
X169298857Y-113201390D02*
X168727429Y-113772819D01*
X168727429Y-113772819D02*
X169346476Y-113772819D01*
X169965524Y-112772819D02*
X170060762Y-112772819D01*
X170060762Y-112772819D02*
X170156000Y-112820438D01*
X170156000Y-112820438D02*
X170203619Y-112868057D01*
X170203619Y-112868057D02*
X170251238Y-112963295D01*
X170251238Y-112963295D02*
X170298857Y-113153771D01*
X170298857Y-113153771D02*
X170298857Y-113391866D01*
X170298857Y-113391866D02*
X170251238Y-113582342D01*
X170251238Y-113582342D02*
X170203619Y-113677580D01*
X170203619Y-113677580D02*
X170156000Y-113725200D01*
X170156000Y-113725200D02*
X170060762Y-113772819D01*
X170060762Y-113772819D02*
X169965524Y-113772819D01*
X169965524Y-113772819D02*
X169870286Y-113725200D01*
X169870286Y-113725200D02*
X169822667Y-113677580D01*
X169822667Y-113677580D02*
X169775048Y-113582342D01*
X169775048Y-113582342D02*
X169727429Y-113391866D01*
X169727429Y-113391866D02*
X169727429Y-113153771D01*
X169727429Y-113153771D02*
X169775048Y-112963295D01*
X169775048Y-112963295D02*
X169822667Y-112868057D01*
X169822667Y-112868057D02*
X169870286Y-112820438D01*
X169870286Y-112820438D02*
X169965524Y-112772819D01*
X170418819Y-95560333D02*
X171133104Y-95560333D01*
X171133104Y-95560333D02*
X171275961Y-95607952D01*
X171275961Y-95607952D02*
X171371200Y-95703190D01*
X171371200Y-95703190D02*
X171418819Y-95846047D01*
X171418819Y-95846047D02*
X171418819Y-95941285D01*
X171418819Y-95084142D02*
X170418819Y-95084142D01*
X170418819Y-95084142D02*
X170418819Y-94703190D01*
X170418819Y-94703190D02*
X170466438Y-94607952D01*
X170466438Y-94607952D02*
X170514057Y-94560333D01*
X170514057Y-94560333D02*
X170609295Y-94512714D01*
X170609295Y-94512714D02*
X170752152Y-94512714D01*
X170752152Y-94512714D02*
X170847390Y-94560333D01*
X170847390Y-94560333D02*
X170895009Y-94607952D01*
X170895009Y-94607952D02*
X170942628Y-94703190D01*
X170942628Y-94703190D02*
X170942628Y-95084142D01*
X170418819Y-94179380D02*
X170418819Y-93560333D01*
X170418819Y-93560333D02*
X170799771Y-93893666D01*
X170799771Y-93893666D02*
X170799771Y-93750809D01*
X170799771Y-93750809D02*
X170847390Y-93655571D01*
X170847390Y-93655571D02*
X170895009Y-93607952D01*
X170895009Y-93607952D02*
X170990247Y-93560333D01*
X170990247Y-93560333D02*
X171228342Y-93560333D01*
X171228342Y-93560333D02*
X171323580Y-93607952D01*
X171323580Y-93607952D02*
X171371200Y-93655571D01*
X171371200Y-93655571D02*
X171418819Y-93750809D01*
X171418819Y-93750809D02*
X171418819Y-94036523D01*
X171418819Y-94036523D02*
X171371200Y-94131761D01*
X171371200Y-94131761D02*
X171323580Y-94179380D01*
X117181333Y-89354819D02*
X116848000Y-88878628D01*
X116609905Y-89354819D02*
X116609905Y-88354819D01*
X116609905Y-88354819D02*
X116990857Y-88354819D01*
X116990857Y-88354819D02*
X117086095Y-88402438D01*
X117086095Y-88402438D02*
X117133714Y-88450057D01*
X117133714Y-88450057D02*
X117181333Y-88545295D01*
X117181333Y-88545295D02*
X117181333Y-88688152D01*
X117181333Y-88688152D02*
X117133714Y-88783390D01*
X117133714Y-88783390D02*
X117086095Y-88831009D01*
X117086095Y-88831009D02*
X116990857Y-88878628D01*
X116990857Y-88878628D02*
X116609905Y-88878628D01*
X117752762Y-88783390D02*
X117657524Y-88735771D01*
X117657524Y-88735771D02*
X117609905Y-88688152D01*
X117609905Y-88688152D02*
X117562286Y-88592914D01*
X117562286Y-88592914D02*
X117562286Y-88545295D01*
X117562286Y-88545295D02*
X117609905Y-88450057D01*
X117609905Y-88450057D02*
X117657524Y-88402438D01*
X117657524Y-88402438D02*
X117752762Y-88354819D01*
X117752762Y-88354819D02*
X117943238Y-88354819D01*
X117943238Y-88354819D02*
X118038476Y-88402438D01*
X118038476Y-88402438D02*
X118086095Y-88450057D01*
X118086095Y-88450057D02*
X118133714Y-88545295D01*
X118133714Y-88545295D02*
X118133714Y-88592914D01*
X118133714Y-88592914D02*
X118086095Y-88688152D01*
X118086095Y-88688152D02*
X118038476Y-88735771D01*
X118038476Y-88735771D02*
X117943238Y-88783390D01*
X117943238Y-88783390D02*
X117752762Y-88783390D01*
X117752762Y-88783390D02*
X117657524Y-88831009D01*
X117657524Y-88831009D02*
X117609905Y-88878628D01*
X117609905Y-88878628D02*
X117562286Y-88973866D01*
X117562286Y-88973866D02*
X117562286Y-89164342D01*
X117562286Y-89164342D02*
X117609905Y-89259580D01*
X117609905Y-89259580D02*
X117657524Y-89307200D01*
X117657524Y-89307200D02*
X117752762Y-89354819D01*
X117752762Y-89354819D02*
X117943238Y-89354819D01*
X117943238Y-89354819D02*
X118038476Y-89307200D01*
X118038476Y-89307200D02*
X118086095Y-89259580D01*
X118086095Y-89259580D02*
X118133714Y-89164342D01*
X118133714Y-89164342D02*
X118133714Y-88973866D01*
X118133714Y-88973866D02*
X118086095Y-88878628D01*
X118086095Y-88878628D02*
X118038476Y-88831009D01*
X118038476Y-88831009D02*
X117943238Y-88783390D01*
X98337905Y-126454819D02*
X98909333Y-126454819D01*
X98623619Y-127454819D02*
X98623619Y-126454819D01*
X99242667Y-127454819D02*
X99242667Y-126454819D01*
X99242667Y-126454819D02*
X99623619Y-126454819D01*
X99623619Y-126454819D02*
X99718857Y-126502438D01*
X99718857Y-126502438D02*
X99766476Y-126550057D01*
X99766476Y-126550057D02*
X99814095Y-126645295D01*
X99814095Y-126645295D02*
X99814095Y-126788152D01*
X99814095Y-126788152D02*
X99766476Y-126883390D01*
X99766476Y-126883390D02*
X99718857Y-126931009D01*
X99718857Y-126931009D02*
X99623619Y-126978628D01*
X99623619Y-126978628D02*
X99242667Y-126978628D01*
X100766476Y-127454819D02*
X100195048Y-127454819D01*
X100480762Y-127454819D02*
X100480762Y-126454819D01*
X100480762Y-126454819D02*
X100385524Y-126597676D01*
X100385524Y-126597676D02*
X100290286Y-126692914D01*
X100290286Y-126692914D02*
X100195048Y-126740533D01*
X101623619Y-126788152D02*
X101623619Y-127454819D01*
X101385524Y-126407200D02*
X101147429Y-127121485D01*
X101147429Y-127121485D02*
X101766476Y-127121485D01*
X162853905Y-114296819D02*
X163425333Y-114296819D01*
X163139619Y-115296819D02*
X163139619Y-114296819D01*
X163758667Y-115296819D02*
X163758667Y-114296819D01*
X163758667Y-114296819D02*
X164139619Y-114296819D01*
X164139619Y-114296819D02*
X164234857Y-114344438D01*
X164234857Y-114344438D02*
X164282476Y-114392057D01*
X164282476Y-114392057D02*
X164330095Y-114487295D01*
X164330095Y-114487295D02*
X164330095Y-114630152D01*
X164330095Y-114630152D02*
X164282476Y-114725390D01*
X164282476Y-114725390D02*
X164234857Y-114773009D01*
X164234857Y-114773009D02*
X164139619Y-114820628D01*
X164139619Y-114820628D02*
X163758667Y-114820628D01*
X165282476Y-115296819D02*
X164711048Y-115296819D01*
X164996762Y-115296819D02*
X164996762Y-114296819D01*
X164996762Y-114296819D02*
X164901524Y-114439676D01*
X164901524Y-114439676D02*
X164806286Y-114534914D01*
X164806286Y-114534914D02*
X164711048Y-114582533D01*
X165758667Y-115296819D02*
X165949143Y-115296819D01*
X165949143Y-115296819D02*
X166044381Y-115249200D01*
X166044381Y-115249200D02*
X166092000Y-115201580D01*
X166092000Y-115201580D02*
X166187238Y-115058723D01*
X166187238Y-115058723D02*
X166234857Y-114868247D01*
X166234857Y-114868247D02*
X166234857Y-114487295D01*
X166234857Y-114487295D02*
X166187238Y-114392057D01*
X166187238Y-114392057D02*
X166139619Y-114344438D01*
X166139619Y-114344438D02*
X166044381Y-114296819D01*
X166044381Y-114296819D02*
X165853905Y-114296819D01*
X165853905Y-114296819D02*
X165758667Y-114344438D01*
X165758667Y-114344438D02*
X165711048Y-114392057D01*
X165711048Y-114392057D02*
X165663429Y-114487295D01*
X165663429Y-114487295D02*
X165663429Y-114725390D01*
X165663429Y-114725390D02*
X165711048Y-114820628D01*
X165711048Y-114820628D02*
X165758667Y-114868247D01*
X165758667Y-114868247D02*
X165853905Y-114915866D01*
X165853905Y-114915866D02*
X166044381Y-114915866D01*
X166044381Y-114915866D02*
X166139619Y-114868247D01*
X166139619Y-114868247D02*
X166187238Y-114820628D01*
X166187238Y-114820628D02*
X166234857Y-114725390D01*
X141356595Y-110124819D02*
X141356595Y-110934342D01*
X141356595Y-110934342D02*
X141404214Y-111029580D01*
X141404214Y-111029580D02*
X141451833Y-111077200D01*
X141451833Y-111077200D02*
X141547071Y-111124819D01*
X141547071Y-111124819D02*
X141737547Y-111124819D01*
X141737547Y-111124819D02*
X141832785Y-111077200D01*
X141832785Y-111077200D02*
X141880404Y-111029580D01*
X141880404Y-111029580D02*
X141928023Y-110934342D01*
X141928023Y-110934342D02*
X141928023Y-110124819D01*
X142832785Y-110458152D02*
X142832785Y-111124819D01*
X142594690Y-110077200D02*
X142356595Y-110791485D01*
X142356595Y-110791485D02*
X142975642Y-110791485D01*
X142533905Y-95500819D02*
X143105333Y-95500819D01*
X142819619Y-96500819D02*
X142819619Y-95500819D01*
X143438667Y-96500819D02*
X143438667Y-95500819D01*
X143438667Y-95500819D02*
X143819619Y-95500819D01*
X143819619Y-95500819D02*
X143914857Y-95548438D01*
X143914857Y-95548438D02*
X143962476Y-95596057D01*
X143962476Y-95596057D02*
X144010095Y-95691295D01*
X144010095Y-95691295D02*
X144010095Y-95834152D01*
X144010095Y-95834152D02*
X143962476Y-95929390D01*
X143962476Y-95929390D02*
X143914857Y-95977009D01*
X143914857Y-95977009D02*
X143819619Y-96024628D01*
X143819619Y-96024628D02*
X143438667Y-96024628D01*
X144962476Y-96500819D02*
X144391048Y-96500819D01*
X144676762Y-96500819D02*
X144676762Y-95500819D01*
X144676762Y-95500819D02*
X144581524Y-95643676D01*
X144581524Y-95643676D02*
X144486286Y-95738914D01*
X144486286Y-95738914D02*
X144391048Y-95786533D01*
X145914857Y-96500819D02*
X145343429Y-96500819D01*
X145629143Y-96500819D02*
X145629143Y-95500819D01*
X145629143Y-95500819D02*
X145533905Y-95643676D01*
X145533905Y-95643676D02*
X145438667Y-95738914D01*
X145438667Y-95738914D02*
X145343429Y-95786533D01*
X154805142Y-88338819D02*
X154471809Y-87862628D01*
X154233714Y-88338819D02*
X154233714Y-87338819D01*
X154233714Y-87338819D02*
X154614666Y-87338819D01*
X154614666Y-87338819D02*
X154709904Y-87386438D01*
X154709904Y-87386438D02*
X154757523Y-87434057D01*
X154757523Y-87434057D02*
X154805142Y-87529295D01*
X154805142Y-87529295D02*
X154805142Y-87672152D01*
X154805142Y-87672152D02*
X154757523Y-87767390D01*
X154757523Y-87767390D02*
X154709904Y-87815009D01*
X154709904Y-87815009D02*
X154614666Y-87862628D01*
X154614666Y-87862628D02*
X154233714Y-87862628D01*
X155757523Y-88338819D02*
X155186095Y-88338819D01*
X155471809Y-88338819D02*
X155471809Y-87338819D01*
X155471809Y-87338819D02*
X155376571Y-87481676D01*
X155376571Y-87481676D02*
X155281333Y-87576914D01*
X155281333Y-87576914D02*
X155186095Y-87624533D01*
X156662285Y-87338819D02*
X156186095Y-87338819D01*
X156186095Y-87338819D02*
X156138476Y-87815009D01*
X156138476Y-87815009D02*
X156186095Y-87767390D01*
X156186095Y-87767390D02*
X156281333Y-87719771D01*
X156281333Y-87719771D02*
X156519428Y-87719771D01*
X156519428Y-87719771D02*
X156614666Y-87767390D01*
X156614666Y-87767390D02*
X156662285Y-87815009D01*
X156662285Y-87815009D02*
X156709904Y-87910247D01*
X156709904Y-87910247D02*
X156709904Y-88148342D01*
X156709904Y-88148342D02*
X156662285Y-88243580D01*
X156662285Y-88243580D02*
X156614666Y-88291200D01*
X156614666Y-88291200D02*
X156519428Y-88338819D01*
X156519428Y-88338819D02*
X156281333Y-88338819D01*
X156281333Y-88338819D02*
X156186095Y-88291200D01*
X156186095Y-88291200D02*
X156138476Y-88243580D01*
X162660819Y-106835857D02*
X162184628Y-107169190D01*
X162660819Y-107407285D02*
X161660819Y-107407285D01*
X161660819Y-107407285D02*
X161660819Y-107026333D01*
X161660819Y-107026333D02*
X161708438Y-106931095D01*
X161708438Y-106931095D02*
X161756057Y-106883476D01*
X161756057Y-106883476D02*
X161851295Y-106835857D01*
X161851295Y-106835857D02*
X161994152Y-106835857D01*
X161994152Y-106835857D02*
X162089390Y-106883476D01*
X162089390Y-106883476D02*
X162137009Y-106931095D01*
X162137009Y-106931095D02*
X162184628Y-107026333D01*
X162184628Y-107026333D02*
X162184628Y-107407285D01*
X162660819Y-105883476D02*
X162660819Y-106454904D01*
X162660819Y-106169190D02*
X161660819Y-106169190D01*
X161660819Y-106169190D02*
X161803676Y-106264428D01*
X161803676Y-106264428D02*
X161898914Y-106359666D01*
X161898914Y-106359666D02*
X161946533Y-106454904D01*
X161660819Y-105550142D02*
X161660819Y-104883476D01*
X161660819Y-104883476D02*
X162660819Y-105312047D01*
X132588095Y-98939819D02*
X132588095Y-97939819D01*
X132588095Y-98416009D02*
X133159523Y-98416009D01*
X133159523Y-98939819D02*
X133159523Y-97939819D01*
X133588095Y-98035057D02*
X133635714Y-97987438D01*
X133635714Y-97987438D02*
X133730952Y-97939819D01*
X133730952Y-97939819D02*
X133969047Y-97939819D01*
X133969047Y-97939819D02*
X134064285Y-97987438D01*
X134064285Y-97987438D02*
X134111904Y-98035057D01*
X134111904Y-98035057D02*
X134159523Y-98130295D01*
X134159523Y-98130295D02*
X134159523Y-98225533D01*
X134159523Y-98225533D02*
X134111904Y-98368390D01*
X134111904Y-98368390D02*
X133540476Y-98939819D01*
X133540476Y-98939819D02*
X134159523Y-98939819D01*
X134374095Y-108674819D02*
X134945523Y-108674819D01*
X134659809Y-109674819D02*
X134659809Y-108674819D01*
X135278857Y-109674819D02*
X135278857Y-108674819D01*
X135278857Y-108674819D02*
X135659809Y-108674819D01*
X135659809Y-108674819D02*
X135755047Y-108722438D01*
X135755047Y-108722438D02*
X135802666Y-108770057D01*
X135802666Y-108770057D02*
X135850285Y-108865295D01*
X135850285Y-108865295D02*
X135850285Y-109008152D01*
X135850285Y-109008152D02*
X135802666Y-109103390D01*
X135802666Y-109103390D02*
X135755047Y-109151009D01*
X135755047Y-109151009D02*
X135659809Y-109198628D01*
X135659809Y-109198628D02*
X135278857Y-109198628D01*
X136421714Y-109103390D02*
X136326476Y-109055771D01*
X136326476Y-109055771D02*
X136278857Y-109008152D01*
X136278857Y-109008152D02*
X136231238Y-108912914D01*
X136231238Y-108912914D02*
X136231238Y-108865295D01*
X136231238Y-108865295D02*
X136278857Y-108770057D01*
X136278857Y-108770057D02*
X136326476Y-108722438D01*
X136326476Y-108722438D02*
X136421714Y-108674819D01*
X136421714Y-108674819D02*
X136612190Y-108674819D01*
X136612190Y-108674819D02*
X136707428Y-108722438D01*
X136707428Y-108722438D02*
X136755047Y-108770057D01*
X136755047Y-108770057D02*
X136802666Y-108865295D01*
X136802666Y-108865295D02*
X136802666Y-108912914D01*
X136802666Y-108912914D02*
X136755047Y-109008152D01*
X136755047Y-109008152D02*
X136707428Y-109055771D01*
X136707428Y-109055771D02*
X136612190Y-109103390D01*
X136612190Y-109103390D02*
X136421714Y-109103390D01*
X136421714Y-109103390D02*
X136326476Y-109151009D01*
X136326476Y-109151009D02*
X136278857Y-109198628D01*
X136278857Y-109198628D02*
X136231238Y-109293866D01*
X136231238Y-109293866D02*
X136231238Y-109484342D01*
X136231238Y-109484342D02*
X136278857Y-109579580D01*
X136278857Y-109579580D02*
X136326476Y-109627200D01*
X136326476Y-109627200D02*
X136421714Y-109674819D01*
X136421714Y-109674819D02*
X136612190Y-109674819D01*
X136612190Y-109674819D02*
X136707428Y-109627200D01*
X136707428Y-109627200D02*
X136755047Y-109579580D01*
X136755047Y-109579580D02*
X136802666Y-109484342D01*
X136802666Y-109484342D02*
X136802666Y-109293866D01*
X136802666Y-109293866D02*
X136755047Y-109198628D01*
X136755047Y-109198628D02*
X136707428Y-109151009D01*
X136707428Y-109151009D02*
X136612190Y-109103390D01*
X157580819Y-95549357D02*
X157104628Y-95882690D01*
X157580819Y-96120785D02*
X156580819Y-96120785D01*
X156580819Y-96120785D02*
X156580819Y-95739833D01*
X156580819Y-95739833D02*
X156628438Y-95644595D01*
X156628438Y-95644595D02*
X156676057Y-95596976D01*
X156676057Y-95596976D02*
X156771295Y-95549357D01*
X156771295Y-95549357D02*
X156914152Y-95549357D01*
X156914152Y-95549357D02*
X157009390Y-95596976D01*
X157009390Y-95596976D02*
X157057009Y-95644595D01*
X157057009Y-95644595D02*
X157104628Y-95739833D01*
X157104628Y-95739833D02*
X157104628Y-96120785D01*
X157580819Y-94596976D02*
X157580819Y-95168404D01*
X157580819Y-94882690D02*
X156580819Y-94882690D01*
X156580819Y-94882690D02*
X156723676Y-94977928D01*
X156723676Y-94977928D02*
X156818914Y-95073166D01*
X156818914Y-95073166D02*
X156866533Y-95168404D01*
X157580819Y-94120785D02*
X157580819Y-93930309D01*
X157580819Y-93930309D02*
X157533200Y-93835071D01*
X157533200Y-93835071D02*
X157485580Y-93787452D01*
X157485580Y-93787452D02*
X157342723Y-93692214D01*
X157342723Y-93692214D02*
X157152247Y-93644595D01*
X157152247Y-93644595D02*
X156771295Y-93644595D01*
X156771295Y-93644595D02*
X156676057Y-93692214D01*
X156676057Y-93692214D02*
X156628438Y-93739833D01*
X156628438Y-93739833D02*
X156580819Y-93835071D01*
X156580819Y-93835071D02*
X156580819Y-94025547D01*
X156580819Y-94025547D02*
X156628438Y-94120785D01*
X156628438Y-94120785D02*
X156676057Y-94168404D01*
X156676057Y-94168404D02*
X156771295Y-94216023D01*
X156771295Y-94216023D02*
X157009390Y-94216023D01*
X157009390Y-94216023D02*
X157104628Y-94168404D01*
X157104628Y-94168404D02*
X157152247Y-94120785D01*
X157152247Y-94120785D02*
X157199866Y-94025547D01*
X157199866Y-94025547D02*
X157199866Y-93835071D01*
X157199866Y-93835071D02*
X157152247Y-93739833D01*
X157152247Y-93739833D02*
X157104628Y-93692214D01*
X157104628Y-93692214D02*
X157009390Y-93644595D01*
X106626819Y-126153594D02*
X105626819Y-126153594D01*
X105626819Y-126153594D02*
X105626819Y-125915499D01*
X105626819Y-125915499D02*
X105674438Y-125772642D01*
X105674438Y-125772642D02*
X105769676Y-125677404D01*
X105769676Y-125677404D02*
X105864914Y-125629785D01*
X105864914Y-125629785D02*
X106055390Y-125582166D01*
X106055390Y-125582166D02*
X106198247Y-125582166D01*
X106198247Y-125582166D02*
X106388723Y-125629785D01*
X106388723Y-125629785D02*
X106483961Y-125677404D01*
X106483961Y-125677404D02*
X106579200Y-125772642D01*
X106579200Y-125772642D02*
X106626819Y-125915499D01*
X106626819Y-125915499D02*
X106626819Y-126153594D01*
X105960152Y-124725023D02*
X106626819Y-124725023D01*
X105579200Y-124963118D02*
X106293485Y-125201213D01*
X106293485Y-125201213D02*
X106293485Y-124582166D01*
X133581095Y-115644200D02*
X133723952Y-115691819D01*
X133723952Y-115691819D02*
X133962047Y-115691819D01*
X133962047Y-115691819D02*
X134057285Y-115644200D01*
X134057285Y-115644200D02*
X134104904Y-115596580D01*
X134104904Y-115596580D02*
X134152523Y-115501342D01*
X134152523Y-115501342D02*
X134152523Y-115406104D01*
X134152523Y-115406104D02*
X134104904Y-115310866D01*
X134104904Y-115310866D02*
X134057285Y-115263247D01*
X134057285Y-115263247D02*
X133962047Y-115215628D01*
X133962047Y-115215628D02*
X133771571Y-115168009D01*
X133771571Y-115168009D02*
X133676333Y-115120390D01*
X133676333Y-115120390D02*
X133628714Y-115072771D01*
X133628714Y-115072771D02*
X133581095Y-114977533D01*
X133581095Y-114977533D02*
X133581095Y-114882295D01*
X133581095Y-114882295D02*
X133628714Y-114787057D01*
X133628714Y-114787057D02*
X133676333Y-114739438D01*
X133676333Y-114739438D02*
X133771571Y-114691819D01*
X133771571Y-114691819D02*
X134009666Y-114691819D01*
X134009666Y-114691819D02*
X134152523Y-114739438D01*
X135104904Y-115691819D02*
X134533476Y-115691819D01*
X134819190Y-115691819D02*
X134819190Y-114691819D01*
X134819190Y-114691819D02*
X134723952Y-114834676D01*
X134723952Y-114834676D02*
X134628714Y-114929914D01*
X134628714Y-114929914D02*
X134533476Y-114977533D01*
X102450666Y-93911819D02*
X102450666Y-94626104D01*
X102450666Y-94626104D02*
X102403047Y-94768961D01*
X102403047Y-94768961D02*
X102307809Y-94864200D01*
X102307809Y-94864200D02*
X102164952Y-94911819D01*
X102164952Y-94911819D02*
X102069714Y-94911819D01*
X103355428Y-94245152D02*
X103355428Y-94911819D01*
X103117333Y-93864200D02*
X102879238Y-94578485D01*
X102879238Y-94578485D02*
X103498285Y-94578485D01*
X110439580Y-120022857D02*
X110487200Y-120070476D01*
X110487200Y-120070476D02*
X110534819Y-120213333D01*
X110534819Y-120213333D02*
X110534819Y-120308571D01*
X110534819Y-120308571D02*
X110487200Y-120451428D01*
X110487200Y-120451428D02*
X110391961Y-120546666D01*
X110391961Y-120546666D02*
X110296723Y-120594285D01*
X110296723Y-120594285D02*
X110106247Y-120641904D01*
X110106247Y-120641904D02*
X109963390Y-120641904D01*
X109963390Y-120641904D02*
X109772914Y-120594285D01*
X109772914Y-120594285D02*
X109677676Y-120546666D01*
X109677676Y-120546666D02*
X109582438Y-120451428D01*
X109582438Y-120451428D02*
X109534819Y-120308571D01*
X109534819Y-120308571D02*
X109534819Y-120213333D01*
X109534819Y-120213333D02*
X109582438Y-120070476D01*
X109582438Y-120070476D02*
X109630057Y-120022857D01*
X110534819Y-119070476D02*
X110534819Y-119641904D01*
X110534819Y-119356190D02*
X109534819Y-119356190D01*
X109534819Y-119356190D02*
X109677676Y-119451428D01*
X109677676Y-119451428D02*
X109772914Y-119546666D01*
X109772914Y-119546666D02*
X109820533Y-119641904D01*
X109534819Y-118451428D02*
X109534819Y-118356190D01*
X109534819Y-118356190D02*
X109582438Y-118260952D01*
X109582438Y-118260952D02*
X109630057Y-118213333D01*
X109630057Y-118213333D02*
X109725295Y-118165714D01*
X109725295Y-118165714D02*
X109915771Y-118118095D01*
X109915771Y-118118095D02*
X110153866Y-118118095D01*
X110153866Y-118118095D02*
X110344342Y-118165714D01*
X110344342Y-118165714D02*
X110439580Y-118213333D01*
X110439580Y-118213333D02*
X110487200Y-118260952D01*
X110487200Y-118260952D02*
X110534819Y-118356190D01*
X110534819Y-118356190D02*
X110534819Y-118451428D01*
X110534819Y-118451428D02*
X110487200Y-118546666D01*
X110487200Y-118546666D02*
X110439580Y-118594285D01*
X110439580Y-118594285D02*
X110344342Y-118641904D01*
X110344342Y-118641904D02*
X110153866Y-118689523D01*
X110153866Y-118689523D02*
X109915771Y-118689523D01*
X109915771Y-118689523D02*
X109725295Y-118641904D01*
X109725295Y-118641904D02*
X109630057Y-118594285D01*
X109630057Y-118594285D02*
X109582438Y-118546666D01*
X109582438Y-118546666D02*
X109534819Y-118451428D01*
X155455580Y-127664357D02*
X155503200Y-127711976D01*
X155503200Y-127711976D02*
X155550819Y-127854833D01*
X155550819Y-127854833D02*
X155550819Y-127950071D01*
X155550819Y-127950071D02*
X155503200Y-128092928D01*
X155503200Y-128092928D02*
X155407961Y-128188166D01*
X155407961Y-128188166D02*
X155312723Y-128235785D01*
X155312723Y-128235785D02*
X155122247Y-128283404D01*
X155122247Y-128283404D02*
X154979390Y-128283404D01*
X154979390Y-128283404D02*
X154788914Y-128235785D01*
X154788914Y-128235785D02*
X154693676Y-128188166D01*
X154693676Y-128188166D02*
X154598438Y-128092928D01*
X154598438Y-128092928D02*
X154550819Y-127950071D01*
X154550819Y-127950071D02*
X154550819Y-127854833D01*
X154550819Y-127854833D02*
X154598438Y-127711976D01*
X154598438Y-127711976D02*
X154646057Y-127664357D01*
X155550819Y-126711976D02*
X155550819Y-127283404D01*
X155550819Y-126997690D02*
X154550819Y-126997690D01*
X154550819Y-126997690D02*
X154693676Y-127092928D01*
X154693676Y-127092928D02*
X154788914Y-127188166D01*
X154788914Y-127188166D02*
X154836533Y-127283404D01*
X155550819Y-125759595D02*
X155550819Y-126331023D01*
X155550819Y-126045309D02*
X154550819Y-126045309D01*
X154550819Y-126045309D02*
X154693676Y-126140547D01*
X154693676Y-126140547D02*
X154788914Y-126235785D01*
X154788914Y-126235785D02*
X154836533Y-126331023D01*
X165949333Y-97802819D02*
X165473143Y-97802819D01*
X165473143Y-97802819D02*
X165473143Y-96802819D01*
X166235048Y-96898057D02*
X166282667Y-96850438D01*
X166282667Y-96850438D02*
X166377905Y-96802819D01*
X166377905Y-96802819D02*
X166616000Y-96802819D01*
X166616000Y-96802819D02*
X166711238Y-96850438D01*
X166711238Y-96850438D02*
X166758857Y-96898057D01*
X166758857Y-96898057D02*
X166806476Y-96993295D01*
X166806476Y-96993295D02*
X166806476Y-97088533D01*
X166806476Y-97088533D02*
X166758857Y-97231390D01*
X166758857Y-97231390D02*
X166187429Y-97802819D01*
X166187429Y-97802819D02*
X166806476Y-97802819D01*
X155233905Y-130518819D02*
X155805333Y-130518819D01*
X155519619Y-131518819D02*
X155519619Y-130518819D01*
X156138667Y-131518819D02*
X156138667Y-130518819D01*
X156138667Y-130518819D02*
X156519619Y-130518819D01*
X156519619Y-130518819D02*
X156614857Y-130566438D01*
X156614857Y-130566438D02*
X156662476Y-130614057D01*
X156662476Y-130614057D02*
X156710095Y-130709295D01*
X156710095Y-130709295D02*
X156710095Y-130852152D01*
X156710095Y-130852152D02*
X156662476Y-130947390D01*
X156662476Y-130947390D02*
X156614857Y-130995009D01*
X156614857Y-130995009D02*
X156519619Y-131042628D01*
X156519619Y-131042628D02*
X156138667Y-131042628D01*
X157662476Y-131518819D02*
X157091048Y-131518819D01*
X157376762Y-131518819D02*
X157376762Y-130518819D01*
X157376762Y-130518819D02*
X157281524Y-130661676D01*
X157281524Y-130661676D02*
X157186286Y-130756914D01*
X157186286Y-130756914D02*
X157091048Y-130804533D01*
X157995810Y-130518819D02*
X158662476Y-130518819D01*
X158662476Y-130518819D02*
X158233905Y-131518819D01*
X113584819Y-98086666D02*
X113108628Y-98419999D01*
X113584819Y-98658094D02*
X112584819Y-98658094D01*
X112584819Y-98658094D02*
X112584819Y-98277142D01*
X112584819Y-98277142D02*
X112632438Y-98181904D01*
X112632438Y-98181904D02*
X112680057Y-98134285D01*
X112680057Y-98134285D02*
X112775295Y-98086666D01*
X112775295Y-98086666D02*
X112918152Y-98086666D01*
X112918152Y-98086666D02*
X113013390Y-98134285D01*
X113013390Y-98134285D02*
X113061009Y-98181904D01*
X113061009Y-98181904D02*
X113108628Y-98277142D01*
X113108628Y-98277142D02*
X113108628Y-98658094D01*
X112584819Y-97753332D02*
X112584819Y-97086666D01*
X112584819Y-97086666D02*
X113584819Y-97515237D01*
X148169333Y-96019580D02*
X148121714Y-96067200D01*
X148121714Y-96067200D02*
X147978857Y-96114819D01*
X147978857Y-96114819D02*
X147883619Y-96114819D01*
X147883619Y-96114819D02*
X147740762Y-96067200D01*
X147740762Y-96067200D02*
X147645524Y-95971961D01*
X147645524Y-95971961D02*
X147597905Y-95876723D01*
X147597905Y-95876723D02*
X147550286Y-95686247D01*
X147550286Y-95686247D02*
X147550286Y-95543390D01*
X147550286Y-95543390D02*
X147597905Y-95352914D01*
X147597905Y-95352914D02*
X147645524Y-95257676D01*
X147645524Y-95257676D02*
X147740762Y-95162438D01*
X147740762Y-95162438D02*
X147883619Y-95114819D01*
X147883619Y-95114819D02*
X147978857Y-95114819D01*
X147978857Y-95114819D02*
X148121714Y-95162438D01*
X148121714Y-95162438D02*
X148169333Y-95210057D01*
X148502667Y-95114819D02*
X149169333Y-95114819D01*
X149169333Y-95114819D02*
X148740762Y-96114819D01*
X112053905Y-113788819D02*
X112625333Y-113788819D01*
X112339619Y-114788819D02*
X112339619Y-113788819D01*
X112958667Y-114788819D02*
X112958667Y-113788819D01*
X112958667Y-113788819D02*
X113339619Y-113788819D01*
X113339619Y-113788819D02*
X113434857Y-113836438D01*
X113434857Y-113836438D02*
X113482476Y-113884057D01*
X113482476Y-113884057D02*
X113530095Y-113979295D01*
X113530095Y-113979295D02*
X113530095Y-114122152D01*
X113530095Y-114122152D02*
X113482476Y-114217390D01*
X113482476Y-114217390D02*
X113434857Y-114265009D01*
X113434857Y-114265009D02*
X113339619Y-114312628D01*
X113339619Y-114312628D02*
X112958667Y-114312628D01*
X114482476Y-114788819D02*
X113911048Y-114788819D01*
X114196762Y-114788819D02*
X114196762Y-113788819D01*
X114196762Y-113788819D02*
X114101524Y-113931676D01*
X114101524Y-113931676D02*
X114006286Y-114026914D01*
X114006286Y-114026914D02*
X113911048Y-114074533D01*
X114863429Y-113884057D02*
X114911048Y-113836438D01*
X114911048Y-113836438D02*
X115006286Y-113788819D01*
X115006286Y-113788819D02*
X115244381Y-113788819D01*
X115244381Y-113788819D02*
X115339619Y-113836438D01*
X115339619Y-113836438D02*
X115387238Y-113884057D01*
X115387238Y-113884057D02*
X115434857Y-113979295D01*
X115434857Y-113979295D02*
X115434857Y-114074533D01*
X115434857Y-114074533D02*
X115387238Y-114217390D01*
X115387238Y-114217390D02*
X114815810Y-114788819D01*
X114815810Y-114788819D02*
X115434857Y-114788819D01*
D11*
%TO.C,C3*%
X96293000Y-95750748D02*
X96293000Y-96273252D01*
X97763000Y-95750748D02*
X97763000Y-96273252D01*
%TO.C,U2*%
X118681500Y-89284500D02*
X119156500Y-89284500D01*
X118681500Y-89759500D02*
X118681500Y-89284500D01*
X118681500Y-92029500D02*
X118681500Y-92204500D01*
X119156500Y-92504500D02*
X118921500Y-92504500D01*
X121901500Y-89284500D02*
X121426500Y-89284500D01*
X121901500Y-89759500D02*
X121901500Y-89284500D01*
X121901500Y-92029500D02*
X121901500Y-92504500D01*
X121901500Y-92504500D02*
X121426500Y-92504500D01*
X118681500Y-92504500D02*
X118351500Y-92744500D01*
X118351500Y-92264500D01*
X118681500Y-92504500D01*
G36*
X118681500Y-92504500D02*
G01*
X118351500Y-92744500D01*
X118351500Y-92264500D01*
X118681500Y-92504500D01*
G37*
%TO.C,C12*%
X157253000Y-126738748D02*
X157253000Y-127261252D01*
X158723000Y-126738748D02*
X158723000Y-127261252D01*
%TO.C,R13*%
X145416000Y-112100379D02*
X145416000Y-112435621D01*
X146176000Y-112100379D02*
X146176000Y-112435621D01*
%TO.C,TP18*%
X162236000Y-125984000D02*
G75*
G02*
X159836000Y-125984000I-1200000J0D01*
G01*
X159836000Y-125984000D02*
G75*
G02*
X162236000Y-125984000I1200000J0D01*
G01*
%TO.C,C14*%
X120931000Y-95750748D02*
X120931000Y-96273252D01*
X122401000Y-95750748D02*
X122401000Y-96273252D01*
%TO.C,D7*%
X152454000Y-115413000D02*
X152454000Y-119283000D01*
X152454000Y-119283000D02*
X159614000Y-119283000D01*
X159614000Y-115413000D02*
X152454000Y-115413000D01*
%TO.C,Q1*%
X117777500Y-96484000D02*
X117127500Y-96484000D01*
X117777500Y-96484000D02*
X118427500Y-96484000D01*
X117777500Y-99604000D02*
X117127500Y-99604000D01*
X117777500Y-99604000D02*
X118427500Y-99604000D01*
X119180000Y-99884000D02*
X118700000Y-99884000D01*
X118940000Y-99554000D01*
X119180000Y-99884000D01*
G36*
X119180000Y-99884000D02*
G01*
X118700000Y-99884000D01*
X118940000Y-99554000D01*
X119180000Y-99884000D01*
G37*
%TO.C,TP10*%
X170872000Y-110744000D02*
G75*
G02*
X168472000Y-110744000I-1200000J0D01*
G01*
X168472000Y-110744000D02*
G75*
G02*
X170872000Y-110744000I1200000J0D01*
G01*
%TO.C,R16*%
X160656000Y-103820621D02*
X160656000Y-103485379D01*
X161416000Y-103820621D02*
X161416000Y-103485379D01*
%TO.C,TP1*%
X111926000Y-98428000D02*
G75*
G02*
X109526000Y-98428000I-1200000J0D01*
G01*
X109526000Y-98428000D02*
G75*
G02*
X111926000Y-98428000I1200000J0D01*
G01*
%TO.C,TP15*%
X112452000Y-131572000D02*
G75*
G02*
X110052000Y-131572000I-1200000J0D01*
G01*
X110052000Y-131572000D02*
G75*
G02*
X112452000Y-131572000I1200000J0D01*
G01*
%TO.C,J2*%
X112970000Y-135830000D02*
X112970000Y-141030000D01*
X151130000Y-135830000D02*
X112970000Y-135830000D01*
X151130000Y-135830000D02*
X151130000Y-138430000D01*
X151130000Y-138430000D02*
X153730000Y-138430000D01*
X152400000Y-135830000D02*
X153730000Y-135830000D01*
X153730000Y-135830000D02*
X153730000Y-137160000D01*
X153730000Y-138430000D02*
X153730000Y-141030000D01*
X153730000Y-141030000D02*
X112970000Y-141030000D01*
%TO.C,JP4*%
X154448000Y-106804000D02*
X156448000Y-106804000D01*
X154448000Y-109604000D02*
X154448000Y-106804000D01*
X156448000Y-106804000D02*
X156448000Y-109604000D01*
X156448000Y-109604000D02*
X154448000Y-109604000D01*
%TO.C,TP9*%
X154108000Y-103632000D02*
G75*
G02*
X151708000Y-103632000I-1200000J0D01*
G01*
X151708000Y-103632000D02*
G75*
G02*
X154108000Y-103632000I1200000J0D01*
G01*
D12*
%TO.C,U11*%
X142187000Y-130658000D02*
X143787000Y-130658000D01*
X143787000Y-127538000D02*
X142187000Y-127538000D01*
D13*
X140587000Y-128148000D02*
G75*
G02*
X140387000Y-128148000I-100000J0D01*
G01*
X140387000Y-128148000D02*
G75*
G02*
X140587000Y-128148000I100000J0D01*
G01*
D11*
%TO.C,TP3*%
X123120000Y-99568000D02*
G75*
G02*
X120720000Y-99568000I-1200000J0D01*
G01*
X120720000Y-99568000D02*
G75*
G02*
X123120000Y-99568000I1200000J0D01*
G01*
D13*
%TO.C,U5*%
X112675993Y-124909999D02*
X112825998Y-124909999D01*
X112675998Y-121510001D02*
X113200998Y-121510001D01*
X114625999Y-121510001D02*
X114776004Y-121510001D01*
X114625999Y-124909999D02*
X114776004Y-124909999D01*
D11*
%TO.C,C13*%
X114885248Y-86517000D02*
X115407752Y-86517000D01*
X114885248Y-87987000D02*
X115407752Y-87987000D01*
%TO.C,R14*%
X145416000Y-107020379D02*
X145416000Y-107355621D01*
X146176000Y-107020379D02*
X146176000Y-107355621D01*
%TO.C,TP16*%
X117405000Y-131572000D02*
G75*
G02*
X115005000Y-131572000I-1200000J0D01*
G01*
X115005000Y-131572000D02*
G75*
G02*
X117405000Y-131572000I1200000J0D01*
G01*
%TO.C,L1*%
X139216000Y-104648000D02*
X140486000Y-104648000D01*
X140486000Y-103428000D02*
X140486000Y-105868000D01*
X140486000Y-105868000D02*
X146026000Y-105868000D01*
X146026000Y-103428000D02*
X140486000Y-103428000D01*
X146026000Y-105868000D02*
X146026000Y-103428000D01*
X147296000Y-104648000D02*
X146026000Y-104648000D01*
%TO.C,JP1*%
X126381000Y-132204000D02*
X128381000Y-132204000D01*
X126381000Y-135004000D02*
X126381000Y-132204000D01*
X128381000Y-132204000D02*
X128381000Y-135004000D01*
X128381000Y-135004000D02*
X126381000Y-135004000D01*
%TO.C,C8*%
X152681000Y-99946748D02*
X152681000Y-100469252D01*
X154151000Y-99946748D02*
X154151000Y-100469252D01*
%TO.C,U7*%
X146309000Y-98673500D02*
X146309000Y-97873500D01*
X146309000Y-98673500D02*
X146309000Y-99473500D01*
X149429000Y-98673500D02*
X149429000Y-97873500D01*
X149429000Y-98673500D02*
X149429000Y-99473500D01*
X149684000Y-97613500D02*
X149354000Y-97373500D01*
X149684000Y-97133500D01*
X149684000Y-97613500D01*
G36*
X149684000Y-97613500D02*
G01*
X149354000Y-97373500D01*
X149684000Y-97133500D01*
X149684000Y-97613500D01*
G37*
%TO.C,U3*%
X157358500Y-99598000D02*
X156558500Y-99598000D01*
X157358500Y-99598000D02*
X158158500Y-99598000D01*
X157358500Y-102718000D02*
X156558500Y-102718000D01*
X157358500Y-102718000D02*
X158158500Y-102718000D01*
X156058500Y-99648000D02*
X155818500Y-99318000D01*
X156298500Y-99318000D01*
X156058500Y-99648000D01*
G36*
X156058500Y-99648000D02*
G01*
X155818500Y-99318000D01*
X156298500Y-99318000D01*
X156058500Y-99648000D01*
G37*
%TO.C,U1*%
X108134000Y-92429500D02*
X108134000Y-90479500D01*
X108134000Y-92429500D02*
X108134000Y-94379500D01*
X113254000Y-92429500D02*
X113254000Y-90479500D01*
X113254000Y-92429500D02*
X113254000Y-94379500D01*
X113584000Y-89957000D02*
X113254000Y-89717000D01*
X113584000Y-89477000D01*
X113584000Y-89957000D01*
G36*
X113584000Y-89957000D02*
G01*
X113254000Y-89717000D01*
X113584000Y-89477000D01*
X113584000Y-89957000D01*
G37*
%TO.C,TP22*%
X146488000Y-115570000D02*
G75*
G02*
X144088000Y-115570000I-1200000J0D01*
G01*
X144088000Y-115570000D02*
G75*
G02*
X146488000Y-115570000I1200000J0D01*
G01*
%TO.C,TP21*%
X151568000Y-117856000D02*
G75*
G02*
X149168000Y-117856000I-1200000J0D01*
G01*
X149168000Y-117856000D02*
G75*
G02*
X151568000Y-117856000I1200000J0D01*
G01*
%TO.C,TP13*%
X104324000Y-124460000D02*
G75*
G02*
X101924000Y-124460000I-1200000J0D01*
G01*
X101924000Y-124460000D02*
G75*
G02*
X104324000Y-124460000I1200000J0D01*
G01*
%TO.C,R10*%
X145834500Y-130215621D02*
X145834500Y-129880379D01*
X146594500Y-130215621D02*
X146594500Y-129880379D01*
%TO.C,C6*%
X118772000Y-130802748D02*
X118772000Y-131325252D01*
X120242000Y-130802748D02*
X120242000Y-131325252D01*
%TO.C,C9*%
X115089000Y-119641252D02*
X115089000Y-119118748D01*
X116559000Y-119641252D02*
X116559000Y-119118748D01*
%TO.C,J3*%
X102860000Y-103890000D02*
X102860000Y-110010000D01*
X102860000Y-106450000D02*
X107220000Y-106450000D01*
X102860000Y-110010000D02*
X110680000Y-110010000D01*
X105120000Y-104650000D02*
X105120000Y-105650000D01*
X105120000Y-105150000D02*
X102860000Y-105150000D01*
X105120000Y-105650000D02*
X102860000Y-105650000D01*
X105120000Y-105650000D02*
X106720000Y-105650000D01*
X105120000Y-108250000D02*
X106720000Y-108250000D01*
X105120000Y-109250000D02*
X105120000Y-108250000D01*
X106720000Y-104650000D02*
X105120000Y-104650000D01*
X106720000Y-105650000D02*
X106720000Y-104650000D01*
X106720000Y-108250000D02*
X106720000Y-109250000D01*
X106720000Y-109250000D02*
X105120000Y-109250000D01*
X107220000Y-106450000D02*
X107220000Y-107450000D01*
X107220000Y-107450000D02*
X102860000Y-107450000D01*
X109080000Y-103890000D02*
X109080000Y-104810000D01*
X109080000Y-104810000D02*
X110680000Y-104810000D01*
X109080000Y-105090000D02*
X109080000Y-104810000D01*
X109080000Y-105090000D02*
X110295000Y-105090000D01*
X109080000Y-109090000D02*
X109080000Y-108810000D01*
X109080000Y-110010000D02*
X109080000Y-109090000D01*
X110680000Y-103890000D02*
X102860000Y-103890000D01*
X110680000Y-104810000D02*
X110680000Y-103890000D01*
X110680000Y-109090000D02*
X109080000Y-109090000D01*
X110680000Y-110010000D02*
X110680000Y-109090000D01*
D12*
%TO.C,U10*%
X122853000Y-131542000D02*
X124453000Y-131542000D01*
X124453000Y-128422000D02*
X122853000Y-128422000D01*
D13*
X121253000Y-129032000D02*
G75*
G02*
X121053000Y-129032000I-100000J0D01*
G01*
X121053000Y-129032000D02*
G75*
G02*
X121253000Y-129032000I100000J0D01*
G01*
D11*
%TO.C,D6*%
X162657000Y-119786000D02*
X162657000Y-126946000D01*
X162657000Y-126946000D02*
X166527000Y-126946000D01*
X166527000Y-126946000D02*
X166527000Y-119786000D01*
%TO.C,C4*%
X137441000Y-110990748D02*
X137441000Y-111513252D01*
X138911000Y-110990748D02*
X138911000Y-111513252D01*
D13*
%TO.C,U6*%
X155498003Y-120986001D02*
X155347998Y-120986001D01*
X155498003Y-124385999D02*
X155347998Y-124385999D01*
X157448004Y-124385999D02*
X156923004Y-124385999D01*
X157448009Y-120986001D02*
X157298004Y-120986001D01*
D11*
%TO.C,TP6*%
X120580000Y-105664000D02*
G75*
G02*
X118180000Y-105664000I-1200000J0D01*
G01*
X118180000Y-105664000D02*
G75*
G02*
X120580000Y-105664000I1200000J0D01*
G01*
%TO.C,C2*%
X97253248Y-100865000D02*
X97775752Y-100865000D01*
X97253248Y-102335000D02*
X97775752Y-102335000D01*
%TO.C,D5*%
X109753000Y-130078000D02*
X116913000Y-130078000D01*
X116913000Y-126208000D02*
X109753000Y-126208000D01*
X116913000Y-130078000D02*
X116913000Y-126208000D01*
%TO.C,R3*%
X119508000Y-95163621D02*
X119508000Y-94828379D01*
X120268000Y-95163621D02*
X120268000Y-94828379D01*
%TO.C,JP2*%
X138192000Y-131838000D02*
X140192000Y-131838000D01*
X138192000Y-134638000D02*
X138192000Y-131838000D01*
X140192000Y-131838000D02*
X140192000Y-134638000D01*
X140192000Y-134638000D02*
X138192000Y-134638000D01*
%TO.C,C18*%
X138203000Y-129278748D02*
X138203000Y-129801252D01*
X139673000Y-129278748D02*
X139673000Y-129801252D01*
%TO.C,TP7*%
X155632000Y-112268000D02*
G75*
G02*
X153232000Y-112268000I-1200000J0D01*
G01*
X153232000Y-112268000D02*
G75*
G02*
X155632000Y-112268000I1200000J0D01*
G01*
%TO.C,C17*%
X165381000Y-105026748D02*
X165381000Y-105549252D01*
X166851000Y-105026748D02*
X166851000Y-105549252D01*
%TO.C,JP5*%
X169180000Y-104264000D02*
X171180000Y-104264000D01*
X169180000Y-107064000D02*
X169180000Y-104264000D01*
X171180000Y-104264000D02*
X171180000Y-107064000D01*
X171180000Y-107064000D02*
X169180000Y-107064000D01*
%TO.C,R9*%
X126620000Y-130723621D02*
X126620000Y-130388379D01*
X127380000Y-130723621D02*
X127380000Y-130388379D01*
%TO.C,R6*%
X115436379Y-91952000D02*
X115771621Y-91952000D01*
X115436379Y-92712000D02*
X115771621Y-92712000D01*
%TO.C,TP5*%
X119056000Y-94488000D02*
G75*
G02*
X116656000Y-94488000I-1200000J0D01*
G01*
X116656000Y-94488000D02*
G75*
G02*
X119056000Y-94488000I1200000J0D01*
G01*
%TO.C,C5*%
X152173000Y-107942748D02*
X152173000Y-108465252D01*
X153643000Y-107942748D02*
X153643000Y-108465252D01*
%TO.C,R18*%
X143384000Y-93901879D02*
X143384000Y-94237121D01*
X144144000Y-93901879D02*
X144144000Y-94237121D01*
%TO.C,D3*%
X146909000Y-106734000D02*
X146909000Y-113894000D01*
X150779000Y-106734000D02*
X146909000Y-106734000D01*
X150779000Y-113894000D02*
X150779000Y-106734000D01*
%TO.C,TP2*%
X126295000Y-98933000D02*
G75*
G02*
X123895000Y-98933000I-1200000J0D01*
G01*
X123895000Y-98933000D02*
G75*
G02*
X126295000Y-98933000I1200000J0D01*
G01*
%TO.C,R12*%
X145416000Y-109560379D02*
X145416000Y-109895621D01*
X146176000Y-109560379D02*
X146176000Y-109895621D01*
%TO.C,TP20*%
X169856000Y-115316000D02*
G75*
G02*
X167456000Y-115316000I-1200000J0D01*
G01*
X167456000Y-115316000D02*
G75*
G02*
X169856000Y-115316000I1200000J0D01*
G01*
%TO.C,JP3*%
X168164000Y-93327000D02*
X170164000Y-93327000D01*
X168164000Y-96127000D02*
X168164000Y-93327000D01*
X170164000Y-93327000D02*
X170164000Y-96127000D01*
X170164000Y-96127000D02*
X168164000Y-96127000D01*
%TO.C,R8*%
X116219121Y-89412000D02*
X115883879Y-89412000D01*
X116219121Y-90172000D02*
X115883879Y-90172000D01*
%TO.C,TP14*%
X104324000Y-128524000D02*
G75*
G02*
X101924000Y-128524000I-1200000J0D01*
G01*
X101924000Y-128524000D02*
G75*
G02*
X104324000Y-128524000I1200000J0D01*
G01*
%TO.C,TP19*%
X165792000Y-116840000D02*
G75*
G02*
X163392000Y-116840000I-1200000J0D01*
G01*
X163392000Y-116840000D02*
G75*
G02*
X165792000Y-116840000I1200000J0D01*
G01*
%TO.C,U4*%
X142118500Y-106710000D02*
X141318500Y-106710000D01*
X142118500Y-106710000D02*
X142918500Y-106710000D01*
X142118500Y-109830000D02*
X141318500Y-109830000D01*
X142118500Y-109830000D02*
X142918500Y-109830000D01*
X143658500Y-110110000D02*
X143178500Y-110110000D01*
X143418500Y-109780000D01*
X143658500Y-110110000D01*
G36*
X143658500Y-110110000D02*
G01*
X143178500Y-110110000D01*
X143418500Y-109780000D01*
X143658500Y-110110000D01*
G37*
%TO.C,TP11*%
X145472000Y-98044000D02*
G75*
G02*
X143072000Y-98044000I-1200000J0D01*
G01*
X143072000Y-98044000D02*
G75*
G02*
X145472000Y-98044000I1200000J0D01*
G01*
%TO.C,R15*%
X144228000Y-84526000D02*
X166668000Y-84526000D01*
X144228000Y-86906000D02*
X144228000Y-84526000D01*
X144228000Y-90386000D02*
X144228000Y-92766000D01*
X144228000Y-92766000D02*
X166668000Y-92766000D01*
X166668000Y-84526000D02*
X166668000Y-86906000D01*
X166668000Y-92766000D02*
X166668000Y-90386000D01*
%TO.C,R17*%
X160656000Y-106025379D02*
X160656000Y-106360621D01*
X161416000Y-106025379D02*
X161416000Y-106360621D01*
%TO.C,TP8*%
X139376000Y-107696000D02*
G75*
G02*
X136976000Y-107696000I-1200000J0D01*
G01*
X136976000Y-107696000D02*
G75*
G02*
X139376000Y-107696000I1200000J0D01*
G01*
%TO.C,R19*%
X155576000Y-94738879D02*
X155576000Y-95074121D01*
X156336000Y-94738879D02*
X156336000Y-95074121D01*
%TO.C,D4*%
X104745000Y-122265500D02*
X104745000Y-129425500D01*
X104745000Y-129425500D02*
X108615000Y-129425500D01*
X108615000Y-129425500D02*
X108615000Y-122265500D01*
D12*
%TO.C,S1*%
X131268000Y-116572000D02*
X131268000Y-117322000D01*
X131268000Y-121172000D02*
X131268000Y-120422000D01*
X131268000Y-121172000D02*
X140068000Y-121172000D01*
X140068000Y-116572000D02*
X131268000Y-116572000D01*
X140068000Y-116572000D02*
X140068000Y-117322000D01*
X140068000Y-121172000D02*
X140068000Y-120422000D01*
D13*
X133768000Y-121872000D02*
G75*
G02*
X133568000Y-121872000I-100000J0D01*
G01*
X133568000Y-121872000D02*
G75*
G02*
X133768000Y-121872000I100000J0D01*
G01*
D12*
%TO.C,J4*%
X96464000Y-84652000D02*
X96464000Y-86082000D01*
X96464000Y-90102000D02*
X96464000Y-88422000D01*
X105404000Y-84652000D02*
X96464000Y-84652000D01*
X105404000Y-84652000D02*
X105404000Y-86082000D01*
X105404000Y-90102000D02*
X105404000Y-88422000D01*
D13*
X104234000Y-93252000D02*
G75*
G02*
X104034000Y-93252000I-100000J0D01*
G01*
X104034000Y-93252000D02*
G75*
G02*
X104234000Y-93252000I100000J0D01*
G01*
D11*
%TO.C,C10*%
X111025000Y-119641252D02*
X111025000Y-119118748D01*
X112495000Y-119641252D02*
X112495000Y-119118748D01*
%TO.C,C11*%
X152681000Y-126760248D02*
X152681000Y-127282752D01*
X154151000Y-126760248D02*
X154151000Y-127282752D01*
%TO.C,L2*%
X162076000Y-99568000D02*
X163346000Y-99568000D01*
X163346000Y-98348000D02*
X163346000Y-100788000D01*
X163346000Y-100788000D02*
X168886000Y-100788000D01*
X168886000Y-98348000D02*
X163346000Y-98348000D01*
X168886000Y-100788000D02*
X168886000Y-98348000D01*
X170156000Y-99568000D02*
X168886000Y-99568000D01*
%TO.C,TP17*%
X155124000Y-131064000D02*
G75*
G02*
X152724000Y-131064000I-1200000J0D01*
G01*
X152724000Y-131064000D02*
G75*
G02*
X155124000Y-131064000I1200000J0D01*
G01*
%TO.C,R7*%
X113920000Y-98087621D02*
X113920000Y-97752379D01*
X114680000Y-98087621D02*
X114680000Y-97752379D01*
%TO.C,C7*%
X148597252Y-93245000D02*
X148074748Y-93245000D01*
X148597252Y-94715000D02*
X148074748Y-94715000D01*
%TO.C,TP12*%
X114992000Y-116332000D02*
G75*
G02*
X112592000Y-116332000I-1200000J0D01*
G01*
X112592000Y-116332000D02*
G75*
G02*
X114992000Y-116332000I1200000J0D01*
G01*
%TD*%
%LPC*%
%TO.C,JP4*%
G36*
X156198000Y-108054000D02*
G01*
X154698000Y-108054000D01*
X154698000Y-108354000D01*
X156198000Y-108354000D01*
X156198000Y-108054000D01*
G37*
%TO.C,JP1*%
G36*
X126631000Y-133754000D02*
G01*
X128131000Y-133754000D01*
X128131000Y-133454000D01*
X126631000Y-133454000D01*
X126631000Y-133754000D01*
G37*
%TO.C,JP2*%
G36*
X138442000Y-133388000D02*
G01*
X139942000Y-133388000D01*
X139942000Y-133088000D01*
X138442000Y-133088000D01*
X138442000Y-133388000D01*
G37*
%TO.C,JP5*%
G36*
X170930000Y-105514000D02*
G01*
X169430000Y-105514000D01*
X169430000Y-105814000D01*
X170930000Y-105814000D01*
X170930000Y-105514000D01*
G37*
%TO.C,JP3*%
G36*
X169914000Y-94577000D02*
G01*
X168414000Y-94577000D01*
X168414000Y-94877000D01*
X169914000Y-94877000D01*
X169914000Y-94577000D01*
G37*
D14*
%TO.C,J4*%
X98084000Y-92622000D02*
X97384000Y-92622000D01*
X97384000Y-91382000D01*
X98084000Y-91382000D01*
X98084000Y-92622000D01*
G36*
X98084000Y-92622000D02*
G01*
X97384000Y-92622000D01*
X97384000Y-91382000D01*
X98084000Y-91382000D01*
X98084000Y-92622000D01*
G37*
X98884000Y-92622000D02*
X98184000Y-92622000D01*
X98184000Y-91382000D01*
X98884000Y-91382000D01*
X98884000Y-92622000D01*
G36*
X98884000Y-92622000D02*
G01*
X98184000Y-92622000D01*
X98184000Y-91382000D01*
X98884000Y-91382000D01*
X98884000Y-92622000D01*
G37*
X99384000Y-92622000D02*
X98984000Y-92622000D01*
X98984000Y-91382000D01*
X99384000Y-91382000D01*
X99384000Y-92622000D01*
G36*
X99384000Y-92622000D02*
G01*
X98984000Y-92622000D01*
X98984000Y-91382000D01*
X99384000Y-91382000D01*
X99384000Y-92622000D01*
G37*
X99884000Y-92622000D02*
X99484000Y-92622000D01*
X99484000Y-91382000D01*
X99884000Y-91382000D01*
X99884000Y-92622000D01*
G36*
X99884000Y-92622000D02*
G01*
X99484000Y-92622000D01*
X99484000Y-91382000D01*
X99884000Y-91382000D01*
X99884000Y-92622000D01*
G37*
X100384000Y-92622000D02*
X99984000Y-92622000D01*
X99984000Y-91382000D01*
X100384000Y-91382000D01*
X100384000Y-92622000D01*
G36*
X100384000Y-92622000D02*
G01*
X99984000Y-92622000D01*
X99984000Y-91382000D01*
X100384000Y-91382000D01*
X100384000Y-92622000D01*
G37*
X100884000Y-92622000D02*
X100484000Y-92622000D01*
X100484000Y-91382000D01*
X100884000Y-91382000D01*
X100884000Y-92622000D01*
G36*
X100884000Y-92622000D02*
G01*
X100484000Y-92622000D01*
X100484000Y-91382000D01*
X100884000Y-91382000D01*
X100884000Y-92622000D01*
G37*
X101384000Y-92622000D02*
X100984000Y-92622000D01*
X100984000Y-91382000D01*
X101384000Y-91382000D01*
X101384000Y-92622000D01*
G36*
X101384000Y-92622000D02*
G01*
X100984000Y-92622000D01*
X100984000Y-91382000D01*
X101384000Y-91382000D01*
X101384000Y-92622000D01*
G37*
X101884000Y-92622000D02*
X101484000Y-92622000D01*
X101484000Y-91382000D01*
X101884000Y-91382000D01*
X101884000Y-92622000D01*
G36*
X101884000Y-92622000D02*
G01*
X101484000Y-92622000D01*
X101484000Y-91382000D01*
X101884000Y-91382000D01*
X101884000Y-92622000D01*
G37*
X102384000Y-92622000D02*
X101984000Y-92622000D01*
X101984000Y-91382000D01*
X102384000Y-91382000D01*
X102384000Y-92622000D01*
G36*
X102384000Y-92622000D02*
G01*
X101984000Y-92622000D01*
X101984000Y-91382000D01*
X102384000Y-91382000D01*
X102384000Y-92622000D01*
G37*
X102884000Y-92622000D02*
X102484000Y-92622000D01*
X102484000Y-91382000D01*
X102884000Y-91382000D01*
X102884000Y-92622000D01*
G36*
X102884000Y-92622000D02*
G01*
X102484000Y-92622000D01*
X102484000Y-91382000D01*
X102884000Y-91382000D01*
X102884000Y-92622000D01*
G37*
X103684000Y-92622000D02*
X102984000Y-92622000D01*
X102984000Y-91382000D01*
X103684000Y-91382000D01*
X103684000Y-92622000D01*
G36*
X103684000Y-92622000D02*
G01*
X102984000Y-92622000D01*
X102984000Y-91382000D01*
X103684000Y-91382000D01*
X103684000Y-92622000D01*
G37*
X104484000Y-92622000D02*
X103784000Y-92622000D01*
X103784000Y-91382000D01*
X104484000Y-91382000D01*
X104484000Y-92622000D01*
G36*
X104484000Y-92622000D02*
G01*
X103784000Y-92622000D01*
X103784000Y-91382000D01*
X104484000Y-91382000D01*
X104484000Y-92622000D01*
G37*
%TD*%
D15*
%TO.C,C3*%
X97028000Y-94974500D03*
X97028000Y-97049500D03*
%TD*%
D16*
%TO.C,U2*%
X119541500Y-92332000D03*
X120041500Y-92332000D03*
X120541500Y-92332000D03*
X121041500Y-92332000D03*
D17*
X121729000Y-91644500D03*
X121729000Y-91144500D03*
X121729000Y-90644500D03*
X121729000Y-90144500D03*
D16*
X121041500Y-89457000D03*
X120541500Y-89457000D03*
X120041500Y-89457000D03*
X119541500Y-89457000D03*
D17*
X118854000Y-90144500D03*
X118854000Y-90644500D03*
X118854000Y-91144500D03*
X118854000Y-91644500D03*
D18*
X120291500Y-90894500D03*
%TD*%
D15*
%TO.C,C12*%
X157988000Y-125962500D03*
X157988000Y-128037500D03*
%TD*%
D19*
%TO.C,R13*%
X145796000Y-111670500D03*
X145796000Y-112865500D03*
%TD*%
D20*
%TO.C,TP18*%
X161036000Y-125984000D03*
%TD*%
D15*
%TO.C,C14*%
X121666000Y-94974500D03*
X121666000Y-97049500D03*
%TD*%
D21*
%TO.C,D7*%
X153476500Y-117348000D03*
X159451500Y-117348000D03*
%TD*%
D22*
%TO.C,Q1*%
X118715000Y-98994000D03*
X118715000Y-97094000D03*
X116840000Y-98044000D03*
%TD*%
D20*
%TO.C,TP10*%
X169672000Y-110744000D03*
%TD*%
D23*
%TO.C,R16*%
X161036000Y-104250500D03*
X161036000Y-103055500D03*
%TD*%
D20*
%TO.C,TP1*%
X110726000Y-98428000D03*
%TD*%
%TO.C,TP15*%
X111252000Y-131572000D03*
%TD*%
D24*
%TO.C,J2*%
X152400000Y-137160000D03*
D25*
X152400000Y-139700000D03*
X149860000Y-137160000D03*
X149860000Y-139700000D03*
X147320000Y-137160000D03*
X147320000Y-139700000D03*
X144780000Y-137160000D03*
X144780000Y-139700000D03*
X142240000Y-137160000D03*
X142240000Y-139700000D03*
X139700000Y-137160000D03*
X139700000Y-139700000D03*
X137160000Y-137160000D03*
X137160000Y-139700000D03*
X134620000Y-137160000D03*
X134620000Y-139700000D03*
X132080000Y-137160000D03*
X132080000Y-139700000D03*
X129540000Y-137160000D03*
X129540000Y-139700000D03*
X127000000Y-137160000D03*
X127000000Y-139700000D03*
X124460000Y-137160000D03*
X124460000Y-139700000D03*
X121920000Y-137160000D03*
X121920000Y-139700000D03*
X119380000Y-137160000D03*
X119380000Y-139700000D03*
X116840000Y-137160000D03*
X116840000Y-139700000D03*
X114300000Y-137160000D03*
X114300000Y-139700000D03*
%TD*%
D26*
%TO.C,JP4*%
X155448000Y-107554000D03*
X155448000Y-108854000D03*
%TD*%
D20*
%TO.C,TP9*%
X152908000Y-103632000D03*
%TD*%
D27*
%TO.C,U11*%
X141732000Y-128148000D03*
X141732000Y-129098000D03*
X141732000Y-130048000D03*
X144242000Y-130048000D03*
X144242000Y-129098000D03*
X144242000Y-128148000D03*
%TD*%
D20*
%TO.C,TP3*%
X121920000Y-99568000D03*
%TD*%
D28*
%TO.C,U5*%
X112776000Y-121960000D03*
X112776000Y-122460002D03*
X112776000Y-122960000D03*
X112776000Y-123460000D03*
X112776000Y-123960001D03*
X112776000Y-124460000D03*
X114675999Y-124460000D03*
X114675999Y-123960001D03*
X114675999Y-123460000D03*
X114675999Y-122960000D03*
X114675999Y-122460002D03*
X114675999Y-121960000D03*
D29*
X113726001Y-123210000D03*
D30*
X113725998Y-122459999D03*
X113725998Y-123210000D03*
X113725998Y-123960001D03*
%TD*%
D31*
%TO.C,C13*%
X114109000Y-87252000D03*
X116184000Y-87252000D03*
%TD*%
D19*
%TO.C,R14*%
X145796000Y-106590500D03*
X145796000Y-107785500D03*
%TD*%
D20*
%TO.C,TP16*%
X116205000Y-131572000D03*
%TD*%
D32*
%TO.C,L1*%
X138176000Y-104648000D03*
D33*
X148336000Y-104648000D03*
%TD*%
D26*
%TO.C,JP1*%
X127381000Y-134254000D03*
X127381000Y-132954000D03*
%TD*%
D15*
%TO.C,C8*%
X153416000Y-99170500D03*
X153416000Y-101245500D03*
%TD*%
D34*
%TO.C,U7*%
X148844000Y-97536000D03*
X148194000Y-97536000D03*
X147544000Y-97536000D03*
X146894000Y-97536000D03*
X146894000Y-99811000D03*
X147544000Y-99811000D03*
X148194000Y-99811000D03*
X148844000Y-99811000D03*
%TD*%
D35*
%TO.C,U3*%
X156221000Y-100208000D03*
X156221000Y-101158000D03*
X156221000Y-102108000D03*
X158496000Y-102108000D03*
X158496000Y-100208000D03*
%TD*%
D36*
%TO.C,U1*%
X112694000Y-89792000D03*
X111694000Y-89792000D03*
X110694000Y-89792000D03*
X109694000Y-89792000D03*
X108694000Y-89792000D03*
X108694000Y-95067000D03*
X109694000Y-95067000D03*
X110694000Y-95067000D03*
X111694000Y-95067000D03*
X112694000Y-95067000D03*
D37*
X110694000Y-92429500D03*
%TD*%
D20*
%TO.C,TP22*%
X145288000Y-115570000D03*
%TD*%
%TO.C,TP21*%
X150368000Y-117856000D03*
%TD*%
%TO.C,TP13*%
X103124000Y-124460000D03*
%TD*%
D23*
%TO.C,R10*%
X146214500Y-130645500D03*
X146214500Y-129450500D03*
%TD*%
D15*
%TO.C,C6*%
X119507000Y-130026500D03*
X119507000Y-132101500D03*
%TD*%
D38*
%TO.C,C9*%
X115824000Y-120417500D03*
X115824000Y-118342500D03*
%TD*%
D39*
%TO.C,J3*%
X109220000Y-105950000D03*
D40*
X109220000Y-107950000D03*
%TD*%
D27*
%TO.C,U10*%
X122398000Y-129032000D03*
X122398000Y-129982000D03*
X122398000Y-130932000D03*
X124908000Y-130932000D03*
X124908000Y-129982000D03*
X124908000Y-129032000D03*
%TD*%
D41*
%TO.C,D6*%
X164592000Y-125923500D03*
X164592000Y-119948500D03*
%TD*%
D15*
%TO.C,C4*%
X138176000Y-110214500D03*
X138176000Y-112289500D03*
%TD*%
D28*
%TO.C,U6*%
X157348002Y-123936000D03*
X157348002Y-123435998D03*
X157348002Y-122936000D03*
X157348002Y-122436000D03*
X157348002Y-121935999D03*
X157348002Y-121436000D03*
X155448003Y-121436000D03*
X155448003Y-121935999D03*
X155448003Y-122436000D03*
X155448003Y-122936000D03*
X155448003Y-123435998D03*
X155448003Y-123936000D03*
D29*
X156398001Y-122686000D03*
D30*
X156398004Y-123436001D03*
X156398004Y-122686000D03*
X156398004Y-121935999D03*
%TD*%
D20*
%TO.C,TP6*%
X119380000Y-105664000D03*
%TD*%
D31*
%TO.C,C2*%
X96477000Y-101600000D03*
X98552000Y-101600000D03*
%TD*%
D42*
%TO.C,D5*%
X115890500Y-128143000D03*
X109915500Y-128143000D03*
%TD*%
D23*
%TO.C,R3*%
X119888000Y-95593500D03*
X119888000Y-94398500D03*
%TD*%
D26*
%TO.C,JP2*%
X139192000Y-133888000D03*
X139192000Y-132588000D03*
%TD*%
D15*
%TO.C,C18*%
X138938000Y-128502500D03*
X138938000Y-130577500D03*
%TD*%
D20*
%TO.C,TP7*%
X154432000Y-112268000D03*
%TD*%
D15*
%TO.C,C17*%
X166116000Y-104250500D03*
X166116000Y-106325500D03*
%TD*%
D26*
%TO.C,JP5*%
X170180000Y-105014000D03*
X170180000Y-106314000D03*
%TD*%
D23*
%TO.C,R9*%
X127000000Y-131153500D03*
X127000000Y-129958500D03*
%TD*%
D43*
%TO.C,R6*%
X115006500Y-92332000D03*
X116201500Y-92332000D03*
%TD*%
D20*
%TO.C,TP5*%
X117856000Y-94488000D03*
%TD*%
D15*
%TO.C,C5*%
X152908000Y-107166500D03*
X152908000Y-109241500D03*
%TD*%
D19*
%TO.C,R18*%
X143764000Y-93472000D03*
X143764000Y-94667000D03*
%TD*%
D44*
%TO.C,D3*%
X148844000Y-107756500D03*
X148844000Y-113731500D03*
%TD*%
D20*
%TO.C,TP2*%
X125095000Y-98933000D03*
%TD*%
D19*
%TO.C,R12*%
X145796000Y-109130500D03*
X145796000Y-110325500D03*
%TD*%
D20*
%TO.C,TP20*%
X168656000Y-115316000D03*
%TD*%
D26*
%TO.C,JP3*%
X169164000Y-94077000D03*
X169164000Y-95377000D03*
%TD*%
D45*
%TO.C,R8*%
X116649000Y-89792000D03*
X115454000Y-89792000D03*
%TD*%
D20*
%TO.C,TP14*%
X103124000Y-128524000D03*
%TD*%
%TO.C,TP19*%
X164592000Y-116840000D03*
%TD*%
D46*
%TO.C,U4*%
X143256000Y-109220000D03*
X143256000Y-108270000D03*
X143256000Y-107320000D03*
X140981000Y-107320000D03*
X140981000Y-108270000D03*
X140981000Y-109220000D03*
%TD*%
D20*
%TO.C,TP11*%
X144272000Y-98044000D03*
%TD*%
D47*
%TO.C,R15*%
X142748000Y-88646000D03*
D48*
X148298000Y-88646000D03*
X162598000Y-88646000D03*
X168148000Y-88646000D03*
%TD*%
D19*
%TO.C,R17*%
X161036000Y-105595500D03*
X161036000Y-106790500D03*
%TD*%
D49*
%TO.C,H2*%
X133350000Y-102235000D03*
D50*
X133350000Y-102235000D03*
%TD*%
D20*
%TO.C,TP8*%
X138176000Y-107696000D03*
%TD*%
D19*
%TO.C,R19*%
X155956000Y-94309000D03*
X155956000Y-95504000D03*
%TD*%
D41*
%TO.C,D4*%
X106680000Y-128403000D03*
X106680000Y-122428000D03*
%TD*%
D51*
%TO.C,S1*%
X133668000Y-118872000D03*
D52*
X135668000Y-118872000D03*
X137668000Y-118872000D03*
D53*
X131468000Y-118872000D03*
X139868000Y-118872000D03*
%TD*%
D54*
%TO.C,J4*%
X103824000Y-90932000D03*
X98044000Y-90932000D03*
D55*
X105259000Y-91422000D03*
X96609000Y-91422000D03*
D56*
X105259000Y-87252000D03*
X96609000Y-87252000D03*
%TD*%
D38*
%TO.C,C10*%
X111760000Y-120417500D03*
X111760000Y-118342500D03*
%TD*%
D15*
%TO.C,C11*%
X153416000Y-125984000D03*
X153416000Y-128059000D03*
%TD*%
D32*
%TO.C,L2*%
X161036000Y-99568000D03*
D33*
X171196000Y-99568000D03*
%TD*%
D20*
%TO.C,TP17*%
X153924000Y-131064000D03*
%TD*%
D23*
%TO.C,R7*%
X114300000Y-98517500D03*
X114300000Y-97322500D03*
%TD*%
D57*
%TO.C,C7*%
X149373500Y-93980000D03*
X147298500Y-93980000D03*
%TD*%
D20*
%TO.C,TP12*%
X113792000Y-116332000D03*
%TD*%
%LPD*%
M02*
